<?xml version="1.0" standalone="no"?>
<!DOCTYPE svg PUBLIC "-//W3C//DTD SVG 1.1//EN" "http://www.w3.org/Graphics/SVG/1.1/DTD/svg11.dtd" >
<svg>
<metadata>
Created by FontForge 20090914 at Fri Nov 11 14:20:23 2016
 By www-data
(c)  M. Klein   2.07
</metadata>
<defs>
<font id="OldNewspaperTypes" horiz-adv-x="470" >
  <font-face 
    font-family="OldNewspaperTypes"
    font-weight="500"
    font-stretch="normal"
    units-per-em="1000"
    panose-1="2 0 6 3 6 0 0 2 0 4"
    ascent="800"
    descent="-200"
    x-height="514.997"
    cap-height="755.995"
    bbox="-147.002 -247.333 1135 1034.38"
    underline-thickness="20"
    underline-position="-123"
    unicode-range="U+0005-U+E003"
  />
<missing-glyph horiz-adv-x="440" 
 />
    <glyph glyph-name=".notdef" horiz-adv-x="440" 
 />
    <glyph glyph-name="breve" horiz-adv-x="522" 
d="M441 677c0 4 -0.337891 8.66602 -1.00488 13.999s-1.66699 10.5 -3 15.5s-3.5 9.66699 -6.5 14s-6.5 7.16602 -10.5 8.49902l-12 -17.5c-4 -5.66699 -8.66699 -10.834 -14 -15.501s-11.666 -7 -18.999 -7s-13.666 -2 -18.999 -6l-23.5 -15.5
c-9.66699 -6.33301 -18.167 -10.166 -25.5 -11.499s-19 -2 -35 -2c-15.333 0 -31.166 1 -47.499 3s-31.5 4.83301 -45.5 8.5s-23 8.5 -27 14.5c-13.333 19.333 -23.166 30 -29.499 32s-10.166 -0.666992 -11.499 -8s-1.16602 -17.166 0.500977 -29.499
s3.83398 -23.5 6.50098 -33.5s8.66699 -19 18 -27s17.666 -15.667 24.999 -23c4 -4.66699 7.33301 -7.5 10 -8.5s4.83398 -1.33301 6.50098 -1s3 0.666016 4 0.999023s2.5 -0.5 4.5 -2.5c5.33301 -5.33301 8.16602 -10.666 8.49902 -15.999s4.16602 -10 11.499 -14
s15 -6.16699 23 -6.5s16 -0.166016 24 0.500977c4 0 7.16699 -1 9.5 -3s5 -4 8 -6s7 -3.33301 12 -4s12.167 0 21.5 2c11.333 2.66699 25 9.5 41 20.5s31.167 23.5 45.5 37.5s26.333 28.833 36 44.5s14.5 29.5 14.5 41.5z" />
    <glyph glyph-name="dotaccent" horiz-adv-x="276" 
d="M212 619c1.33301 14.667 -1.50195 27 -8.50195 37s-16 17.5 -27 22.5s-23.167 7.33301 -36.5 7s-25.333 -3.83301 -36 -10.5c-7.33301 -4.66699 -12.333 -8.66699 -15 -12s-4.16699 -6.66602 -4.5 -9.99902s-0.166016 -7.33301 0.500977 -12s0.666992 -10.334 0 -17.001
c-2 -10 -2 -18 0 -24s5 -11.167 9 -15.5s9 -8.5 15 -12.5s12 -9 18 -15s13.667 -7.16699 23 -3.5s18.5 9.16699 27.5 16.5s16.833 15.833 23.5 25.5s10.334 17.5 11.001 23.5z" />
    <glyph glyph-name="ring" horiz-adv-x="324" 
d="M252 713c-4 6 -9.16797 10.8311 -15.501 14.498s-13 6.83398 -20 9.50098l-19.5 7.5c-6 2.33301 -10.333 5.16602 -13 8.49902c-6.66699 0.666992 -15 1.16699 -25 1.5s-18 -0.833984 -24 -3.50098c-8 -3.33301 -16.333 -9.83301 -25 -19.5
s-16.167 -20.834 -22.5 -33.501s-11 -25.334 -14 -38.001s-2.83301 -23 0.5 -31c1.33301 -4.66699 3.33301 -8.16699 6 -10.5s4.66699 -6.16602 6 -11.499c2 -11.333 4.16699 -21.166 6.5 -29.499s8.83301 -16.166 19.5 -23.499c8 0 16.167 -1.33301 24.5 -4
s16.166 -5.33398 23.499 -8.00098c8 2.66699 16 4.16699 24 4.5s16 1 24 2s15.667 2.83301 23 5.5s14 7.66699 20 15c7.33301 8.66699 12.833 19.334 16.5 32.001s5.33398 25.834 5.00098 39.501s-2.16602 26.834 -5.49902 39.501s-8.33301 23.667 -15 33zM154.999 698.998
c18.667 1.33301 33.998 -4.33301 45.998 -17s18.833 -26.667 20.5 -42s-2.5 -29 -12.5 -41s-28 -17 -54 -15c-4 10 -9.66699 19 -17 27s-12 17.667 -14 29c-1.33301 4 -1.33301 8.16699 0 12.5s2 8.5 2 12.5c0.666992 1.33301 0.666992 3 0 5s-1 3.66699 -1 5
c0 0.666992 0.333008 1.33398 1 2.00098s0.666992 0.666992 0 0c2.66699 4 6.33398 6.33301 11.001 7s8.33398 2.66699 11.001 6c0.666992 1.33301 1.5 3.16602 2.5 5.49902s2.5 3.5 4.5 3.5z" />
    <glyph glyph-name="hungarumlaut" unicode="&#xa;" horiz-adv-x="475" 
d="M396 725c1.33301 8.66699 0.667969 17.5 -1.99902 26.5s-6.5 16.167 -11.5 21.5s-11.333 8.16602 -19 8.49902s-15.834 -3.83398 -24.501 -12.501c-2.66699 -2.66699 -6.5 -8.66699 -11.5 -18l-17.5 -34l-21 -43l-20.5 -44c-6.33301 -14 -11.666 -26.333 -15.999 -37
s-7.16602 -18 -8.49902 -22c-2 -6.66699 -2.66699 -13.167 -2 -19.5s4.66699 -11.166 12 -14.499c6 -2.66699 15.5 2.33301 28.5 15s26.5 27.834 40.5 45.501s26.667 35 38 52s18.333 28.833 21 35.5c3.33301 7.33301 6.16602 13.833 8.49902 19.5
s4.16602 12.5 5.49902 20.5zM259.002 735c3.33301 14.667 2.33398 26.3271 -2.99902 34.9941s-12.833 13.5 -22.5 14.5s-20 -1.83301 -31 -8.5s-20.5 -18 -28.5 -34c-5.33301 -4 -12 -15.833 -20 -35.5s-15.667 -41 -23 -64s-13 -44.167 -17 -63.5
s-4.33301 -30.666 -1 -33.999c5.33301 -5.33301 10 -7.66602 14 -6.99902s7.66699 2.83398 11 6.50098s6.5 7.83398 9.5 12.501s6.16699 8.66699 9.5 12c5.33301 14.667 13.166 28.834 23.499 42.501l31 40.5c10.333 13.333 20 26.833 29 40.5s15.167 27.834 18.5 42.501z
" />
    <glyph glyph-name="ogonek" horiz-adv-x="353" 
d="M292 -129c-3.33301 3.33301 -7.83203 3.33008 -13.499 -0.00292969s-10.167 -5.66602 -13.5 -6.99902c-1.33301 -0.666992 -5.5 -0.5 -12.5 0.5s-14.833 2.33301 -23.5 4s-17 3.16699 -25 4.5s-13 2.33301 -15 3c-5.33301 1.33301 -9.33301 4 -12 8
s-4.66699 8.66699 -6 14c-4.66699 16.667 -3 30.334 5 41.001s17.167 19.834 27.5 27.501s18.833 14.334 25.5 20.001s6.33398 11.5 -0.999023 17.5c-2 1.33301 -5.83301 2.5 -11.5 3.5s-11.834 1.5 -18.501 1.5s-12.834 -0.333008 -18.501 -1s-9.16699 -1.66699 -10.5 -3
l-26.5 -22c-9 -7.33301 -17.5 -14.666 -25.5 -21.999c-8.66699 -8.66699 -14.667 -20.334 -18 -35.001s-4.16602 -29.5 -2.49902 -44.5s6 -29 13 -42s16.167 -22.167 27.5 -27.5c5.33301 -2.66699 13.5 -3.83398 24.5 -3.50098s23.167 1.5 36.5 3.5s26.666 5 39.999 9
s24.833 8.5 34.5 13.5s16.667 10.667 21 17s3.83301 12.833 -1.5 19.5z" />
    <glyph glyph-name="caron" horiz-adv-x="426" 
d="M375 764c-6 9.33301 -13.4951 12.6709 -22.4951 10.0039s-18.833 -8.5 -29.5 -17.5s-22 -19.833 -34 -32.5l-35 -35.5c-11.333 -11 -22 -19.667 -32 -26s-18.333 -7.83301 -25 -4.5c-2.66699 1.33301 -8.16699 5.66602 -16.5 12.999l-26.5 24.5l-27 25.5
c-8.66699 8 -14.667 13.667 -18 17c-6.66699 -2 -9.83398 -7.33301 -9.50098 -16s2.16602 -18.334 5.49902 -29.001s7.33301 -20.834 12 -30.501l10 -20.5c2.66699 -6 6.5 -10 11.5 -12s8.83301 -5.33301 11.5 -10c3.33301 -6 6.16602 -12.833 8.49902 -20.5s5 -15 8 -22
s6.66699 -13.333 11 -19s10.5 -10.167 18.5 -13.5c24 -10.667 44.333 -13.334 61 -8.00098s29.334 21 38.001 47c1.33301 5.33301 3.66602 9.33301 6.99902 12s6.66602 6 9.99902 10c8.66699 12 14.667 24.833 18 38.5s8.66602 26.834 15.999 39.501
c2 3.33301 4.33301 5.83301 7 7.5s4.66699 4.16699 6 7.5c3.33301 5.33301 5 11.666 5 18.999c0 8 1.33301 15 4 21c1.33301 3.33301 3.5 7.33301 6.5 12s3.16699 9 0.5 13z" />
    <glyph glyph-name="dotlessi" unicode="&#xd;" horiz-adv-x="309" 
d="M284 30c0 10.667 -2.33301 18.5039 -7 23.5039l-16 16.5c-6 6 -11.5 14.5 -16.5 25.5s-7.5 27.833 -7.5 50.5c0 13.333 -2.5 26.5 -7.5 39.5s-7.5 26.167 -7.5 39.5c0.666992 10 2.5 19.667 5.5 29s4.83301 19 5.5 29c0 9.33301 -1.16699 18.166 -3.5 26.499
s-3.16602 17.166 -2.49902 26.499c0 10 1.33301 20 4 30s4 20 4 30c-0.666992 9.33301 -3 17.833 -7 25.5s-6 16.167 -6 25.5v23c0 8 -1 15.5 -3 22.5s-5.5 13 -10.5 18s-12.5 7.83301 -22.5 8.5c-12.667 1.33301 -24.834 0.5 -36.501 -2.5s-23.5 -5.16699 -35.5 -6.5
c-6 -0.666992 -13 -0.333984 -21 0.999023s-15.667 2 -23 2c-6.66699 0 -12.334 -1.83301 -17.001 -5.5s-7 -10.5 -7 -20.5c0 -0.666992 3.33301 -4.16699 10 -10.5s14.167 -14 22.5 -23s16.5 -18.833 24.5 -29.5s13.333 -20.334 16 -29.001
c0.666992 -2 1.33398 -8 2.00098 -18s1.33398 -22.167 2.00098 -36.5s1.5 -29.833 2.5 -46.5s1.66699 -32.5 2 -47.5s0.666016 -27.833 0.999023 -38.5s0.5 -17.334 0.5 -20.001c-0.666992 -5.33301 -2 -11.333 -4 -18l-6 -20.5c-2 -7 -3.5 -13.667 -4.5 -20
s-0.833008 -11.833 0.5 -16.5c-3.33301 -10.667 -6.83301 -22.667 -10.5 -36s-9.83398 -23.666 -18.501 -30.999c-5.33301 -4.66699 -11 -9.16699 -17 -13.5s-8.33301 -10.5 -7 -18.5c1.33301 -9.33301 5.83301 -16.166 13.5 -20.499s16.5 -7 26.5 -8s20 -0.5 30 1.5
s18 4.66699 24 8c6.66699 3.33301 16.834 3.66602 30.501 0.999023s27.667 -4.5 42 -5.5s27 0.833008 38 5.5s16.833 16 17.5 34z" />
    <glyph glyph-name="fraction" horiz-adv-x="96" 
d="M247 730c-6 10 -12.502 15.6689 -19.502 17.002s-14.167 0.333008 -21.5 -3s-14 -8.33301 -20 -15s-11 -13.334 -15 -20.001c-3.33301 -5.33301 -10.333 -19 -21 -41l-39 -82.5l-51.5 -111l-57 -124l-55.5 -122.5l-48 -107.5l-33.5 -77.5
c-8.33301 -20 -12.5 -31 -12.5 -33c0.666992 -9.33301 3.83398 -17 9.50098 -23s12.5 -10 20.5 -12s16 -1.66699 24 1s14.667 7.66699 20 15c6 8.66699 9.83301 17.834 11.5 27.501s3.83398 19.167 6.50098 28.5c2.66699 11.333 6.66699 22.166 12 32.499s11 20.5 17 30.5
l18.5 30c6.33301 10 11.833 20.333 16.5 31c10.667 25.333 19.5 51 26.5 77s16.167 51.333 27.5 76c16 35.333 33.167 70 51.5 104s34.5 69 48.5 105l10.5 23.5l17.5 37.5l20.5 44l19 42.5c5.66699 13 10.167 24.167 13.5 33.5s4.33301 14.666 3 15.999z" />
    <glyph glyph-name="fi" horiz-adv-x="633" 
d="M633 8c2.66699 10 2 18.335 -2 25.002s-9.33301 13 -16 19l-20.5 19c-7 6.66699 -11.833 15 -14.5 25c-8.66699 30 -14 60.167 -16 90.5s-2.66699 60.833 -2 91.5s2 61.334 4 92.001s2.66699 61.667 2 93c-0.666992 20 -2.83398 34.833 -6.50098 44.5
s-7.5 17.167 -11.5 22.5s-7.66699 10 -11 14s-4.66602 10.667 -3.99902 20c0.666992 13.333 3.66699 24.5 9 33.5s10 18.333 14 28s6.16699 21.167 6.5 34.5s-3.83398 31 -12.501 53c-6 14.667 -16.667 24.5 -32 29.5s-31.166 6 -47.499 3s-31.166 -9.83301 -44.499 -20.5
s-20.666 -24 -21.999 -40c-8 7.33301 -18.333 14.833 -31 22.5s-23.334 13.667 -32.001 18l-15 7.5c-13.333 3.33301 -26 5.83301 -38 7.5s-22.667 -0.166016 -32 -5.49902c-22.667 -14 -39 -29.167 -49 -45.5s-17.333 -33 -22 -50s-8.66699 -34 -12 -51
s-9.66602 -33.5 -18.999 -49.5c-2 -4 -6.66699 -8.16699 -14 -12.5l-24 -14.5l-26.5 -16.5c-9 -5.66699 -16.167 -11.5 -21.5 -17.5s-8.33301 -12 -9 -18s3 -11.667 11 -17c20 0 36.167 -6.16699 48.5 -18.5s21.833 -28.333 28.5 -48s10.667 -41.834 12 -66.501
s1.33301 -49 0 -73s-3.5 -46.5 -6.5 -67.5s-6.16699 -38.167 -9.5 -51.5c-4 -16.667 -7.5 -30.334 -10.5 -41.001s-8.5 -23.667 -16.5 -39c-0.666992 -1.33301 -1 -5 -1 -11c0 -5.33301 0.333008 -11 1 -17s1.83398 -11.5 3.50098 -16.5s3.5 -7.5 5.5 -7.5
c8.66699 0 23 -0.333008 43 -1s40.667 -0.5 62 0.5s40.5 3.5 57.5 7.5s26.833 10.333 29.5 19c2 6 1.16699 12.833 -2.5 20.5s-8.16699 15.667 -13.5 24l-15.5 24.5c-5 8 -8.16699 15.333 -9.5 22c-2 12 -4.33301 28.5 -7 49.5s-4.5 44 -5.5 69s-1.16699 50.833 -0.5 77.5
s3.16699 51 7.5 73s10.833 40.667 19.5 56s20.334 24.666 35.001 27.999c4.66699 0.666992 8.83398 0.5 12.501 -0.5s7.16699 -2.16699 10.5 -3.5s6.66602 -2.33301 9.99902 -3s7.66602 -0.333984 12.999 0.999023c21.333 6.66699 39.5 3.16699 54.5 -10.5
s26.667 -33.334 35 -59.001s13.166 -55.5 14.499 -89.5s-0.833984 -68 -6.50098 -102s-15 -66 -28 -96s-29.5 -54 -49.5 -72c-2.66699 -8.66699 1.16602 -16 11.499 -22s24.166 -10.667 41.499 -14s36.333 -5.16602 57 -5.49902s40.334 0.5 59.001 2.5
s34.667 5.16699 48 9.5s21 9.83301 23 16.5zM504 570.002c4.66699 -5.33301 5.83105 -9.49805 3.49805 -12.498s-7.16602 -5.83301 -14.499 -8.5s-16 -5.66699 -26 -9s-20 -7.66602 -30 -12.999c-14.667 -8 -32.5 -11.833 -53.5 -11.5s-40.333 4.66602 -58 12.999
s-31.667 20.166 -42 35.499s-12.166 34 -5.49902 56c4 13.333 9.16699 27.5 15.5 42.5s17.166 27.167 32.499 36.5l10 -7l24.5 -17c9.66699 -6.66699 19.334 -14.167 29.001 -22.5s17.5 -15.833 23.5 -22.5c2 -6 7.5 -11.833 16.5 -17.5s18.5 -11.167 28.5 -16.5l28.5 -15
c9 -4.66699 14.833 -8.33398 17.5 -11.001z" />
    <glyph glyph-name="fl" horiz-adv-x="592" 
d="M581 28c0 3.33301 -2.83496 11.1641 -8.50195 23.4971l-18.5 41.5l-19 45.5c-6 15 -10 26.833 -12 35.5c-4.66699 26.667 -7.66699 53.667 -9 81s-1.83301 54.666 -1.5 81.999s1 54.666 2 81.999s1.5 54.666 1.5 81.999c0 17.333 1.83301 37.833 5.5 61.5
s5.83398 47.334 6.50098 71.001s-1.5 45.834 -6.5 66.501s-16.5 37 -34.5 49c-8 5.33301 -14.833 7.83301 -20.5 7.5s-13.167 0.166992 -22.5 1.5c-26 2 -43 -2 -51 -12s-11.667 -22.667 -11 -38c-10 9.33301 -20.833 17.5 -32.5 24.5s-25.834 10.5 -42.501 10.5
c-11.333 0 -21.166 -2 -29.499 -6s-16.166 -8.66699 -23.499 -14l-2 3c-18.667 -6.66699 -33.834 -17.834 -45.501 -33.501s-21.667 -32.167 -30 -49.5l-23.5 -48.5c-7.33301 -15 -16 -24.833 -26 -29.5c-5.33301 -2.66699 -14 -6 -26 -10s-22.833 -8.83301 -32.5 -14.5
s-16.5 -12.334 -20.5 -20.001s-0.666992 -16.167 10 -25.5c17.333 -16 31 -29.333 41 -40s17.667 -20.667 23 -30s8.5 -18.5 9.5 -27.5s1.5 -19.5 1.5 -31.5v-43c0 -16 1 -35.667 3 -59c0.666992 -9.33301 1.16699 -22.333 1.5 -39s-0.333984 -33.667 -2.00098 -51
s-4.16699 -33.5 -7.5 -48.5s-8.33301 -25.833 -15 -32.5c-3.33301 -2.66699 -8 -6.83398 -14 -12.501l-18.5 -18c-6.33301 -6.33301 -11.833 -12.5 -16.5 -18.5s-7 -10.667 -7 -14c0.666992 -17.333 6.5 -29.333 17.5 -36s24.167 -9.66699 39.5 -9
c7.33301 0 19 -0.5 35 -1.5s32.667 -1.66699 50 -2s33.333 0.166992 48 1.5s24 4.66602 28 9.99902c10 12 13.833 23.667 11.5 35s-7 22.333 -14 33s-14.5 21.5 -22.5 32.5s-12.667 22.167 -14 33.5c-2 16.667 -3.33301 38.334 -4 65.001s-0.166992 54.334 1.5 83.001
s4.5 56 8.5 82s9 46.667 15 62c7.33301 18.667 14.333 32.834 21 42.501s12.5 16.667 17.5 21s9.16699 7.33301 12.5 9s6 4.16699 8 7.5c2.66699 5.33301 1.33398 10 -3.99902 14s-9.66602 7 -12.999 9c-12 8.66699 -21.333 16.5 -28 23.5s-10.667 18.5 -12 34.5
c-2 18.667 -1.83301 36.834 0.5 54.501s2.83301 35.5 1.5 53.5c7.33301 5.33301 14.833 10.333 22.5 15s15.5 7 23.5 7c15.333 0 29.5 -5.83301 42.5 -17.5s25.5 -23.5 37.5 -35.5c0.666992 -4.66699 1.16699 -9 1.5 -13s0.5 -8 0.5 -12c0 -10.667 1.33301 -21.167 4 -31.5
s4.33398 -20.166 5.00098 -29.499s-0.666016 -17.833 -3.99902 -25.5s-11 -14.167 -23 -19.5c-4 -2 -9.16699 -4 -15.5 -6s-11.833 -4.33301 -16.5 -7s-7.5 -6 -8.5 -10s2.16699 -9.33301 9.5 -16c5.33301 -5.33301 10.666 -8.16602 15.999 -8.49902
s10.666 -1.16602 15.999 -2.49902s10.833 -4.33301 16.5 -9s11.5 -14 17.5 -28c6 -14.667 11.167 -33.167 15.5 -55.5s7.16602 -46.666 8.49902 -72.999s1.33301 -53.5 0 -81.5s-4.66602 -54.5 -9.99902 -79.5s-12.5 -47.333 -21.5 -67s-20.5 -34.834 -34.5 -45.501l2 -29
c6 -2 15.667 -4.33301 29 -7s28 -5.16699 44 -7.5s32.333 -4.16602 49 -5.49902s32 -0.833008 46 1.5s25.333 6.5 34 12.5s13 14.667 13 26z" />
    <glyph glyph-name="space" unicode=" " horiz-adv-x="352" 
 />
    <glyph glyph-name="exclam" unicode="!" horiz-adv-x="263" 
d="M210 695c-3.33301 19.333 -11.3301 33.6709 -23.9971 43.0039s-26 15 -40 17s-27 1 -39 -3s-19.333 -9.66699 -22 -17c-3.33301 -8.66699 -6.33301 -20.834 -9 -36.501s-4.66699 -31.834 -6 -48.501s-1.83301 -32.667 -1.5 -48s2.16602 -27.333 5.49902 -36
c10 -24.667 17 -51.334 21 -80.001s6.83301 -57.667 8.5 -87s3.16699 -58.5 4.5 -87.5s4 -55.833 8 -80.5l15 -90c2 2.66699 5.66699 17.167 11 43.5s11.166 59 17.499 98s12.666 81 18.999 126s12 87.667 17 128s9 75.166 12 104.499s3.83301 47.333 2.5 54z
M197.003 56.0049c0 12.667 -1.00098 23.167 -3.00098 31.5s-5.5 15.333 -10.5 21s-11.333 10.5 -19 14.5s-17.167 7.66699 -28.5 11c-5.33301 1.33301 -9.5 3.33301 -12.5 6s-7.16699 3 -12.5 1c-15.333 -5.33301 -26.166 -12.833 -32.499 -22.5
s-11.166 -21.834 -14.499 -36.501c-4 -18 -3.5 -33.833 1.5 -47.5s12.5 -24.834 22.5 -33.501s21.167 -14.5 33.5 -17.5s24.166 -2.66699 35.499 1s20.833 11.334 28.5 23.001s11.5 27.834 11.5 48.501z" />
    <glyph glyph-name="quotedbl" unicode="&#x22;" horiz-adv-x="330" 
d="M274 662c0.666992 26 -2.83398 46.3379 -10.501 61.0049s-16.5 23.334 -26.5 26.001s-19.5 -1 -28.5 -11s-14.5 -26.333 -16.5 -49c-0.666992 -11.333 -1.16699 -20.333 -1.5 -27s1.83398 -15.334 6.50098 -26.001c3.33301 -8.66699 5.33301 -20.334 6 -35.001
s1 -29.667 1 -45s0.5 -29.833 1.5 -43.5s3.83301 -23.834 8.5 -30.501c7.33301 -12 15 -16.333 23 -13s13.333 11 16 23c2 10 4.16699 22.667 6.5 38s4.5 31.166 6.5 47.499s3.83301 32.166 5.5 47.499s2.5 27.666 2.5 36.999zM122.999 549.005
c0.666992 5.33301 2.16797 15.5068 4.50098 30.5068s4.5 31.5 6.5 49.5s3.16699 36.167 3.5 54.5s-1.5 33.5 -5.5 45.5s-10.5 19.5 -19.5 22.5s-21.5 -1.83301 -37.5 -14.5c-8.66699 -6.66699 -13.667 -20.5 -15 -41.5s-0.666016 -43.667 2.00098 -68
s6.16699 -47.833 10.5 -70.5s7.83301 -39.334 10.5 -50.001c-3.33301 -8.66699 -3.33301 -16.834 0 -24.501s7.5 -13.334 12.5 -17.001s10 -3.83398 15 -0.500977s7.5 11.666 7.5 24.999c-0.666992 9.33301 -0.333984 19.166 0.999023 29.499s2.66602 20.166 3.99902 29.499
z" />
    <glyph glyph-name="numbersign" unicode="#" 
d="M439 499c-10 -1.33301 -20.001 -1.66699 -30.001 -1s-20 0.333984 -30 -0.999023l-9 4c0.666992 12 2.83398 28.833 6.50098 50.5s7 43.834 10 66.501s4.66699 44 5 64s-2.16699 34.667 -7.5 44c-8.66699 14 -16.334 19 -23.001 15s-12.5 -13.333 -17.5 -28
s-9.5 -32.667 -13.5 -54s-7.33301 -42.5 -10 -63.5s-4.66699 -39.833 -6 -56.5s-2.33301 -27.667 -3 -33c-2 -1.33301 -7 -1.66602 -15 -0.999023s-16.667 1.33398 -26 2.00098l-27 2c-8.66699 0.666992 -14.667 1 -18 1c10.667 37.333 17.334 71.666 20.001 102.999
s2.5 57.166 -0.5 77.499s-7.83301 33.833 -14.5 40.5s-14.167 3.66699 -22.5 -9s-16.666 -36.334 -24.999 -71.001s-15.166 -82.667 -20.499 -144c-14.667 3.33301 -29.667 4.5 -45 3.5s-30.333 -3.16699 -45 -6.5c-8 -17.333 -10.5 -30.333 -7.5 -39s9.16699 -15 18.5 -19
s20.666 -6.33301 33.999 -7s27 -1.66699 41 -3c-1.33301 -23.333 -3 -47 -5 -71s-4.66699 -47.667 -8 -71c-5.33301 -0.666992 -11.666 -0.666992 -18.999 0l-22.5 2c-7.66699 0.666992 -14.834 1 -21.501 1s-12.334 -0.666992 -17.001 -2
c-21.333 -7.33301 -32.5 -15.333 -33.5 -24s3.66699 -16.5 14 -23.5s24.166 -12.333 41.499 -16s34 -4.5 50 -2.5c0 -16 -1.5 -34.333 -4.5 -55s-6.33301 -41.167 -10 -61.5s-6.66699 -40 -9 -59s-2.5 -34.833 -0.5 -47.5c0.666992 -5.33301 3 -9 7 -11
s8.33301 -2.83301 13 -2.5s9.33398 1.5 14.001 3.5s8.33398 4.33301 11.001 7l2.5 16l6 39.5l8 51.5c3 18.667 5.66699 36.5 8 53.5l6 44c1.66699 12.333 2.83398 20.166 3.50098 23.499l92 -1c-0.666992 -16 -2.83398 -32.333 -6.50098 -49l-11.5 -50
c-4 -16.667 -7.66699 -33.167 -11 -49.5s-5.33301 -32.5 -6 -48.5c0 -16 2.5 -28.167 7.5 -36.5s10.833 -12.5 17.5 -12.5s13.334 4.33301 20.001 13s11.667 21.667 15 39l19.5 98c7 34 10.833 66.667 11.5 98c6.66699 1.33301 14.167 1.5 22.5 0.5
s16.666 -2.16699 24.999 -3.5s16.333 -2.33301 24 -3s14.5 -0.333984 20.5 0.999023s10.167 5.83301 12.5 13.5s3.16602 15.334 2.49902 23.001s-3 13.667 -7 18s-9.66699 4.16602 -17 -0.500977c-12.667 4.66699 -25.667 6.83398 -39 6.50098s-26.666 0.166992 -39.999 1.5
c2 24.667 4.66699 49 8 73s7.33301 48 12 72h68c11.333 0 19.166 3.5 23.499 10.5s6.16602 14.667 5.49902 23s-3.16699 15.833 -7.5 22.5s-9.16602 9.66699 -14.499 9zM304.999 430.999c0 -23.333 -2.66797 -46.001 -8.00098 -68.001s-8 -44.667 -8 -68
c-4.66699 0 -9.16699 -1.5 -13.5 -4.5s-8.16602 -3.83301 -11.499 -2.5c-2 0.666992 -4 1.83398 -6 3.50098s-4 3.16699 -6 4.5c-8 3.33301 -16.333 4.66602 -25 3.99902s-17.334 -1 -26.001 -1c1.33301 23.333 4.33301 46.5 9 69.5s7 46.167 7 69.5
c4.66699 -1.33301 9 -1.5 13 -0.5s8.33301 2.16699 13 3.5c4.66699 0.666992 8.33398 0.666992 11.001 0s5.16699 -1.66699 7.5 -3s4.83301 -2.16602 7.5 -2.49902s6.66699 0.5 12 2.5z" />
    <glyph glyph-name="dollar" unicode="$" horiz-adv-x="521" 
d="M446 573c4 20.667 3.83887 41.168 -0.494141 61.501s-12.333 38.666 -24 54.999s-26.167 29.5 -43.5 39.5s-37 15 -59 15c-8 0 -14.167 4.5 -18.5 13.5s-7.83301 19 -10.5 30s-5.33398 21.167 -8.00098 30.5s-6.33398 14.333 -11.001 15
c-7.33301 -4 -11.666 -11.167 -12.999 -21.5s-2 -21.166 -2 -32.499c0 -10.667 -0.5 -20.167 -1.5 -28.5s-5.16699 -12.5 -12.5 -12.5c-59.333 -42.667 -100.333 -80.667 -123 -114s-33.334 -63.666 -32.001 -90.999s10.833 -51.833 28.5 -73.5s37.167 -41.834 58.5 -60.501
l58 -52.5c17.333 -16.333 26.333 -32.833 27 -49.5c0.666992 -13.333 -0.333008 -26 -3 -38s-5.16699 -24.167 -7.5 -36.5s-4 -25.166 -5 -38.499s0.166992 -27.333 3.5 -42c1.33301 -8.66699 3.16602 -17.167 5.49902 -25.5s2.16602 -16.833 -0.500977 -25.5
c-4 -13.333 -13.667 -21.5 -29 -24.5s-31 -2 -47 3s-29.5 13.167 -40.5 24.5s-14.5 25 -10.5 41c2 6.66699 5 12.334 9 17.001s8.16699 9.16699 12.5 13.5s8.33301 9.33301 12 15s6.16699 13.167 7.5 22.5c0.666992 7.33301 0 15.333 -2 24s-5.16699 16.167 -9.5 22.5
s-9.83301 11 -16.5 14s-14.334 2.5 -23.001 -1.5c-13.333 -6 -24.833 -13.5 -34.5 -22.5s-16.834 -19.333 -21.501 -31s-5.83398 -24.334 -3.50098 -38.001s9.5 -27.834 21.5 -42.501c0.666992 -8 4.16699 -13.5 10.5 -16.5s11.166 -7.83301 14.499 -14.5
c10 -20 19.333 -34.167 28 -42.5s18 -14.166 28 -17.499s20.833 -6.16602 32.5 -8.49902s25.5 -7.5 41.5 -15.5c4 -2 7.33301 -5.83301 10 -11.5s5 -11.667 7 -18s4.16699 -12.5 6.5 -18.5s5.5 -10.667 9.5 -14s8.33301 -2.66602 13 2.00098s9.5 10.5 14.5 17.5
s9.66699 14.167 14 21.5s7.83301 12 10.5 14c12.667 9.33301 23.334 15.666 32.001 18.999s16.667 6.66602 24 9.99902s15 8.5 23 15.5s18 18.833 30 35.5c32.667 46 53.334 86.333 62.001 121s7.33398 66 -3.99902 94s-31.833 53.667 -61.5 77s-66.5 47 -110.5 71
c-2.66699 1.33301 -4.83398 7.83301 -6.50098 19.5s-3 26 -4 43s-1.33301 35.167 -1 54.5s1.16602 37.5 2.49902 54.5s3.33301 31.333 6 43s6.33398 18.167 11.001 19.5c11.333 2.66699 18.833 2.5 22.5 -0.5s5.33398 -8 5.00098 -15s-2 -15.167 -5 -24.5
s-5.83301 -18.833 -8.5 -28.5s-4.5 -18.834 -5.5 -27.501s0.833008 -15.334 5.5 -20.001c7.33301 -8.66699 16.666 -16 27.999 -22s22.833 -9.5 34.5 -10.5s22 1.33301 31 7s15.167 16.167 18.5 31.5zM241.006 505.001c-1.33301 -8.66699 -3.33203 -14.168 -5.99902 -16.501
s-8 -5.16602 -16 -8.49902c-12 -5.33301 -22.5 -2.16602 -31.5 9.50098s-15.833 26.667 -20.5 45s-6.33398 37.166 -5.00098 56.499s6 34 14 44c4.66699 5.33301 10.167 12.5 16.5 21.5s13.5 14.167 21.5 15.5c8.66699 1.33301 15.334 -5.5 20.001 -20.5
s7.66699 -32.5 9 -52.5s1.66602 -39.167 0.999023 -57.5s-1.66699 -30.5 -3 -36.5zM397.007 223c1.33301 -8.66699 0.500977 -20.332 -2.49902 -34.999s-7.66699 -29 -14 -43s-13.833 -26.167 -22.5 -36.5s-18.334 -15.5 -29.001 -15.5c-6 0 -10.5 0.833008 -13.5 2.5
s-5.33301 4 -7 7s-3.16699 6.5 -4.5 10.5s-3 8 -5 12c0 10.667 -0.166992 23 -0.5 37s-0.5 28.333 -0.5 43s0.5 28.667 1.5 42s2.5 24.666 4.5 33.999c3.33301 14 7.83301 23 13.5 27s11.667 4.83301 18 2.5s13 -7 20 -14s13.5 -15 19.5 -24s11 -18 15 -27
s6.33301 -16.5 7 -22.5z" />
    <glyph glyph-name="percent" unicode="%" horiz-adv-x="673" 
d="M372 617c-4 14.667 -8.33496 29.667 -13.002 45s-12.667 28.333 -24 39c-10 10 -21.833 19.5 -35.5 28.5s-28 16 -43 21s-30.167 7.16699 -45.5 6.5s-29.333 -6.33398 -42 -17.001l-31.5 -28c-11.667 -10.667 -22.5 -22.167 -32.5 -34.5s-18.5 -25.166 -25.5 -38.499
s-10.5 -26.666 -10.5 -39.999c0 -20.667 0.666992 -40.834 2 -60.501s5 -38 11 -55s15.167 -32.5 27.5 -46.5s29.5 -25.333 51.5 -34c6 -2.66699 10.833 -5 14.5 -7s7.16699 -3.66699 10.5 -5s6.83301 -1.83301 10.5 -1.5s8.83398 1.83301 15.501 4.5
c5.33301 2 9.16602 2.5 11.499 1.5l10.5 -4.5c13.333 -5.33301 26.5 -5.5 39.5 -0.5s25.333 13.5 37 25.5s22.334 26.667 32.001 44s17.334 35.333 23.001 54s9.16699 37 10.5 55s0 34 -4 48zM632.998 724c-9.33301 8 -18.999 10.4961 -28.999 7.49609
s-20.333 -9.33301 -31 -19s-21.167 -21.667 -31.5 -36s-19.833 -28.5 -28.5 -42.5s-16.334 -27 -23.001 -39s-11.667 -20.667 -15 -26c-6 -9.33301 -15.833 -23.5 -29.5 -42.5l-47.5 -66.5l-58.5 -82.5l-63 -89.5l-61 -88l-52 -78c-15 -23.333 -27 -43.166 -36 -59.499
s-13.833 -27.166 -14.5 -32.499c-2 -24 1 -36.667 9 -38s18.333 4 31 16s26.834 28.667 42.501 50s30.5 42.5 44.5 63.5l36.5 56.5l18.5 30c24 38 51.833 78.667 83.5 122l96 132c32.333 44.667 62.666 89.334 90.999 134.001s50.833 87.334 67.5 128.001zM652.999 163.996
c0.666992 22 -3.00293 43.833 -11.0029 65.5s-19.5 41 -34.5 58s-32.667 30.833 -53 41.5s-42.166 16 -65.499 16c-7.33301 0 -13.833 -2.16699 -19.5 -6.5s-11.167 -8.16602 -16.5 -11.499c-11.333 -5.33301 -21.666 -10 -30.999 -14s-17.666 -8.83301 -24.999 -14.5
s-13.833 -12.5 -19.5 -20.5s-9.83398 -18.667 -12.501 -32c-1.33301 -5.33301 -2.66602 -8.66602 -3.99902 -9.99902s-2.66602 -2.83301 -3.99902 -4.5s-2.5 -4.5 -3.5 -8.5s-1.5 -11 -1.5 -21c0 -10.667 -2 -20.834 -6 -30.501s-5.66699 -19.834 -5 -30.501
c0.666992 -9.33301 3 -18.5 7 -27.5s7 -18.167 9 -27.5c3.33301 -21.333 13 -39.833 29 -55.5s34.667 -27.5 56 -35.5s44.166 -11.5 68.499 -10.5s46.833 7.83301 67.5 20.5s38 32 52 58s21.667 59.667 23 101zM265.996 471.996c-4 -4 -6.49902 -9.16992 -7.49902 -15.5029
s-2.5 -12.166 -4.5 -17.499s-5.16699 -10 -9.5 -14s-11.5 -6 -21.5 -6c-2 0 -5 1 -9 3s-8.33301 4.33301 -13 7s-9 5.33398 -13 8.00098l-9 6c-4.66699 2.66699 -8.16699 8.33398 -10.5 17.001s-4.33301 18 -6 28s-2.83398 20 -3.50098 30s-1.66699 17.667 -3 23
c-2.66699 12 -3.66699 23.833 -3 35.5s2 23.5 4 35.5s4.16699 23.833 6.5 35.5s3.5 23.5 3.5 35.5c5.33301 3.33301 9.83301 8.83301 13.5 16.5s7.16699 14.167 10.5 19.5l32 -3c12.667 -1.33301 23.5 -13 32.5 -35s15.667 -47 20 -75s5.83301 -55 4.5 -81
s-6 -43.667 -14 -53zM553.997 70.9932c-3.33301 -4 -6.66504 -9.16504 -9.99805 -15.498l-10.5 -19c-3.66699 -6.33301 -7.66699 -12 -12 -17s-8.83301 -8.5 -13.5 -10.5s-9.66699 -2.33301 -15 -1s-10.333 3.5 -15 6.5s-8.83398 6.66699 -12.501 11
s-6.16699 8.83301 -7.5 13.5c-2.66699 9.33301 -5.5 16.166 -8.5 20.499s-6.5 10.5 -10.5 18.5c-4.66699 9.33301 -7.5 24 -8.5 44s-0.166992 40.5 2.5 61.5s7 40.5 13 58.5s13.667 30 23 36c2 1.33301 5 2 9 2c4.66699 0 9.66699 -0.166992 15 -0.5
s10.333 -0.833008 15 -1.5s8.33398 -1 11.001 -1c0.666992 -2.66699 4.16699 -6.16699 10.5 -10.5s11.166 -10.833 14.499 -19.5c2 -4.66699 4.16699 -15.834 6.5 -33.501s4.16602 -36.5 5.49902 -56.5s2 -38.667 2 -56c0 -16.667 -1.33301 -26.667 -4 -30z" />
    <glyph glyph-name="ampersand" unicode="&#x26;" horiz-adv-x="743" 
d="M725 23c7.33301 9.33301 10.4883 17.002 9.48828 23.002s-4.5 10.667 -10.5 14s-13.667 5.66602 -23 6.99902s-18.833 2.5 -28.5 3.5s-18.667 1.66699 -27 2s-14.5 1.5 -18.5 3.5c-9.33301 4 -18.166 8.83301 -26.499 14.5s-17.166 10.834 -26.499 15.501l-5 16
c9.33301 15.333 17.166 34 23.499 56l18.5 66.5c6 22.333 12.5 43.333 19.5 63s16.167 34.834 27.5 45.501c4.66699 4.66699 11.5 9.66699 20.5 15s17.333 11 25 17s13.667 12.667 18 20s4.5 15.333 0.5 24c-4 7.33301 -14.5 13.666 -31.5 18.999
s-36.5 9.16602 -58.5 11.499s-44.833 3.16602 -68.5 2.49902s-43.834 -3.16699 -60.501 -7.5s-27.667 -10.833 -33 -19.5s-1.33301 -19.667 12 -33c4.66699 -4.66699 10 -7 16 -7c6.66699 0 13.5 0.166992 20.5 0.5s13.833 -0.166992 20.5 -1.5s13 -6 19 -14
c2 -3.33301 3 -11 3 -23c0 -11.333 -0.833008 -25 -2.5 -41s-4 -32.833 -7 -50.5s-6.33301 -34.167 -10 -49.5s-7.66699 -28.333 -12 -39s-8.16602 -16.667 -11.499 -18c-4 6 -11.5 15.833 -22.5 29.5l-34 43l-31.5 41.5c-9.33301 12.667 -15 21.667 -17 27l-28.5 74
c-9 22.667 -20.833 46.334 -35.5 71.001c9.33301 6 18.333 10.667 27 14l25.5 10c8.33301 3.33301 17 7 26 11s18.167 9 27.5 15c19.333 12.667 34.333 28.167 45 46.5s17.334 37.5 20.001 57.5s1.33398 39.833 -3.99902 59.5s-14.166 37.167 -26.499 52.5
s-28.166 27.833 -47.499 37.5s-41.666 14.5 -66.999 14.5c-12 0 -22.833 -2.33301 -32.5 -7s-19.5 -9.66699 -29.5 -15c-8.66699 -4.66699 -17 -7.33398 -25 -8.00098s-15.667 -1.5 -23 -2.5s-14.166 -3.16699 -20.499 -6.5s-12.166 -10.333 -17.499 -21
c-14 -28 -23.667 -52.5 -29 -73.5s-7.5 -41.167 -6.5 -60.5s4.5 -39.5 10.5 -60.5s13.667 -45.833 23 -74.5c-3.33301 -10 -9.66602 -18.333 -18.999 -25s-20.166 -13.334 -32.499 -20.001s-24.833 -14 -37.5 -22s-24 -18.333 -34 -31s-17.833 -28.334 -23.5 -47.001
s-6.83398 -41.667 -3.50098 -69c2 -18.667 4.33301 -37.334 7 -56.001s6.66699 -36.667 12 -54s13 -33.833 23 -49.5s23 -29.5 39 -41.5c22.667 -17.333 46.5 -29.166 71.5 -35.499s49.833 -8.5 74.5 -6.5s48.667 7.83301 72 17.5s44.333 22.167 63 37.5
c26 -26 47.333 -42.667 64 -50s32 -10 46 -8s28.5 6.33301 43.5 13s33.833 11.667 56.5 15c4.66699 0.666992 10.834 1.33398 18.501 2.00098s15.334 1.83398 23.001 3.50098s14.834 3.66699 21.501 6s11.667 5.5 15 9.5zM408.988 649.002
c0 -8.66699 1.66797 -19.833 5.00098 -33.5s6 -27.5 8 -41.5s2.16699 -27 0.5 -39s-7.16699 -20.667 -16.5 -26c-6.66699 -3.33301 -13.334 -7 -20.001 -11s-11.667 -9.33301 -15 -16l-19 -10l-11 10c-6 6 -12.167 16.5 -18.5 31.5s-11.666 31 -15.999 48
s-7.5 33.5 -9.5 49.5s-2 28.333 0 37c6 22 15.167 37.333 27.5 46s24.666 12 36.999 10s23.333 -8 33 -18s14.5 -22.333 14.5 -37zM424.989 54.0029c-36 -18.667 -69 -23.998 -99 -15.998s-55.833 23.667 -77.5 47s-39 51.5 -52 84.5s-20.5 65.5 -22.5 97.5
c-0.666992 12.667 0.833008 24.167 4.5 34.5s9 19.666 16 27.999s15 16 24 23s18.5 13.5 28.5 19.5c7.33301 -2.66699 13.333 -6.83398 18 -12.501s8.33398 -11.834 11.001 -18.501c4 -9.33301 6.5 -17.333 7.5 -24s4.16699 -14.667 9.5 -24
c5.33301 -8 9.16602 -16.5 11.499 -25.5s6.5 -17.167 12.5 -24.5c22.667 -30 41.5 -61.167 56.5 -93.5s32.167 -64.166 51.5 -95.499z" />
    <glyph glyph-name="quotesingle" unicode="'" horiz-adv-x="218" 
d="M155 671c1.33301 24 -1.33496 42.8301 -8.00195 56.4971s-14.5 22.834 -23.5 27.501s-18 4.83398 -27 0.500977s-14.833 -12.166 -17.5 -23.499c-5.33301 -18 -7.66602 -36.167 -6.99902 -54.5s2.33398 -36.666 5.00098 -54.999s5.83398 -36.666 9.50098 -54.999
s6.16699 -36.5 7.5 -54.5c0.666992 -6 0.166992 -13.333 -1.5 -22s-0.833984 -15.667 2.49902 -21c0.666992 -8 3 -14 7 -18s8.16699 -5.33301 12.5 -4s8 6.16602 11 14.499s3.83301 21.166 2.5 38.499c0 3.33301 1.33301 12.833 4 28.5l9 51.5l9.5 54
c3 17.333 4.5 29.333 4.5 36z" />
    <glyph glyph-name="parenleft" unicode="(" horiz-adv-x="346" 
d="M330 690c2.66699 20.667 1.83398 35.6709 -2.49902 45.0039s-10.5 14.166 -18.5 14.499s-17 -3.66699 -27 -12s-18.667 -19.833 -26 -34.5c-4 -8.66699 -8.33301 -15.167 -13 -19.5s-9.33398 -8.16602 -14.001 -11.499l-14 -10c-4.66699 -3.33301 -9 -8 -13 -14
c-1.33301 -2 -4.16602 -7.33301 -8.49902 -16l-15 -31l-17.5 -38.5l-17 -38.5l-13.5 -30.5c-3.66699 -8.33301 -5.83398 -13.5 -6.50098 -15.5c-10.667 -50.667 -17.667 -100.334 -21 -149.001s-1.83301 -96.167 4.5 -142.5s18.5 -91.833 36.5 -136.5
s42.667 -88.334 74 -131.001c4.66699 -6.66699 8.66699 -13.667 12 -21l10 -22c3.33301 -7.33301 6.83301 -14.5 10.5 -21.5s8.16699 -13.5 13.5 -19.5c19.333 -20.667 35.833 -28.834 49.5 -24.501s18.5 21.5 14.5 51.5c-2 14 -5.66699 28.167 -11 42.5
s-11.5 28.666 -18.5 42.999s-14.333 28.5 -22 42.5l-21.5 40c-6 10 -12.667 27.167 -20 51.5s-14 50 -20 77s-10.833 52.833 -14.5 77.5s-4.83398 42.334 -3.50098 53.001c2.66699 18.667 5.33398 38.5 8.00098 59.5s5.5 42.167 8.5 63.5s6.66699 42.333 11 63
s9.83301 40 16.5 58c4.66699 12.667 11.667 25.834 21 39.501l28 40.5c9.33301 13.333 18 26.666 26 39.999s12.667 25.666 14 36.999z" />
    <glyph glyph-name="parenright" unicode=")" horiz-adv-x="360" 
d="M276 424c-10 19.333 -20.332 38.3369 -30.999 57.0039s-19 38.667 -25 60c-2.66699 8 -6.83398 18.833 -12.501 32.5s-12.5 28.667 -20.5 45s-16.833 32.666 -26.5 48.999s-19.667 31.333 -30 45s-20.833 24.834 -31.5 33.501s-20.667 13 -30 13
c-11.333 0 -18.666 -4.5 -21.999 -13.5s-4.5 -19.5 -3.5 -31.5s3.66699 -23.833 8 -35.5s8.5 -19.834 12.5 -24.501c10 -13.333 19.333 -26.833 28 -40.5s17.667 -27.167 27 -40.5c5.33301 -7.33301 11 -21.333 17 -42s11.667 -44.834 17 -72.501s10.166 -57 14.499 -88
s7.5 -60.167 9.5 -87.5s2.33301 -51.333 1 -72s-5 -34.334 -11 -41.001c-9.33301 -11.333 -16.5 -22.333 -21.5 -33s-8.83301 -21.5 -11.5 -32.5s-4.66699 -22.5 -6 -34.5s-3 -24.667 -5 -38c-1.33301 -7.33301 -5.16602 -16.5 -11.499 -27.5s-13.833 -22.833 -22.5 -35.5
l-26 -40c-8.66699 -14 -15.667 -27.333 -21 -40s-8.16602 -24.5 -8.49902 -35.5s3.5 -20.167 11.5 -27.5c6.66699 -5.33301 11.334 -8.33301 14.001 -9s7.66699 2 15 8c23.333 20 43.166 39 59.499 57s30.166 35.667 41.499 53s21 35.166 29 53.499s15.5 37.5 22.5 57.5
s14 41.333 21 64s15.5 47.667 25.5 75c1.33301 4 2.66602 12.167 3.99902 24.5s2.33301 26.833 3 43.5s1.16699 34.5 1.5 53.5s0.333008 36.667 0 53s-1 30.5 -2 42.5s-2.16699 19.333 -3.5 22z" />
    <glyph glyph-name="asterisk" unicode="*" horiz-adv-x="347" 
d="M288 568c-4 3.33301 -8.49902 6.8291 -13.499 10.4961s-8.5 7.83398 -10.5 12.501c-0.666992 0.666992 0.833008 3.33398 4.5 8.00098s7.83398 10.667 12.501 18s9.16699 15.166 13.5 23.499s6.83301 16.166 7.5 23.499s-1 13.5 -5 18.5s-12 8.16699 -24 9.5
c-4 0 -9.16699 -1.5 -15.5 -4.5l-19.5 -9c-6.66699 -3 -12.834 -5.5 -18.501 -7.5s-9.5 -2 -11.5 0c-4.66699 5.33301 -6.83398 12 -6.50098 20l1 23.5c0.333008 7.66699 -0.333984 14.667 -2.00098 21s-6.5 10.5 -14.5 12.5c-10.667 2.66699 -17.5 -0.833008 -20.5 -10.5
s-5 -20.834 -6 -33.501s-2.16699 -24.167 -3.5 -34.5s-5.66602 -14.833 -12.999 -13.5c-3.33301 0.666992 -7.66602 2.16699 -12.999 4.5s-10.833 4.5 -16.5 6.5s-11 3.5 -16 4.5s-8.83301 0.5 -11.5 -1.5c-4.66699 -4 -5.83398 -9.83301 -3.50098 -17.5
s6.16602 -15.5 11.499 -23.5s10.833 -15.5 16.5 -22.5l12.5 -15.5c-0.666992 -1.33301 -1.16699 -2.5 -1.5 -3.5s-0.833008 -2.16699 -1.5 -3.5c-8.66699 -8.66699 -17.5 -16.167 -26.5 -22.5s-15.167 -16.166 -18.5 -29.499c-1.33301 -8 -0.666016 -14.167 2.00098 -18.5
s6.33398 -7.16602 11.001 -8.49902s10 -1 16 1s11.333 5.66699 16 11c2 2 4 3.83301 6 5.5s4.66699 3.16699 8 4.5c6 -3.33301 10.667 -9.66602 14 -18.999s6.16602 -19.166 8.49902 -29.499s4.5 -19.5 6.5 -27.5s4.66699 -12.333 8 -13c7.33301 -1.33301 13 0 17 4
s7.16699 9.33301 9.5 16s4 13.834 5 21.501s2.33301 14.667 4 21s4 11 7 14s7.83301 3.16699 14.5 0.5c6.66699 -3.33301 12.667 -7.5 18 -12.5s12 -7.5 20 -7.5c8.66699 0 16.167 2.66699 22.5 8s10.833 11.833 13.5 19.5s3 15.667 1 24s-7 15.5 -15 21.5z" />
    <glyph glyph-name="plus" unicode="+" 
d="M450 288c0.666992 6.66699 -3.99902 12.6738 -13.999 18.0068s-21.5 9.66602 -34.5 12.999s-25.667 5.33301 -38 6s-20.833 -0.333008 -25.5 -3c-10 1.33301 -20.667 3 -32 5s-22.333 2.33301 -33 1c2.66699 26 3.16699 53.167 1.5 81.5s-2.5 55.833 -2.5 82.5
c0 8.66699 -3 15.667 -9 21s-12.5 8.16602 -19.5 8.49902s-13.167 -1.83398 -18.5 -6.50098s-7.33301 -12.667 -6 -24c5.33301 -55.333 5.33301 -110.333 0 -165c-10 -5.33301 -20.333 -8.33301 -31 -9s-21.5 -0.333984 -32.5 0.999023l-33 4
c-11 1.33301 -21.5 1.33301 -31.5 0c-5.33301 -0.666992 -11.166 -3.33398 -17.499 -8.00098s-11.333 -10 -15 -16s-5.5 -12.333 -5.5 -19s3.33301 -12 10 -16c23.333 -0.666992 49 -1.83398 77 -3.50098s53.667 0.166016 77 5.49902c0 -19.333 1.83301 -38.833 5.5 -58.5
s3.83398 -39.167 0.500977 -58.5c-2 -9.33301 -3.16699 -18.5 -3.5 -27.5s0.166992 -18.167 1.5 -27.5c1.33301 -11.333 4 -19.166 8 -23.499s12.333 -5.83301 25 -4.5c5.33301 0.666992 9.66602 5.33398 12.999 14.001s6 19.5 8 32.5s3.16699 27.333 3.5 43
s0.166016 30.667 -0.500977 45s-1.83398 27.333 -3.50098 39s-3.16699 20.167 -4.5 25.5c5.33301 -2 17.666 -3.16699 36.999 -3.5s39.5 0.166992 60.5 1.5s39.833 4.16602 56.5 8.49902s25.334 10.166 26.001 17.499z" />
    <glyph glyph-name="comma" unicode="," horiz-adv-x="261" 
d="M211 -3c0.666992 15.333 0.832031 31.6689 0.499023 49.002s-2.83301 33.5 -7.5 48.5s-12.334 28.167 -23.001 39.5s-25.334 18.666 -44.001 21.999c-3.33301 0.666992 -7.66602 0 -12.999 -2s-10.5 -4.5 -15.5 -7.5s-9.66699 -6.33301 -14 -10
s-7.16602 -7.16699 -8.49902 -10.5c-12 -28 -17.5 -49 -16.5 -63s5 -25 12 -33s14.833 -15 23.5 -21s15 -15 19 -27c2.66699 -10 2.83398 -20.167 0.500977 -30.5s-5.83301 -20.5 -10.5 -30.5s-9.83398 -19.833 -15.501 -29.5s-10.167 -18.667 -13.5 -27
s-4.83301 -15.833 -4.5 -22.5s4.16602 -12.334 11.499 -17.001c6 -4 13.167 -3 21.5 3s16.833 14.667 25.5 26s17.334 24.5 26.001 39.5s16.334 29.5 23.001 43.5s12.167 26.5 16.5 37.5s6.5 18.5 6.5 22.5z" />
    <glyph glyph-name="hyphen" unicode="-" horiz-adv-x="325" 
d="M314 285c-0.666992 16.667 -4.33203 30.501 -10.999 41.501s-19 17.167 -37 18.5c-14.667 1.33301 -29.167 0.333008 -43.5 -3s-28.833 -5 -43.5 -5c-10.667 0 -24 0.333008 -40 1s-31.5 -0.333008 -46.5 -3s-28 -7.66699 -39 -15s-16.833 -19 -17.5 -35
c-0.666992 -12 0.333008 -18.5 3 -19.5s9.66699 -2.83301 21 -5.5c9.33301 -2.66699 25.166 -4.66699 47.499 -6s45.833 -2 70.5 -2c25.333 0 49 0.666992 71 2s37.667 3.66602 47 6.99902s14.833 5.83301 16.5 7.5s2.16699 7.16699 1.5 16.5z" />
    <glyph glyph-name="period" unicode="." horiz-adv-x="242" 
d="M170 -25c11.333 7.33301 18.834 17.834 22.501 31.501s4.33398 28 2.00098 43s-6.83301 29.5 -13.5 43.5s-14.667 25 -24 33c-3.33301 3.33301 -6 6.16602 -8 8.49902s-5.33301 4.16602 -10 5.49902c-10.667 2.66699 -20.834 -0.833008 -30.501 -10.5
s-17.834 -21.5 -24.501 -35.5s-11.5 -28.167 -14.5 -42.5s-3.5 -25.5 -1.5 -33.5c1.33301 -4 5 -10.5 11 -19.5l13 -19.5c1.33301 -2.66699 3 -5 5 -7l6 -6c6 2 11.667 2.83301 17 2.5l16 -1c5.33301 -0.333008 10.833 -0.166016 16.5 0.500977s11.5 3 17.5 7z" />
    <glyph glyph-name="slash" unicode="/" horiz-adv-x="425" 
d="M409 699c-1.33301 9.33301 -2.99902 20.167 -4.99902 32.5s-8.66699 20.166 -20 23.499c-9.33301 2.66699 -17.666 0.166992 -24.999 -7.5s-13.666 -17.334 -18.999 -29.001s-9.66602 -23.667 -12.999 -36s-5.33301 -21.5 -6 -27.5
c-1.33301 -6.66699 -6 -20.167 -14 -40.5l-29.5 -72l-38 -88l-39 -90l-34 -78c-10.333 -23 -17.5 -39.833 -21.5 -50.5l-14 -36.5l-23 -60l-26.5 -71c-9 -25 -17 -48.167 -24 -69.5s-12.5 -39.5 -16.5 -54.5s-5 -23.833 -3 -26.5c5.33301 -8 12.666 -13.333 21.999 -16
s18.666 -2.33398 27.999 0.999023c7.33301 2.66699 12.5 7.33398 15.5 14.001s4.83301 14 5.5 22s1.16699 16.167 1.5 24.5s1.83301 15.5 4.5 21.5c15.333 34 31.166 67.333 47.499 100s31.166 66.334 44.499 101.001l23 57.5l40 98l47.5 117l45 113.5l33.5 87.5
c8.66699 23.667 13 36.834 13 39.501z" />
    <glyph glyph-name="zero" unicode="0" horiz-adv-x="563" 
d="M487 210c7.33301 9.33301 12.5059 24.501 15.5059 45.501s4 44.667 3 71s-3.33301 54.333 -7 84s-7.83398 58.167 -12.501 85.5s-9.83398 52.333 -15.501 75s-10.834 40 -15.501 52c-3.33301 9.33301 -7.16602 16.5 -11.499 21.5s-8.66602 9.16699 -12.999 12.5l-14 10.5
c-5 3.66699 -9.83301 9.16699 -14.5 16.5c-6.66699 9.33301 -13.834 18.5 -21.501 27.5s-15.834 16.5 -24.501 22.5s-18.334 10.167 -29.001 12.5s-22.334 1.5 -35.001 -2.5c-8.66699 -10 -20.334 -18.333 -35.001 -25l-45.5 -21c-15.667 -7.33301 -30.5 -16.5 -44.5 -27.5
s-24 -25.833 -30 -44.5l-14.5 -45c-5.66699 -18 -11.167 -37.5 -16.5 -58.5s-10 -42.5 -14 -64.5s-6.66699 -43.333 -8 -64s-1 -39.667 1 -57s7 -31.333 15 -42c-2 -17.333 -0.666992 -38.5 4 -63.5s11.5 -50 20.5 -75s19.667 -48.333 32 -70s25.5 -37.5 39.5 -47.5
c2.66699 -12 9.66699 -21.333 21 -28s24 -11.334 38 -14.001s28 -3.16699 42 -1.5s25.333 4.5 34 8.5c6 -4 13 -6.5 21 -7.5s15 1.16699 21 6.5c19.333 18 34 36.333 44 55s18.333 37 25 55l19 51.5c6 16.333 14.667 31.5 26 45.5zM380.006 540.001
c4.66699 -10 7.99707 -28.002 9.99707 -54.002s2.83301 -56.167 2.5 -90.5s-1.66602 -70.5 -3.99902 -108.5s-5.83301 -73.833 -10.5 -107.5s-10.167 -63 -16.5 -88s-13.5 -41.5 -21.5 -49.5c-16 -16 -31.167 -25.5 -45.5 -28.5s-31.833 1.16699 -52.5 12.5h2
c-7.33301 6.66699 -13.666 18.667 -18.999 36s-9.5 37.333 -12.5 60s-5.16699 46.834 -6.5 72.501s-2 50.167 -2 73.5c0 24 0.666992 45.667 2 65s3 34 5 44c3.33301 16 4.33301 33 3 51s-3 36.333 -5 55s-3.5 37.834 -4.5 57.501s0 38.834 3 57.501s8.83301 36.667 17.5 54
s22 33.666 40 48.999c3.33301 2.66699 9.83301 0.666992 19.5 -6s19.667 -15.167 30 -25.5s19.5 -21 27.5 -32s12.667 -19.5 14 -25.5c2 -10.667 3.33301 -18.667 4 -24s1.83398 -10 3.50098 -14s3.66699 -8.33301 6 -13z" />
    <glyph glyph-name="one" unicode="1" horiz-adv-x="563" 
d="M463 73c-12.667 10 -24.165 17.166 -34.498 21.499s-19.5 7.83301 -27.5 10.5s-14.833 6 -20.5 10s-10.167 10.833 -13.5 20.5s-5.33301 23 -6 40s-0.333984 40.5 0.999023 70.5c0.666992 7.33301 1 18 1 32c0 14.667 0.166992 30.834 0.5 48.501s0.5 35.5 0.5 53.5v51
c0 16 0.166992 29.5 0.5 40.5s0.833008 17.833 1.5 20.5c1.33301 6.66699 3.33301 18.167 6 34.5s4.66699 34.5 6 54.5s1.66602 40.667 0.999023 62s-2.83398 40.666 -6.50098 57.999s-9.66699 31.166 -18 41.499s-19.5 14.833 -33.5 13.5
c-10 -1.33301 -18.5 -4.83301 -25.5 -10.5s-13.167 -12.167 -18.5 -19.5l-16.5 -23c-5.66699 -8 -11.834 -14.667 -18.501 -20c-6.66699 -4.66699 -16.334 -7.5 -29.001 -8.5s-25.667 -2.33301 -39 -4s-26.166 -4.33398 -38.499 -8.00098s-21.166 -10.834 -26.499 -21.501
c-7.33301 -14 -10 -24.833 -8 -32.5s7 -13.5 15 -17.5s17.833 -6.5 29.5 -7.5s23.5 -1.5 35.5 -1.5h34c10.667 0 18.667 -1 24 -3c10.667 -4 17.167 -10.667 19.5 -20s2.66602 -19.833 0.999023 -31.5s-3.66699 -23.5 -6 -35.5s-2.5 -22.333 -0.5 -31
c1.33301 -7.33301 2.33301 -20.333 3 -39s1.16699 -40 1.5 -64s0.166016 -49.333 -0.500977 -76s-1.5 -51.667 -2.5 -75s-2.5 -43.666 -4.5 -60.999s-4.33301 -28.666 -7 -33.999c-5.33301 -11.333 -14 -18.166 -26 -20.499s-24.333 -4.5 -37 -6.5s-23.5 -5.66699 -32.5 -11
s-13.167 -16.333 -12.5 -33c0.666992 -20.667 7.16699 -34.834 19.5 -42.501s26.833 -11.667 43.5 -12s33.834 2 51.501 7s32.5 10.167 44.5 15.5c4 -2.66699 10 -4.16699 18 -4.5s16.333 -0.166016 25 0.500977s17 1.83398 25 3.50098s14.333 3.16699 19 4.5
c10 3.33301 18.667 3.83301 26 1.5s13.833 -5 19.5 -8s10.834 -5.33301 15.501 -7s9.33398 -0.5 14.001 3.5c10 0 16.833 2.83301 20.5 8.5s5.5 12.167 5.5 19.5c0 8 -1.83301 16 -5.5 24s-8.16699 14 -13.5 18z" />
    <glyph glyph-name="two" unicode="2" horiz-adv-x="564" 
d="M511 578c-8.66699 36 -17.6592 62.332 -26.9922 78.999s-19.833 28.667 -31.5 36s-24.5 12.833 -38.5 16.5s-30.333 10.5 -49 20.5c-23.333 12.667 -48 18.5 -74 17.5s-51.333 -7 -76 -18s-47.5 -26.167 -68.5 -45.5s-37.833 -40.5 -50.5 -63.5s-20.5 -47.333 -23.5 -73
s1.5 -50.5 13.5 -74.5c12 -24.667 23.833 -41.834 35.5 -51.501s22.5 -14.167 32.5 -13.5s18.667 5.5 26 14.5s13 19.5 17 31.5s5.66699 24.5 5 37.5s-4.33398 24.167 -11.001 33.5c-16.667 22.667 -26.334 39.667 -29.001 51s-1.16699 20.5 4.5 27.5s14.167 14 25.5 21
s23 17.5 35 31.5c14 17.333 28 27.833 42 31.5s27.167 2.33398 39.5 -3.99902s23.666 -16.333 33.999 -30s18.666 -28.834 24.999 -45.501s10.666 -34 12.999 -52s2.16602 -34 -0.500977 -48c-2 -8.66699 -5 -16.667 -9 -24s-6.66699 -15.333 -8 -24
c-4 -30 -12.333 -57.333 -25 -82s-27.5 -47.834 -44.5 -69.501s-35 -42.667 -54 -63s-36.833 -41 -53.5 -62s-31 -42.667 -43 -65s-19.667 -46.5 -23 -72.5c-1.33301 -7.33301 -1.33301 -15.333 0 -24s6.66602 -13.667 15.999 -15c10 -1.33301 21 0.166992 33 4.5
s23.333 6.83301 34 7.5c9.33301 0.666992 24.333 -0.5 45 -3.5s41.5 -6.5 62.5 -10.5l55.5 -10.5c16 -3 24.333 -4.5 25 -4.5c5.33301 1.33301 13 2.83301 23 4.5s20 3.66699 30 6s18.833 5.5 26.5 9.5s12.5 9 14.5 15c2 6.66699 3.33301 13.334 4 20.001
s2.33398 13.334 5.00098 20.001c2 5.33301 3.66699 9.5 5 12.5s2.16602 5.83301 2.49902 8.5s0.166016 5.66699 -0.500977 9s-2.33398 7.66602 -5.00098 12.999c-6 12.667 -8.66699 23.834 -8 33.501s2.16699 18.5 4.5 26.5s4.33301 15.167 6 21.5s0.5 12.166 -3.5 17.499
c-6.66699 10 -13.167 12.333 -19.5 7s-12.5 -13.5 -18.5 -24.5s-11.833 -22.667 -17.5 -35s-11.5 -20.5 -17.5 -24.5c-7.33301 -5.33301 -19.5 -10.833 -36.5 -16.5s-34.667 -9.5 -53 -11.5s-35.166 -1.33301 -50.499 2s-25 11 -29 23c-2.66699 8.66699 3 21.334 17 38.001
s31.833 36 53.5 58l70.5 74c25.333 27.333 48 56.333 68 87s35.167 62.334 45.5 95.001s11.5 65.667 3.5 99z" />
    <glyph glyph-name="three" unicode="3" horiz-adv-x="563" 
d="M501 586c2.66699 15.333 0.493164 31.332 -6.50684 47.999s-17.333 32.667 -31 48s-29.834 29.166 -48.501 41.499s-37.667 22.166 -57 29.499s-38.333 11 -57 11s-35.334 -4.66699 -50.001 -14c-14 -9.33301 -29.5 -16.666 -46.5 -21.999s-32.833 -12.5 -47.5 -21.5
s-27 -21.833 -37 -38.5s-15 -41 -15 -73c0 -18.667 4.5 -33.5 13.5 -44.5s19.5 -18.333 31.5 -22s23.833 -3.66699 35.5 0s20.167 10.5 25.5 20.5c8 14.667 11.167 29.5 9.5 44.5s-3.16699 29.833 -4.5 44.5s-0.333008 28.834 3 42.501s14 26.5 32 38.5
c42.667 -15.333 73.834 -34.166 93.501 -56.499s31.5 -45.5 35.5 -69.5s2.33301 -48 -5 -72s-16.166 -45.5 -26.499 -64.5s-20 -34.333 -29 -46l-13.5 -17.5c0.666992 -2.66699 5.5 -7 14.5 -13s19 -14.333 30 -25s21.167 -23.834 30.5 -39.501s14.833 -34.5 16.5 -56.5
s-2.5 -47.5 -12.5 -76.5s-29 -61.833 -57 -98.5c-4.66699 -6 -10.5 -10 -17.5 -12s-14.5 -3 -22.5 -3s-16 0.5 -24 1.5s-15.333 1.5 -22 1.5c-12 0 -20 3.33301 -24 10s-6 15 -6 25s0.833008 20.5 2.5 31.5s1.83398 20.833 0.500977 29.5
c-7.33301 42.667 -19.166 71.667 -35.499 87s-33 20.833 -50 16.5s-31.667 -16 -44 -35s-18.166 -41.5 -17.499 -67.5c0.666992 -30.667 7.66699 -57.334 21 -80.001s30.333 -41.334 51 -56.001s44.334 -25 71.001 -31s53.834 -7.16699 81.501 -3.5s55.167 12.167 82.5 25.5
s52 32 74 56c10 10.667 20 26.834 30 48.501s18 44.334 24 68.001s8.33301 46.334 7 68.001s-8.66602 38.167 -21.999 49.5c-14 11.333 -26 24.833 -36 40.5s-18.667 31.834 -26 48.501l20.5 42c7.66699 15.333 15.167 31.166 22.5 47.499s13.833 32.5 19.5 48.5
s9.83398 31 12.501 45z" />
    <glyph glyph-name="four" unicode="4" horiz-adv-x="562" 
d="M482 242l-2 26.9951c-1.33301 15.333 -4.33301 25 -9 29s-10 5.83301 -16 5.5s-12 -1.66602 -18 -3.99902s-10.333 -2.16602 -13 0.500977c-2 2.66699 -2.5 4.5 -1.5 5.5s2.16699 1.83301 3.5 2.5s2.33301 1.33398 3 2.00098s-1 2 -5 4l-15 59c-2 6 -2 15 0 27l6.5 38
c2.33301 13.333 4 26.833 5 40.5s-0.5 25.5 -4.5 35.5c-2.66699 6 -4.83398 10.667 -6.50098 14s-2.83398 6.5 -3.50098 9.5s-0.5 6.5 0.5 10.5s2.83301 9 5.5 15s5 15 7 27s3.16699 25.333 3.5 40s-0.166992 29.5 -1.5 44.5s-3.83301 28.667 -7.5 41
s-8.83398 22.333 -15.501 30s-15 11.167 -25 10.5c-8 -0.666992 -12.833 -2.16699 -14.5 -4.5s-4.16699 -6.5 -7.5 -12.5c-5.33301 -10.667 -14.166 -20.5 -26.499 -29.5s-23.166 -17.5 -32.499 -25.5c-31.333 -29.333 -58.833 -63.166 -82.5 -101.499
s-44.834 -78.5 -63.501 -120.5s-35.667 -84.667 -51 -128l-45 -125c38.667 -1.33301 77.167 -2.33301 115.5 -3s76.5 -1 114.5 -1c2.66699 -6 6 -14 10 -24s7.5 -20.5 10.5 -31.5s4.83301 -21.5 5.5 -31.5s-1 -18 -5 -24c-3.33301 -6 -10.333 -13.5 -21 -22.5
s-20.667 -18.167 -30 -27.5s-16 -18.833 -20 -28.5s-1.33301 -18.167 8 -25.5c0.666992 -0.666992 5.5 -0.666992 14.5 0s18.667 1.83398 29 3.50098s20 3.33398 29 5.00098s14.5 3.16699 16.5 4.5c4.66699 4 13.667 5.83301 27 5.5s27.333 -1.16602 42 -2.49902
s27.834 -2.83301 39.501 -4.5s18.5 -1.83398 20.5 -0.500977c12.667 7.33301 20.334 13.833 23.001 19.5s2.16699 11.5 -1.5 17.5s-9.16699 12.167 -16.5 18.5s-14.5 14 -21.5 23s-13 19.5 -18 31.5s-6.5 26.333 -4.5 43c0.666992 2.66699 0.666992 6.33398 0 11.001
s-1.16699 9.33398 -1.5 14.001s-0.333008 9 0 13s1.5 7 3.5 9c4 3.33301 9 4.16602 15 2.49902l18 -5c6 -1.66699 11.667 -1.33398 17 0.999023s9 9.16602 11 20.499zM301 605.995v-31.999c0 -15.333 -0.166992 -33.5 -0.5 -54.5s-0.5 -43.167 -0.5 -66.5
c0 -22.667 -0.166992 -43.834 -0.5 -63.501s-0.666016 -36.167 -0.999023 -49.5s-0.5 -20.333 -0.5 -21c-2 -8 -8.33301 -14 -19 -18s-22.5 -6.5 -35.5 -7.5s-25.667 -1.16699 -38 -0.5s-21.833 1.33398 -28.5 2.00098l27.5 69.5l32 80l33.5 82.5
c11.333 27.333 21.666 53.666 30.999 78.999z" />
    <glyph glyph-name="five" unicode="5" horiz-adv-x="563" 
d="M521 291c-0.666992 7.33301 -3.84082 16.9951 -9.50781 28.9951s-12.667 24.667 -21 38s-17.666 27.166 -27.999 41.499s-20.833 27.5 -31.5 39.5s-21 22.333 -31 31s-18.333 14.667 -25 18c-7.33301 3.33301 -14.166 5.16602 -20.499 5.49902
s-12.666 0.833008 -18.999 1.5s-12.833 2.16699 -19.5 4.5s-13.334 7.5 -20.001 15.5c-9.33301 0 -21.166 -2.83301 -35.499 -8.5s-28.5 -10 -42.5 -13s-26.167 -2.16699 -36.5 2.5s-16.166 17 -17.499 37c-1.33301 14.667 1.83398 28.334 9.50098 41.001l22.5 36
c4 6 11 9.33301 21 10s22 0.5 36 -0.5s29.333 -2.16699 46 -3.5s33.5 -0.833008 50.5 1.5s33.5 7.16602 49.5 14.499s30 18.666 42 33.999c14.667 18 23.5 34.333 26.5 49s1.5 25.5 -4.5 32.5s-16 9.33301 -30 7s-30.667 -11.5 -50 -27.5c-18 -2.66699 -38 -2 -60 2l-65 12
c-21.333 4 -41 6.33301 -59 7s-32 -3.33301 -42 -12c-7.33301 -6.66699 -13.166 -18.5 -17.499 -35.5s-7.66602 -35.5 -9.99902 -55.5s-3.66602 -39.333 -3.99902 -58s0.166992 -33 1.5 -43c1.33301 -12 0 -27.167 -4 -45.5s-8.5 -36.666 -13.5 -54.999
s-9.33301 -35.166 -13 -50.499s-3.83398 -26.333 -0.500977 -33c10.667 -8 22.667 -8.5 36 -1.5s26.666 17 39.999 30l40.5 41.5c13.667 14.667 26.5 25.334 38.5 32.001c4 -1.33301 6.83301 -3 8.5 -5l5 -6c1.66699 -2 4 -3.33301 7 -4s7.83301 0 14.5 2
c17.333 4.66699 32.666 -0.166016 45.999 -14.499s24 -33.666 32 -57.999s13.333 -51.833 16 -82.5s2.16699 -60.334 -1.5 -89.001s-10.667 -54 -21 -76s-24.166 -36.667 -41.499 -44c-13.333 -5.33301 -26.5 -11.833 -39.5 -19.5l-38.5 -22.5
c-6 0.666992 -11.333 2.5 -16 5.5s-8.66699 6.83301 -12 11.5c-7.33301 8 -13.166 11.667 -17.499 11s-8.33301 -1.66699 -12 -3s-7.16699 -1.16602 -10.5 0.500977s-7.33301 9.16699 -12 22.5c-2 6 -1.83301 14.667 0.5 26s5.16602 23.333 8.49902 36
s6.16602 25.667 8.49902 39s2.5 25.5 0.5 36.5s-7.16699 19.833 -15.5 26.5s-21.5 10 -39.5 10c-17.333 0 -30.5 -5.66699 -39.5 -17s-14.833 -25.666 -17.5 -42.999s-2.5 -36.166 0.5 -56.499s8 -39.5 15 -57.5s15.5 -33.5 25.5 -46.5s21 -20.833 33 -23.5
s24.167 -6 36.5 -10l37 -12c12.333 -4 24.833 -7 37.5 -9s25.334 -2.33301 38.001 -1c16 2 33.167 8.66699 51.5 20s36.5 25.5 54.5 42.5s35 36 51 57s29.833 42.333 41.5 64s20.834 42.834 27.501 63.501s9.33398 39 8.00098 55z" />
    <glyph glyph-name="six" unicode="6" horiz-adv-x="564" 
d="M462 716c-12.667 7.33301 -25.167 15.001 -37.5 23.001s-25 14.167 -38 18.5s-26.333 5.66602 -40 3.99902s-27.834 -8.5 -42.501 -20.5c-10 1.33301 -20 -0.833984 -30 -6.50098s-19 -11.167 -27 -16.5l-18 1c-20 -1.33301 -38.833 -16 -56.5 -44s-33 -63.5 -46 -106.5
s-22.833 -90.167 -29.5 -141.5s-8.83398 -101.166 -6.50098 -149.499s10.333 -92 24 -131s33.834 -67.5 60.501 -85.5c6.66699 -4.66699 12.834 -10.834 18.501 -18.501l17 -22c5.66699 -7 11.834 -13.167 18.501 -18.5s15 -8 25 -8c8.66699 0 17.5 1 26.5 3l26.5 6
c8.66699 2 17.5 3.33301 26.5 4s17.833 -0.333008 26.5 -3c23.333 9.33301 44.666 25.666 63.999 48.999s35.166 50 47.499 80s20.5 61.667 24.5 95s2.5 64.833 -4.5 94.5s-20.167 55.334 -39.5 77.001s-46 35.834 -80 42.501c-11.333 2 -23.5 3.33301 -36.5 4
s-26.5 1 -40.5 1c-13.333 0 -26.666 -0.166992 -39.999 -0.5s-26 -0.5 -38 -0.5c1.33301 26.667 0.5 51.334 -2.5 74.001s-4 44.334 -3 65.001s6 40.667 15 60s25.5 39.666 49.5 60.999c15.333 -1.33301 27 -5.16602 35 -11.499s13.667 -14.166 17 -23.499
s5.5 -19.5 6.5 -30.5s2.5 -21.833 4.5 -32.5s5.33301 -20.5 10 -29.5s12.667 -16.167 24 -21.5c14.667 -6.66699 29.167 -8.33398 43.5 -5.00098s27.5 9.66602 39.5 18.999c6 4 10.833 13.167 14.5 27.5s6 29.666 7 45.999s0.333008 31.5 -2 45.5s-6.83301 22.667 -13.5 26z
M279 711.001v-1h-1zM380 144.001c-7.33301 -8.66699 -15.001 -16.4971 -23.001 -23.4971s-15.667 -14.833 -23 -23.5c-3.33301 -3.33301 -6.5 -6.83301 -9.5 -10.5s-7.16699 -5.5 -12.5 -5.5c-3.33301 0 -8.5 0.166992 -15.5 0.5s-14.5 0.666016 -22.5 0.999023
s-15.333 1.16602 -22 2.49902s-10.667 3 -12 5c-9.33301 10.667 -17.666 24 -24.999 40s-13 32.5 -17 49.5s-6 33.833 -6 50.5c0 17.333 2 33 6 47c3.33301 11.333 4.5 22.666 3.5 33.999s0.5 22.666 4.5 33.999c2.66699 8.66699 6.66699 14.167 12 16.5
s11 3.66602 17 3.99902s11.5 0.833008 16.5 1.5s8.83301 3.33398 11.5 8.00098c12 3.33301 23.667 5.33301 35 6c1.33301 -8 5.5 -13.833 12.5 -17.5s14.5 -7.16699 22.5 -10.5s15.833 -7 23.5 -11s13.167 -10 16.5 -18c3.33301 -9.33301 6.83301 -22.333 10.5 -39
s6.16699 -34.167 7.5 -52.5s1.33301 -35.666 0 -51.999s-5 -28.5 -11 -36.5z" />
    <glyph glyph-name="seven" unicode="7" horiz-adv-x="570" 
d="M421 738c-5.33301 0 -11.1602 -0.829102 -17.4932 -2.49609s-12.5 -3.16699 -18.5 -4.5s-11.833 -1.66602 -17.5 -0.999023s-10.834 3.33398 -15.501 8.00098c-3.33301 3.33301 -7 6.66602 -11 9.99902s-9 4.33301 -15 3c-7.33301 -2 -15 -4.33301 -23 -7
s-16 -3.33398 -24 -2.00098c-6 3.33301 -11.667 5.33301 -17 6s-10.5 0.833984 -15.5 0.500977s-10.167 -1 -15.5 -2s-11 -1.16699 -17 -0.5s-11.5 2.16699 -16.5 4.5s-9.83301 4 -14.5 5s-9.33398 1 -14.001 0s-10 -4.83301 -16 -11.5
c-4 -4.66699 -8.16699 -8.33398 -12.5 -11.001l-12.5 -8c-4 -2.66699 -7.5 -5.83398 -10.5 -9.50098s-5.16699 -8.83398 -6.5 -15.501s-2.83301 -19.834 -4.5 -39.501s-3.16699 -40.5 -4.5 -62.5s-2 -42.333 -2 -61c0 -18 1 -29.333 3 -34
c5.33301 -10.667 10.5 -15 15.5 -13s10 7.33301 15 16s10.167 19.834 15.5 33.501s11 27.167 17 40.5s12.5 25.5 19.5 36.5s14.833 18.167 23.5 21.5c10.667 4 25.334 6.16699 44.001 6.5s37 -1.66699 55 -6s33.667 -11.166 47 -20.499s19.666 -21.666 18.999 -36.999
c-20 -30.667 -35.167 -60 -45.5 -88s-18.833 -54.5 -25.5 -79.5s-12.667 -48.5 -18 -70.5s-12.333 -42.333 -21 -61l-28 -59.5c-8.66699 -18.333 -15.167 -36.5 -19.5 -54.5s-6.5 -36.667 -6.5 -56c0 -18.667 3.33301 -39.334 10 -62.001
c3.33301 -9.33301 5.16602 -18.666 5.49902 -27.999s3.5 -18 9.5 -26c6.66699 -8.66699 16.167 -11.834 28.5 -9.50098s24.666 7.5 36.999 15.5s23.166 17.5 32.499 28.5s14.666 20.5 15.999 28.5c2 10.667 2.83301 21.667 2.5 33s-1 22.5 -2 33.5l-3 33.5
c-1 11.333 -1.16699 22.666 -0.5 33.999c0.666992 18.667 2 36.667 4 54s4.16699 34.5 6.5 51.5s4.33301 34.333 6 52s2.5 36.167 2.5 55.5c0 6 1.5 12.167 4.5 18.5s6.5 12.833 10.5 19.5s7.33301 13.167 10 19.5s3.66699 12.5 3 18.5c3.33301 7.33301 5 15.333 5 24
s3 16.667 9 24l30 36.5c12 14.333 23.5 29.166 34.5 44.499s20.167 30.666 27.5 45.999s10.166 29 8.49902 41s-9 21.667 -22 29s-34.5 11 -64.5 11z" />
    <glyph glyph-name="eight" unicode="8" horiz-adv-x="573" 
d="M505 230c2 13.333 0.835938 26.3271 -3.49707 38.9941s-7.16602 25.334 -8.49902 38.001c-2 16 -8.66699 28.167 -20 36.5s-24.166 15.5 -38.499 21.5s-28.333 12.333 -42 19s-23.5 16.334 -29.5 29.001c7.33301 12.667 17 27.167 29 43.5l36 51
c12 17.667 22.667 35.834 32 54.501s15.166 37 17.499 55s-0.166992 35.333 -7.5 52s-21.666 31.667 -42.999 45c-15.333 9.33301 -34.833 18.333 -58.5 27s-48.167 14.667 -73.5 18s-50 3 -74 -1s-43.333 -13.667 -58 -29c-15.333 -16 -27.833 -34 -37.5 -54
s-16.334 -41 -20.001 -63s-4.66699 -44.333 -3 -67s6.16699 -44.334 13.5 -65.001c3.33301 -10 8.66602 -18.667 15.999 -26s14.666 -14 21.999 -20l20 -17c6 -5.33301 9.66699 -10.666 11 -15.999c0 -2 -2.83301 -5.16699 -8.5 -9.5s-12.334 -9.16602 -20.001 -14.499
l-22 -15.5c-7 -5 -11.833 -9.16699 -14.5 -12.5c-6.66699 -8.66699 -13.5 -22.167 -20.5 -40.5s-12.667 -37.833 -17 -58.5s-6.83301 -40.334 -7.5 -59.001s2.33301 -32.334 9 -41.001c8 -11.333 15.333 -23.333 22 -36s13.667 -25.167 21 -37.5s16 -23.5 26 -33.5
s22 -17.333 36 -22c26 -9.33301 52.167 -15.166 78.5 -17.499s51.166 -0.166016 74.499 6.50098s44.333 18.5 63 35.5s33 40.167 43 69.5c4 10.667 8.66699 20.334 14 29.001s10.833 17.167 16.5 25.5s11 17.333 16 27s8.5 20.834 10.5 33.501zM383.003 567.994
c0.666992 -12.667 0.331055 -22.1689 -1.00195 -28.502s-3.66602 -11.666 -6.99902 -15.999s-7.33301 -8.83301 -12 -13.5s-9.66699 -12 -15 -22c-6 -10.667 -14.5 -21 -25.5 -31s-21.167 -18.667 -30.5 -26c-24 8 -44.167 19.333 -60.5 34s-29.333 30.667 -39 48
s-16 35.333 -19 54s-2.66699 36.167 1 52.5s10.667 30.5 21 42.5s23.5 20 39.5 24c8 2 16 3 24 3h25c5.33301 0 10.5 1.16699 15.5 3.5s10.167 3.83301 15.5 4.5c3.33301 0 7.5 -1.33301 12.5 -4s10 -6 15 -10s9.66699 -8 14 -12s7.5 -7.33301 9.5 -10
c11.333 -13.333 16.833 -28.166 16.5 -44.499s-0.166016 -32.5 0.500977 -48.5zM411 210.992c7.33301 -25.333 5.5 -49.3311 -5.5 -71.998s-27.833 -40.334 -50.5 -53.001c-2.66699 -1.33301 -7.83398 -3.33301 -15.501 -6s-15.834 -5.16699 -24.501 -7.5
s-16.667 -4.33301 -24 -6s-12 -1.83398 -14 -0.500977c-4.66699 2 -8 3.5 -10 4.5s-3.66699 1.5 -5 1.5s-3 -0.333008 -5 -1s-5.66699 -1.33398 -11 -2.00098c-14.667 -2.66699 -26.5 -1.16699 -35.5 4.5s-16.333 13.5 -22 23.5s-9.66699 21.333 -12 34
s-3.83301 24.334 -4.5 35.001c-0.666992 8 -2.5 15 -5.5 21s-5.16699 12.667 -6.5 20c-1.33301 6.66699 0.166992 16.667 4.5 30s10 27 17 41s14.667 26.333 23 37s15.833 16.667 22.5 18s11.5 1.5 14.5 0.5s5.5 -2.16699 7.5 -3.5l6.5 -4.5
c2.33301 -1.66699 5.83301 -2.5 10.5 -2.5c16.667 0 32.834 -2.83301 48.501 -8.5s29.834 -13.5 42.501 -23.5s23.667 -21.833 33 -35.5s16.333 -28.5 21 -44.5z" />
    <glyph glyph-name="nine" unicode="9" horiz-adv-x="562" 
d="M486 294c11.333 40 17.999 73.6699 19.999 101.003s1 53.166 -3 77.499s-10.333 49.5 -19 75.5s-18.334 57.667 -29.001 95c-2 6.66699 -5.83301 13.834 -11.5 21.501s-11.834 15.167 -18.501 22.5l-19.5 22.5c-6.33301 7.66699 -11.166 15.5 -14.499 23.5
c-6 2 -14.333 5 -25 9l-33 12l-32.5 11c-10.333 3.33301 -18.166 5 -23.499 5c-10.667 -6 -23.167 -11.667 -37.5 -17s-28.666 -11 -42.999 -17s-27.666 -12.833 -39.999 -20.5s-21.833 -16.5 -28.5 -26.5l-43 -67.5c-14.667 -22.333 -24.334 -47.166 -29.001 -74.499
c-4.66699 -26.667 -3.83398 -53.834 2.49902 -81.501s16.5 -53.834 30.5 -78.501s31 -46.334 51 -65.001s41.667 -32 65 -40s47.5 -9.66699 72.5 -5s49.5 18.334 73.5 41.001l23 1c-1.33301 -8 -2.66602 -19.667 -3.99902 -35s-3.16602 -32.333 -5.49902 -51
s-5 -37.834 -8 -57.501s-6.33301 -38.167 -10 -55.5s-8.16699 -32.333 -13.5 -45s-11.333 -21 -18 -25c-5.33301 -3.33301 -10 -4.83301 -14 -4.5s-8.66699 1.16602 -14 2.49902c-23.333 6 -40.833 11.167 -52.5 15.5s-19.5 10.666 -23.5 18.999s-5.16699 19.833 -3.5 34.5
s4.5 35.334 8.5 62.001c-25.333 16.667 -46 24.667 -62 24s-28.167 -6.5 -36.5 -17.5s-13.5 -25.5 -15.5 -43.5s-1.16699 -35.667 2.5 -53s9.5 -33 17.5 -47s17.333 -22.333 28 -25c9.33301 -2.66699 18.666 -5 27.999 -7s18.666 -4.66699 27.999 -8
c13.333 7.33301 29.166 11.5 47.499 12.5s37.166 2.16699 56.499 3.5s37.833 4.66602 55.5 9.99902s32.5 16 44.5 32c5.33301 7.33301 9.33301 15.333 12 24s4.83398 17.334 6.50098 26.001s3.5 17.5 5.5 26.5s5 17.5 9 25.5l22.5 44.5c5 9.66699 8.33301 16.667 10 21
s2.33398 7.33301 2.00098 9s-0.666016 4 -0.999023 7s0 8.16699 1 15.5s3.83301 19 8.5 35zM373.999 465.003c-4 -11.333 -5.66895 -22.3359 -5.00195 -33.0029s0 -21.667 -2 -33c-1.33301 -4 -3 -7.66699 -5 -11s-3.66699 -6.66602 -5 -9.99902s-2 -7.33301 -2 -12
c0 -4 -0.333008 -8 -1 -12c-10 -7.33301 -23.667 -14 -41 -20s-32.333 -9 -45 -9c-13.333 0 -23 1.16699 -29 3.5s-10.667 6 -14 11s-6.16602 11.333 -8.49902 19s-5.83301 16.834 -10.5 27.501c-4 8 -7 20 -9 36s-3.33301 33.667 -4 53s-0.166992 39.5 1.5 60.5
s4.33398 40.667 8.00098 59s8.5 34.166 14.5 47.499s13.333 22.333 22 27c2.66699 1.33301 7.16699 3 13.5 5s13.166 3.83301 20.499 5.5s14.166 2.83398 20.499 3.50098s10.833 0.333984 13.5 -0.999023c10.667 -6 20.834 -18.833 30.501 -38.5s17.667 -41 24 -64
s10.833 -45.167 13.5 -66.5s2.33398 -37.333 -0.999023 -48z" />
    <glyph glyph-name="colon" unicode=":" horiz-adv-x="264" 
d="M213 423c-1.33301 12.667 -6.66699 26.5 -16 41.5s-20.166 26.667 -32.499 35s-25.166 11.833 -38.499 10.5s-24.666 -11.666 -33.999 -30.999c-3.33301 -6 -8 -12.833 -14 -20.5s-9.66699 -14.167 -11 -19.5c-2 -10 -1.5 -17.667 1.5 -23s7.5 -11.666 13.5 -18.999
c2.66699 -3.33301 4.16699 -6.33301 4.5 -9l1 -8c0.333008 -2.66699 1.83301 -5.83398 4.5 -9.50098s8 -7.83398 16 -12.501c8.66699 -5.33301 19.167 -6.83301 31.5 -4.5s24.166 7 35.499 14s20.666 15.5 27.999 25.5s10.666 20 9.99902 30zM219.999 89
c-10 6 -17.4961 12.499 -22.4961 19.499s-10 13.167 -15 18.5s-11.333 9.83301 -19 13.5s-19.167 5.5 -34.5 5.5c-14.667 0 -26 -5.5 -34 -16.5s-12.833 -24 -14.5 -39s-0.333984 -29.833 3.99902 -44.5s11.5 -25.334 21.5 -32.001l11 -8
c4.66699 -3.33301 9.5 -6.5 14.5 -9.5l14 -8.5c4.33301 -2.66699 8.16602 -4 11.499 -4c9.33301 -1.33301 18.666 1.83398 27.999 9.50098s17.166 17.334 23.499 29.001s10.833 23.667 13.5 36s2 22.5 -2 30.5z" />
    <glyph glyph-name="semicolon" unicode=";" horiz-adv-x="261" 
d="M198 412c4 11.333 3.83105 22.6699 -0.501953 34.0029s-10.833 21.666 -19.5 30.999s-18.667 17 -30 23s-22.333 9.33301 -33 10c-12 -7.33301 -22.167 -16.833 -30.5 -28.5s-13.666 -24.334 -15.999 -38.001s-1.83301 -27.5 1.5 -41.5s10.333 -26.333 21 -37
c2 -2 4.83301 -3.16699 8.5 -3.5s7.83398 -0.333008 12.501 0s9 0.666016 13 0.999023s7.33301 0.5 10 0.5c9.33301 0 16.333 0.333008 21 1s10.334 4.66699 17.001 12l15 16.5c3.33301 3.66699 6.66602 10.167 9.99902 19.5zM210.998 -2.99609
c0.666992 15.333 0.832031 31.6689 0.499023 49.002s-2.83301 33.5 -7.5 48.5s-12.334 28.167 -23.001 39.5s-25.334 18.666 -44.001 21.999c-3.33301 0.666992 -7.66602 0 -12.999 -2s-10.5 -4.5 -15.5 -7.5s-9.66699 -6.33301 -14 -10s-7.16602 -7.16699 -8.49902 -10.5
c-12 -28 -17.5 -49 -16.5 -63s5 -25 12 -33s14.833 -15 23.5 -21s15 -15 19 -27c2.66699 -10 2.83398 -20.167 0.500977 -30.5s-5.83301 -20.5 -10.5 -30.5s-9.83398 -19.833 -15.501 -29.5s-10.167 -18.667 -13.5 -27s-4.83301 -15.833 -4.5 -22.5
s4.16602 -12.334 11.499 -17.001c6 -4 13.167 -3 21.5 3s16.833 14.667 25.5 26s17.334 24.5 26.001 39.5s16.334 29.5 23.001 43.5s12.167 26.5 16.5 37.5s6.5 18.5 6.5 22.5z" />
    <glyph glyph-name="less" unicode="&#x3c;" 
d="M455 79c0 13.333 -3.16797 24.498 -9.50098 33.498s-15.5 16.5 -27.5 22.5c-4 2 -7.16699 4.33301 -9.5 7s-4.66602 5.16699 -6.99902 7.5s-5 4.5 -8 6.5s-7.16699 3.33301 -12.5 4c-13.333 2 -29.5 7.16699 -48.5 15.5s-33.167 17.5 -42.5 27.5l-18 21
c-6 7.33301 -14 11 -24 11c-2.66699 0 -8.66699 2.33301 -18 7l-30.5 16c-11 6 -21.333 12 -31 18s-16.5 10 -20.5 12c11.333 4.66699 21.333 10.834 30 18.501s18.667 13.834 30 18.501c24 9.33301 45.167 19.333 63.5 30s38.5 21.667 60.5 33
c17.333 8.66699 34.166 18 50.499 28l48.5 30c9.33301 6 14.833 13 16.5 21s1 15.333 -2 22s-7.66699 12.167 -14 16.5s-12.5 5.5 -18.5 3.5c-4 -1.33301 -12.333 -5.33301 -25 -12l-46 -25l-58.5 -33l-61.5 -34.5l-55.5 -30c-17 -9 -30.5 -15.5 -40.5 -19.5
c-18.667 -8 -34.334 -19.667 -47.001 -35l-11 -1c-3.33301 -3.33301 -6.5 -8.16602 -9.5 -14.499s-5 -13 -6 -20s-0.833008 -13.5 0.5 -19.5s5 -10 11 -12c2 -2.66699 8.83301 -7.16699 20.5 -13.5l43 -23l55.5 -29l58.5 -31c19 -10.333 36.667 -20.5 53 -30.5
s28.833 -18.667 37.5 -26c7.33301 -6.66699 16 -10.334 26 -11.001s19 -3.66699 27 -9l24.5 -17c9 -6 17.5 -11 25.5 -15c3.33301 -2 6.33301 -1.83301 9 0.5s4.83398 5.5 6.50098 9.5s2.83398 8 3.50098 12s1 7 1 9z" />
    <glyph glyph-name="equal" unicode="=" 
d="M440 366l-266.999 0.99707c-15.333 0 -31.833 0.666992 -49.5 2s-34.167 1.33301 -49.5 0c-11.333 -1.33301 -19.5 -4.66602 -24.5 -9.99902s-7.5 -11.666 -7.5 -18.999c0 -6.66699 2.5 -13.334 7.5 -20.001s12.5 -11.667 22.5 -15c6 -2 14.333 -3 25 -3
c11.333 0 23 0.5 35 1.5l35 3c11.333 1 20.666 1.16699 27.999 0.5c4 -0.666992 12.333 -1.16699 25 -1.5s27.334 -0.666016 44.001 -0.999023s34 -0.5 52 -0.5h51h40c11.333 0 17.666 0.333008 18.999 1c12 4 20.5 9.5 25.5 16.5s7.5 13.833 7.5 20.5
s-1.83301 12.334 -5.5 17.001s-8.16699 7 -13.5 7zM417.001 230.997c-5.33301 2 -12.002 3 -20.002 3s-16.333 -0.333008 -25 -1s-17.334 -1.16699 -26.001 -1.5s-16 -0.5 -22 -0.5c-4.66699 0 -14.167 0.166992 -28.5 0.5s-31.166 0.5 -50.499 0.5h-60h-58
c-18 0 -32.833 -0.166992 -44.5 -0.5s-18.167 -0.5 -19.5 -0.5c-9.33301 -4 -16.166 -9.66699 -20.499 -17s-6.16602 -14.5 -5.49902 -21.5s3.33398 -13 8.00098 -18s11 -7.5 19 -7.5c42 0 83.333 0.333008 124 1s82 1 124 1c16 0.666992 33.167 0.166992 51.5 -1.5
s35.166 -1.83398 50.499 -0.500977c10 0.666992 17.833 3.83398 23.5 9.50098s8.66699 12 9 19s-2 13.833 -7 20.5s-12.5 11.667 -22.5 15z" />
    <glyph glyph-name="greater" unicode="&#x3e;" 
d="M449 311c-6.66699 5.33301 -19.834 13.9951 -39.501 25.9951l-68.5 40l-83 45.5l-82.5 43c-25.667 13 -48.167 23.5 -67.5 31.5s-32.333 12 -39 12c-4 0 -7.66699 -1.83301 -11 -5.5s-5.83301 -8 -7.5 -13s-2.66699 -10 -3 -15s0.5 -9.16699 2.5 -12.5
c4 -6 10.5 -12.333 19.5 -19s18.833 -12.834 29.5 -18.501s21.334 -10.167 32.001 -13.5s19.334 -4.66602 26.001 -3.99902c26 -15.333 51 -32.166 75 -50.499s50 -33.833 78 -46.5c8.66699 -4 17.334 -7.66699 26.001 -11s17 -7.66602 25 -12.999l-12 -6
c-5.33301 0.666992 -8.5 -0.166016 -9.5 -2.49902s-2.83301 -4.83301 -5.5 -7.5c-5.33301 -6 -12.833 -10.5 -22.5 -13.5s-18.167 -6.16699 -25.5 -9.5c-16.667 -6 -34.5 -13.333 -53.5 -22s-38 -18 -57 -28s-37.333 -20.333 -55 -31s-33.834 -21 -48.501 -31
c-15.333 -10 -23.833 -21.333 -25.5 -34s1.66602 -22.667 9.99902 -30s21 -9.83301 38 -7.5s36.5 13.5 58.5 33.5c7.33301 6.66699 21.5 15 42.5 25l70.5 34l79.5 39.5c27 13.667 50.167 27.334 69.5 41.001s33 26.834 41 39.501s5.66699 24 -7 34z" />
    <glyph glyph-name="question" unicode="?" horiz-adv-x="416" 
d="M387 572c0.666992 26.667 -4.83594 51.835 -16.5029 75.502s-26.834 44.334 -45.501 62.001s-40 31.667 -64 42s-47.667 15.666 -71 15.999s-45.5 -4.83398 -66.5 -15.501s-38.167 -28.667 -51.5 -54c-5.33301 -10 -8.33301 -21 -9 -33s1.66602 -23 6.99902 -33
c6 -12 14.167 -21.5 24.5 -28.5s21 -10.833 32 -11.5s21.5 2 31.5 8s18 16 24 30c6 14.667 9.16699 29.334 9.5 44.001s2.5 29.667 6.5 45c24 -4 42.167 -16.5 54.5 -37.5s20.166 -45 23.499 -72s2.83301 -53.833 -1.5 -80.5s-11.166 -48 -20.499 -64
c-10 -16 -20.833 -35 -32.5 -57s-22.167 -44.833 -31.5 -68.5s-16.333 -47.334 -21 -71.001s-5 -44.834 -1 -63.501c2.66699 -12 4.83398 -24.167 6.50098 -36.5s3.16699 -24.5 4.5 -36.5c-24 -3.33301 -41.667 -11.333 -53 -24s-17.666 -26.667 -18.999 -42
s1.5 -30.5 8.5 -45.5s16.5 -26.667 28.5 -35s25.833 -11.333 41.5 -9s31.834 12.833 48.501 31.5c8.66699 10 13.834 23 15.501 39s0 31 -5 45s-13 25.167 -24 33.5s-24.833 10.5 -41.5 6.5l15 78c5.33301 27.333 13.833 50.333 25.5 69s24.5 35.5 38.5 50.5
s28.333 29.167 43 42.5s28.334 28.833 41.001 46.5s23.167 38.667 31.5 63s12.833 54.5 13.5 90.5z" />
    <glyph glyph-name="at" unicode="@" horiz-adv-x="699" 
d="M700 444c-1.33301 9.33301 -6.33496 24.6719 -15.002 46.0049s-18.667 43.5 -30 66.5s-22.666 44.667 -33.999 65s-20.333 34.5 -27 42.5c-20 23.333 -45 41.833 -75 55.5s-62 22.334 -96 26.001s-68.5 2.66699 -103.5 -3s-67.5 -15.5 -97.5 -29.5
s-55.833 -32.333 -77.5 -55s-36.167 -49 -43.5 -79c-13.333 -53.333 -24.166 -103 -32.499 -149s-10.333 -90 -6 -132s16.833 -82.5 37.5 -121.5s53 -78.167 97 -117.5c8 -7.33301 16.5 -13 25.5 -17s18.167 -7.33301 27.5 -10l29 -8c10 -2.66699 19.667 -6 29 -10
c15.333 -7.33301 34 -11.333 56 -12s44.5 0.5 67.5 3.5s45.333 7.66699 67 14s39.834 13.166 54.501 20.499c6.66699 3.33301 15.167 8.83301 25.5 16.5s21.333 16.5 33 26.5s23.167 20.667 34.5 32s21 22.666 29 33.999s13.833 22 17.5 32s3.83398 18.667 0.500977 26
c-4.66699 10 -13.334 12.667 -26.001 8s-26 -12.167 -40 -22.5s-27 -21.333 -39 -33s-19.667 -19.834 -23 -24.501c-12.667 -18 -31 -33.167 -55 -45.5s-49.667 -21.666 -77 -27.999s-54.833 -9.33301 -82.5 -9s-51.5 4.5 -71.5 12.5c-36.667 14.667 -65.834 38 -87.501 70
s-36.667 68.167 -45 108.5s-10.333 83 -6 128s14 87.667 29 128s34.833 76.166 59.5 107.499s53.334 54 86.001 68c22 9.33301 46.333 12.333 73 9s52.834 -12.166 78.501 -26.499s49.5 -33.333 71.5 -57s39.167 -51 51.5 -82s18.833 -65 19.5 -102
s-7.66602 -75.833 -24.999 -116.5c-3.33301 -8.66699 -8 -16.334 -14 -23.001s-13.667 -11.667 -23 -15c-5.33301 -6.66699 -9.83301 -13.5 -13.5 -20.5s-10.167 -12.167 -19.5 -15.5c-13.333 -4.66699 -22.5 -3.66699 -27.5 3s-7.5 16.334 -7.5 29.001
c0 13.333 1.83301 28.333 5.5 45s7.66699 32.667 12 48l12 41.5c3.66699 12.333 5.5 20.5 5.5 24.5c0 9.33301 2.5 17.833 7.5 25.5s10.333 15.167 16 22.5s11 14.666 16 21.999s7.5 15.666 7.5 24.999c0 14.667 -1.5 25 -4.5 31s-7.16699 10.167 -12.5 12.5
s-11.5 4 -18.5 5s-14.833 4.16699 -23.5 9.5c-5.33301 -0.666992 -9.83301 -2.16699 -13.5 -4.5l-10.5 -7l-10.5 -7.5c-3.66699 -2.66699 -7.83398 -4.33398 -12.501 -5.00098c-10.667 -2 -21.667 -2.16699 -33 -0.5s-22.666 3.66699 -33.999 6s-22.833 4.5 -34.5 6.5
s-22.834 2.33301 -33.501 1c-22.667 -23.333 -40.834 -44.166 -54.501 -62.499s-25 -37 -34 -56s-16.333 -39.667 -22 -62s-11.5 -48.833 -17.5 -79.5c4.66699 -11.333 10 -25.5 16 -42.5s13 -33.667 21 -50s17.333 -30.833 28 -43.5s22.667 -20.334 36 -23.001
c12.667 -2.66699 25 -0.833984 37 5.49902s23.333 13.333 34 21s20.667 14.167 30 19.5s18 5.66602 26 0.999023c6.66699 -4 13 -8.83301 19 -14.5s12 -11 18 -16s12.333 -9 19 -12s14.667 -3.83301 24 -2.5c18 3.33301 34 10.5 48 21.5s27 23.5 39 37.5l35 41.5
c11.333 13.667 23.666 24.834 36.999 33.501c4.66699 14.667 9.66699 28.5 15 41.5s10.333 26 15 39s8.16699 26.5 10.5 40.5s2.5 29.667 0.5 47zM420.998 414.006c0 -6.66699 -1.50098 -17.502 -4.50098 -32.502s-7.16699 -31.667 -12.5 -50
s-11.666 -36.666 -18.999 -54.999s-15.5 -33.833 -24.5 -46.5s-18.5 -21 -28.5 -25s-20.333 -1 -31 9s-17.5 17.833 -20.5 23.5s-4.33301 11 -4 16s1.66602 10.333 3.99902 16s3.5 14.167 3.5 25.5c0 6.66699 3 19.834 9 39.501s13 40.5 21 62.5s16 42.333 24 61
s14.333 29.667 19 33c10 8 19 10 27 6s14.833 -11 20.5 -21s9.83398 -21 12.501 -33s4 -21.667 4 -29z" />
    <glyph glyph-name="A" unicode="A" horiz-adv-x="877" 
d="M875 71c-6 6.66699 -14.1689 10.9961 -24.502 12.9961s-21.5 3 -33.5 3s-24 -0.333008 -36 -1s-22 0 -30 2s-16.167 10 -24.5 24s-16.333 31.5 -24 52.5s-15.167 43.667 -22.5 68l-21.5 71l-19.5 62c-6 18.333 -11.333 31.833 -16 40.5c-8.66699 14.667 -15 30 -19 46
s-7 32.333 -9 49s-3.66699 33.334 -5 50.001s-3.33301 33 -6 49c-1.33301 9.33301 -4.16602 18.5 -8.49902 27.5s-9.16602 17.833 -14.499 26.5l-16 26.5c-5.33301 9 -9.66602 18.5 -12.999 28.5c-4 11.333 -10 21 -18 29s-16.833 13.5 -26.5 16.5
s-19.334 2.83301 -29.001 -0.5s-18.167 -10.666 -25.5 -21.999c-8 -12.667 -15 -27 -21 -43s-11.167 -32.667 -15.5 -50s-8 -34.666 -11 -51.999s-5.5 -33.333 -7.5 -48c-10 -12.667 -20.833 -32 -32.5 -58s-23.667 -55 -36 -87l-37 -99
c-12.333 -34 -24.5 -65.667 -36.5 -95s-23.333 -54.166 -34 -74.499s-20.667 -32.833 -30 -37.5c2.66699 1.33301 0.166992 0.5 -7.5 -2.5s-17.5 -7.16699 -29.5 -12.5l-37.5 -17c-13 -6 -23.167 -11.333 -30.5 -16c-10.667 -6.66699 -17 -13 -19 -19s-1 -11 3 -15
s10.833 -7.16699 20.5 -9.5s21.167 -3.16602 34.5 -2.49902c29.333 1.33301 58.166 3.66602 86.499 6.99902s56.5 5 84.5 5c10.667 0 23.834 0.833008 39.501 2.5l47.5 5c16 1.66699 31 3 45 4s24.667 0.833008 32 -0.5l28 -5.5
c8.66699 -1.66699 18.334 -2.83398 29.001 -3.50098c5.33301 -6 13 -8.66699 23 -8s20.5 2.5 31.5 5.5s21.833 6.33301 32.5 10s19.667 5.5 27 5.5l123 -18c6 -3.33301 12 -4.33301 18 -3s12 3 18 5s12.5 3.5 19.5 4.5s14.5 -0.833008 22.5 -5.5
c6 -3.33301 13.833 -3.16602 23.5 0.500977s18.5 9 26.5 16s13.667 15.167 17 24.5s1.66602 18 -5.00098 26zM463.998 335.996c-5.33301 -3.33301 -12.501 -6.66797 -21.501 -10.001s-16.5 -5.33301 -22.5 -6c-1.33301 0 -5.66602 0.666992 -12.999 2s-12 2 -14 2
c-9.33301 2 -16 4.5 -20 7.5s-6.16699 6.5 -6.5 10.5s0.5 8.66699 2.5 14s4.66699 11.333 8 18l2 10c1.33301 6.66699 3 14 5 22s3.66699 15.333 5 22s2 10.334 2 11.001c5.33301 6 9.83301 13.833 13.5 23.5s8 17.667 13 24s11 9.16602 18 8.49902
s16.5 -8.33398 28.5 -23.001c1.33301 -11.333 4.66602 -23.166 9.99902 -35.499s9.5 -24.666 12.5 -36.999s3.33301 -24 1 -35s-10.166 -20.5 -23.499 -28.5zM567.997 155.994c0 -25.333 -1.66797 -43.3301 -5.00098 -53.9971s-8.66602 -17.667 -15.999 -21
s-17.333 -4.83301 -30 -4.5s-28 -0.5 -46 -2.5c-5.33301 -0.666992 -9.5 -5.5 -12.5 -14.5s-5.33301 -18 -7 -27s-3.16699 -15.833 -4.5 -20.5s-3.33301 -3 -6 5c-3.33301 9.33301 -11.166 18.666 -23.499 27.999s-25.5 18.166 -39.5 26.499s-26.833 16.333 -38.5 24
s-18.834 14.5 -21.501 20.5c-4 12 -5.16699 25.5 -3.5 40.5s6 29 13 42s16.167 23.833 27.5 32.5s24 12.667 38 12c4.66699 0 8.66699 -1 12 -3s7.33301 -3 12 -3c6.66699 0 11.5 2.33301 14.5 7s8.83301 7 17.5 7c18.667 0 35.334 -0.833008 50.001 -2.5
s27.167 -5.83398 37.5 -12.501s18.166 -16.167 23.499 -28.5s8 -29.5 8 -51.5z" />
    <glyph glyph-name="B" unicode="B" horiz-adv-x="742" 
d="M717 156c0.666992 15.333 0.826172 31.4971 0.493164 48.4971s-2.33301 33.5 -6 49.5s-9.66699 30.833 -18 44.5s-19.833 24.834 -34.5 33.501c-7.33301 4 -15.5 7 -24.5 9s-17.833 4.16699 -26.5 6.5s-16.5 5.83301 -23.5 10.5s-11.833 12 -14.5 22
c-2.66699 10.667 -0.666992 20.334 6 29.001s15.667 17.167 27 25.5l36.5 27.5c13 10 24.333 21.833 34 35.5s16.167 29.667 19.5 48s1.33301 40.5 -6 66.5c-2.66699 9.33301 -10.167 19.666 -22.5 30.999s-26 22.833 -41 34.5l-45.5 34c-15.333 11 -27.333 20.5 -36 28.5
c-16.667 -6 -33.334 -8.5 -50.001 -7.5s-32.334 3.16699 -47.001 6.5s-28 6.83301 -40 10.5s-21.333 5.5 -28 5.5c-5.33301 0 -14.333 -0.833008 -27 -2.5l-38.5 -5l-35.5 -4.5c-10.667 -1.33301 -17 -2 -19 -2c-26.667 5.33301 -52.167 8.66602 -76.5 9.99902
s-50.166 1.33301 -77.499 0c-16.667 -12 -27 -21.833 -31 -29.5s-4.16699 -14.334 -0.5 -20.001s10.334 -10.5 20.001 -14.5l31 -12.5c11 -4.33301 21.333 -9.16602 31 -14.499s16.834 -12 21.501 -20c14.667 -26 23.334 -54.833 26.001 -86.5s3.16699 -64.167 1.5 -97.5
s-3.16699 -66.5 -4.5 -99.5s1.33398 -64.167 8.00098 -93.5c2 -11.333 2 -20.5 0 -27.5s-4.66699 -13.167 -8 -18.5s-6.5 -10.666 -9.5 -15.999s-4.5 -12 -4.5 -20c0 -30 -1.33301 -53.667 -4 -71s-6.5 -30.333 -11.5 -39s-10.833 -14.167 -17.5 -16.5s-14 -3.5 -22 -3.5
s-16.5 -0.166992 -25.5 -0.5s-17.833 -2.83301 -26.5 -7.5c-7.33301 -3.33301 -12.666 -8.16602 -15.999 -14.499s-5 -13.166 -5 -20.499c0 -6.66699 1.66699 -13.167 5 -19.5s8.66602 -11.166 15.999 -14.499c3.33301 -2 15.333 -2 36 0s45.834 4.66699 75.501 8l96.5 10.5
c34.667 3.66699 67.834 6.16699 99.501 7.5s59.834 1.33301 84.501 0s41.667 -5.33301 51 -12c18.667 6.66699 39.334 14.667 62.001 24s43.834 20.666 63.501 33.999s36.167 29 49.5 47s20.666 39 21.999 63zM493.992 664.997c10 -6 18.6689 -16.165 26.002 -30.498
s12.833 -30.5 16.5 -48.5s5.5 -37 5.5 -57s-2.33301 -38.333 -7 -55s-11.834 -30.334 -21.501 -41.001s-22.5 -16.334 -38.5 -17.001c-4 0 -7.16699 0.5 -9.5 1.5s-4.5 2 -6.5 3s-4.16699 1.66699 -6.5 2s-5.83301 -0.5 -10.5 -2.5c-4 -2 -10 -4.5 -18 -7.5
s-16.167 -5.83301 -24.5 -8.5s-16.5 -4.5 -24.5 -5.5s-14.333 -0.833008 -19 0.5c-10 3.33301 -17.333 15.333 -22 36s-7.83398 43.834 -9.50098 69.501s-2 50.167 -1 73.5s2.5 39.666 4.5 48.999c0.666992 4 2.5 8.83301 5.5 14.5s6.5 11.167 10.5 16.5l12 15.5
c4 5 7.66699 8.83301 11 11.5c2 9.33301 8.66699 14 20 14c12 0 25 -2 39 -6s27.667 -9 41 -15s22.333 -10.333 27 -13zM588.994 155.999c-3.33301 -10 -5.83594 -20.501 -7.50293 -31.501s-6.16699 -20.5 -13.5 -28.5c-12.667 -14.667 -28.167 -27.167 -46.5 -37.5
s-34.166 -22.5 -47.499 -36.5c-15.333 2 -30.666 2.5 -45.999 1.5s-30.666 -0.833008 -45.999 0.5c-9.33301 13.333 -19.666 25.5 -30.999 36.5s-19 24.5 -23 40.5c-3.33301 14 -5.66602 30.167 -6.99902 48.5s-2 37.166 -2 56.499s0.333008 38.333 1 57
s1.66699 35.334 3 50.001c1.33301 12.667 4.33301 22 9 28s11.334 12.667 20.001 20c8 0 15 -1.33301 21 -4c4 -2 7.33301 -2.66699 10 -2s5.5 1.66699 8.5 3s6.16699 2.5 9.5 3.5s7.66602 1.16699 12.999 0.5l106 -20c14 -9.33301 26.667 -21.166 38 -35.499
s20.166 -30 26.499 -47s10.166 -34.5 11.499 -52.5s-1 -35 -7 -51z" />
    <glyph glyph-name="C" unicode="C" horiz-adv-x="675" 
d="M617 238c-5.33301 -4 -10.8271 -11.3311 -16.4941 -21.998s-11 -22.334 -16 -35.001s-9.33301 -25 -13 -37s-5.83398 -21.333 -6.50098 -28c-35.333 -34.667 -68.333 -57 -99 -67s-58.5 -10.833 -83.5 -2.5s-47 24.166 -66 47.499s-34.167 50.666 -45.5 81.999
s-18.333 65 -21 101s-0.666992 71 6 105c2.66699 12.667 3 25.334 1 38.001l-6 38.5c-2 13 -3.16699 25.833 -3.5 38.5s2.5 25 8.5 37c16 34 33.167 62 51.5 84s38.333 37 60 45s45.667 8.16699 72 0.5s55.833 -23.834 88.5 -48.501
c0.666992 -7.33301 2.83398 -14 6.50098 -20s7.83398 -11.833 12.501 -17.5s9.5 -11.167 14.5 -16.5s9.16699 -11 12.5 -17c3.33301 -5.33301 5 -11.333 5 -18c0 -6 1.66699 -11.667 5 -17c11.333 -20 20.666 -28.833 27.999 -26.5s13.166 11 17.499 26s7 34.167 8 57.5
s0.666992 46.5 -1 69.5s-4.33398 43.667 -8.00098 62s-8.5 29.5 -14.5 33.5h-18c-6 -4.66699 -12.167 -10.667 -18.5 -18s-12.166 -15.333 -17.499 -24s-10.5 -17.5 -15.5 -26.5s-9.16699 -16.833 -12.5 -23.5c-16.667 13.333 -32 27.166 -46 41.499
s-28.333 27.166 -43 38.499s-30.834 20.333 -48.501 27s-38.834 9.33398 -63.501 8.00098c-6 -4 -15.667 -9.5 -29 -16.5s-28.333 -15.5 -45 -25.5s-33.667 -21.5 -51 -34.5s-32.333 -27.167 -45 -42.5c-21.333 -25.333 -38.833 -48.833 -52.5 -70.5
s-24.334 -44.667 -32.001 -69s-12 -51.166 -13 -80.499s1.16699 -63.666 6.5 -102.999c4 -34.667 13.167 -67.834 27.5 -99.501s32.166 -61.167 53.499 -88.5s45.333 -52.333 72 -75s55 -42 85 -58c6.66699 -4 16.167 -5.5 28.5 -4.5s25.333 2.83301 39 5.5
s26.667 5.66699 39 9l30.5 8c23.333 4.66699 40 8.66699 50 12s17.833 7.33301 23.5 12s11.667 11.334 18 20.001s17.5 21 33.5 37l4 -2c11.333 0.666992 21.333 8 30 22s15 29.833 19 47.5s5.66699 34.5 5 50.5s-4.33398 26 -11.001 30z" />
    <glyph glyph-name="D" unicode="D" horiz-adv-x="809" 
d="M789 446l-36.498 73.5068c-11.667 22.333 -24 43.666 -37 63.999s-26.833 40.5 -41.5 60.5s-31.334 41 -50.001 63l-76.5 23c-23 6.66699 -48.833 8.33398 -77.5 5.00098c-4.66699 4 -15.334 7.5 -32.001 10.5s-36.5 5.16699 -59.5 6.5s-47.833 2.16602 -74.5 2.49902
s-52 0.166016 -76 -0.500977s-45 -1.83398 -63 -3.50098s-30.333 -3.83398 -37 -6.50098c-6 2 -13.167 3.33301 -21.5 4s-16.166 0.166992 -23.499 -1.5s-13.666 -4.83398 -18.999 -9.50098s-8.33301 -11.667 -9 -21c11.333 -21.333 20.666 -34.5 27.999 -39.5s14 -7 20 -6
s12 2.33301 18 4s13.333 -0.833008 22 -7.5c12 -9.33301 21.167 -27.666 27.5 -54.999s10.5 -59.333 12.5 -96s2.33301 -75.834 1 -117.501s-3.33301 -81.834 -6 -120.501s-5.83398 -73.5 -9.50098 -104.5s-7.16699 -53.833 -10.5 -68.5
c-3.33301 -18.667 -9.83301 -30.5 -19.5 -35.5s-19.5 -8 -29.5 -9s-19.167 -2.66699 -27.5 -5s-13.166 -10.166 -14.499 -23.499c-1.33301 -12.667 8 -22 28 -28s45.667 -10.167 77 -12.5s65.833 -2.83301 103.5 -1.5s74 3.5 109 6.5s66.333 6.16699 94 9.5
s46.5 6.33301 56.5 9c21.333 -6.66699 43.666 -3.33398 66.999 9.99902s46 32.833 68 58.5s42.167 55.167 60.5 88.5s33.5 67.166 45.5 101.499s19.5 66.833 22.5 97.5s-0.166992 55.667 -9.5 75zM625.002 196.007c-6 -8.66699 -11.667 -18 -17 -28l-15.5 -30
c-5 -10 -10.667 -19.667 -17 -29s-13.5 -17.333 -21.5 -24l-21 -18.5c-7.33301 -6.33301 -13.333 -13.833 -18 -22.5c-15.333 -3.33301 -29.333 -4.83301 -42 -4.5s-26.667 1.16602 -42 2.49902c-9.33301 9.33301 -18.333 13.833 -27 13.5s-18.667 -2.83301 -30 -7.5
c-10.667 6.66699 -21.167 14 -31.5 22s-16.166 18.667 -17.499 32l-15 200c6 20.667 9.66699 40.5 11 59.5s1.33301 39.167 0 60.5c0 10 -1.16699 20.667 -3.5 32s-4.5 22.666 -6.5 33.999s-3.66699 22.5 -5 33.5s-1.33301 21.5 0 31.5
c1.33301 12 3.66602 25.833 6.99902 41.5s7.33301 29.167 12 40.5s12.334 19.333 23.001 24s20.667 10.334 30 17.001c2.66699 -2 11.5 -4 26.5 -6s31.667 -3.5 50 -4.5s35.5 -1.83301 51.5 -2.5s26.333 -0.666992 31 0c10.667 -5.33301 19.667 -11.666 27 -18.999
c2.66699 -11.333 6.66699 -21.5 12 -30.5s11 -18 17 -27l17.5 -27.5c5.66699 -9.33301 9.5 -19.333 11.5 -30c2.66699 -4 5.16699 -14.333 7.5 -31s4 -36.667 5 -60s1.66699 -48.333 2 -75s0.166016 -51.667 -0.500977 -75s-2 -43.5 -4 -60.5s-4.33301 -27.5 -7 -31.5z" />
    <glyph glyph-name="E" unicode="E" horiz-adv-x="749" 
d="M687 472c0.666992 3.33301 1.16895 11.4971 1.50195 24.4971s0.166016 28.333 -0.500977 46s-1.5 36.5 -2.5 56.5s-2.16699 38.667 -3.5 56s-3 31.833 -5 43.5s-3.66699 18.5 -5 20.5c-12.667 12 -23.5 19.333 -32.5 22s-17.667 3 -26 1s-16.833 -4.66699 -25.5 -8
s-19 -4.66602 -31 -3.99902c-6.66699 0 -13.334 1.16699 -20.001 3.5s-13.334 4.83301 -20.001 7.5s-13.334 4.66699 -20.001 6s-13.667 1 -21 -1c-17.333 -4.66699 -34.166 -8.83398 -50.499 -12.501s-32.333 -5.66699 -48 -6s-31.334 1.33398 -47.001 5.00098
s-31.167 10.5 -46.5 20.5c-8 -1.33301 -19.333 -2 -34 -2h-48c-17.333 0 -35.166 -0.333008 -53.499 -1s-35 -2.5 -50 -5.5s-27.333 -7.66699 -37 -14s-14.5 -15.166 -14.5 -26.499c0 -19.333 3.16699 -31.166 9.5 -35.499s13.833 -6.5 22.5 -6.5
c9.33301 0 19.333 0.166992 30 0.5s20 -3.83398 28 -12.501c8 -9.33301 14.833 -29 20.5 -59s10.167 -65 13.5 -105s5.16602 -82.333 5.49902 -127s-0.5 -86.5 -2.5 -125.5s-5.16699 -72.333 -9.5 -100s-9.83301 -44.5 -16.5 -50.5s-13.834 -9.83301 -21.501 -11.5l-24 -5
c-8.33301 -1.66699 -16.666 -4.33398 -24.999 -8.00098s-16.5 -10.167 -24.5 -19.5c-1.33301 -14 3.83398 -23.667 15.501 -29s25.334 -7.66602 41.001 -6.99902s31.5 3.16699 47.5 7.5s27.667 9.5 35 15.5c12.667 -3.33301 29.334 -6.66602 50.001 -9.99902
s42.167 -5.83301 64.5 -7.5s43.333 -1.5 63 0.5s34.834 7 45.501 15l23 -9c8.66699 1.33301 20.167 2.33301 34.5 3s29.166 1 44.499 1c16 0 31.5 -0.166992 46.5 -0.5s27.167 -0.833008 36.5 -1.5c6 -0.666992 11 -3 15 -7l12.5 -12
c4.33301 -4 9.66602 -7.16699 15.999 -9.5s14.833 -2.16602 25.5 0.500977c2.66699 6.66699 7.16699 18.834 13.5 36.501s12.5 37.667 18.5 60s11.167 45.333 15.5 69s5.83301 44.667 4.5 63s-6.5 32.333 -15.5 42s-23.167 12.167 -42.5 7.5l-26 -48.5
c-8 -15 -16.167 -29.333 -24.5 -43s-17.5 -27.334 -27.5 -41.001s-21.333 -27.5 -34 -41.5l-22.5 -6.5c-8.33301 -2.33301 -16.666 -5.16602 -24.999 -8.49902s-16.333 -7 -24 -11s-14.167 -8 -19.5 -12c-6.66699 1.33301 -15.167 1.66602 -25.5 0.999023l-31 -2
c-10.333 -0.666992 -20.166 -0.5 -29.499 0.5s-16.333 3.83301 -21 8.5c-9.33301 8.66699 -17.833 23.667 -25.5 45s-14 44.666 -19 69.999s-8 50.666 -9 75.999s0.666992 47.166 5 65.499s11.833 30.833 22.5 37.5s25 4 43 -8h27c2.66699 -3.33301 8.16699 -9 16.5 -17
l27 -25l26.5 -23.5c8 -7 13.667 -11.5 17 -13.5l26 4c0.666992 12 0.5 23.667 -0.5 35s-2.33301 22.333 -4 33s-3.16699 21.334 -4.5 32.001s-2 21.667 -2 33c0.666992 10 2.66699 22.833 6 38.5s6 31.5 8 47.5s2.33301 31 1 45s-7 24.333 -17 31
c-9.33301 6.66699 -16.833 5.16699 -22.5 -4.5s-10.334 -22 -14.001 -37s-7 -29.833 -10 -44.5s-6.83301 -23.667 -11.5 -27c-6 -4 -15 -9.66699 -27 -17s-24.333 -13.333 -37 -18s-24.334 -6.5 -35.001 -5.5s-17 7.5 -19 19.5c-9.33301 48 -14.666 88.667 -15.999 122
s5.16699 59.166 19.5 77.499s38.333 29.333 72 33s80.5 0.166992 140.5 -10.5c13.333 -17.333 27.5 -34 42.5 -50s29.167 -32.667 42.5 -50c4 -5.33301 7.16699 -11.666 9.5 -18.999l7 -22c2.33301 -7.33301 5 -14.666 8 -21.999s7.16699 -14 12.5 -20
c1.33301 -1.33301 3.33301 -2.83301 6 -4.5s5.5 -3 8.5 -4s5.66699 -1 8 0s4.16602 3.16699 5.49902 6.5z" />
    <glyph glyph-name="F" unicode="F" horiz-adv-x="753" 
d="M707 738c-2.66699 1.33301 -10.6768 2.49121 -24.0098 3.49121s-29.333 1.66699 -48 2s-39 0.5 -61 0.5c-21.333 0 -41.5 -0.166992 -60.5 -0.5s-35.5 -1 -49.5 -2s-22.333 -2.16699 -25 -3.5c-9.33301 2.66699 -22.5 4.83398 -39.5 6.50098
s-36.167 2.83398 -57.5 3.50098s-44 1 -68 1h-70c-22 0 -42.667 0.166992 -62 0.5s-35 1.16602 -47 2.49902c-9.33301 -4.66699 -17 -12.5 -23 -23.5s-7.33301 -21.833 -4 -32.5c2.66699 -9.33301 9.33398 -15.666 20.001 -18.999s22.5 -5.66602 35.5 -6.99902
s25.833 -2.33301 38.5 -3s22.667 -2.66699 30 -6c14.667 -7.33301 23.834 -22 27.501 -44s4.83398 -46.333 3.50098 -73s-3.66602 -52.667 -6.99902 -78s-4.66602 -45 -3.99902 -59c0.666992 -17.333 0.166992 -34.166 -1.5 -50.499l-5 -49
c-1.66699 -16.333 -2.66699 -32.666 -3 -48.999s1.5 -32.833 5.5 -49.5c2 -8 3.33301 -16.667 4 -26s-0.666016 -18 -3.99902 -26c-8.66699 -24.667 -19 -41 -31 -49s-24.5 -12.833 -37.5 -14.5s-25.833 -2.5 -38.5 -2.5c-12 0 -22.667 -4.33301 -32 -13
c-14 -12.667 -21 -23.667 -21 -33s4.66699 -17.166 14 -23.499s22.166 -11 38.499 -14s33.833 -4.5 52.5 -4.5s37.334 1.66699 56.001 5s35 8.33301 49 15c11.333 -2 20.833 -4 28.5 -6s17.167 -0.666992 28.5 4c6 -2 15.333 -4 28 -6s26.5 -3.5 41.5 -4.5
s30.167 -1.16699 45.5 -0.5s28.833 2.66699 40.5 6s20.834 8.5 27.501 15.5s8.33398 16.5 5.00098 28.5l-30 29c-25.333 -1.33301 -46.166 4.33398 -62.499 17.001s-29 29 -38 49s-14.667 41.833 -17 65.5s-2.5 46 -0.5 67s6 39.167 12 54.5s12.667 24.333 20 27
c21.333 7.33301 38.5 6.83301 51.5 -1.5s23.5 -20.5 31.5 -36.5s14.667 -33.833 20 -53.5s11 -37.5 17 -53.5s13.333 -27.833 22 -35.5s20.667 -7.16699 36 1.5c-2 10.667 -3 25.667 -3 45c0 20 0.166992 41.667 0.5 65l1 72c0.333008 24.667 -0.166992 47.5 -1.5 68.5
s-4 38.833 -8 53.5s-10 23.334 -18 26.001c-7.33301 2.66699 -12.833 3 -16.5 1s-6.83398 -5 -9.50098 -9s-5.16699 -8.33301 -7.5 -13s-5.5 -8.66699 -9.5 -12c-7.33301 -21.333 -18 -36.333 -32 -45s-28 -12.834 -42 -12.501s-26.667 4.5 -38 12.5s-18 18.333 -20 31
c-1.33301 6.66699 -1.33301 19.334 0 38.001s3.5 38.334 6.5 59.001s6.5 40 10.5 58s7.66699 29.667 11 35c7.33301 11.333 16 20 26 26s20.5 10.333 31.5 13s22.333 4.16699 34 4.5s23.5 0.5 35.5 0.5c6.66699 -7.33301 15 -14.666 25 -21.999l31 -22.5l32 -23l29 -21.5
c4.66699 -4 10.5 -11.833 17.5 -23.5l21.5 -36.5l20 -34c6 -10 10.667 -14.667 14 -14c7.33301 1.33301 13.333 7.5 18 18.5s8 24.5 10 40.5s2.83301 33.167 2.5 51.5s-1.66602 35.666 -3.99902 51.999s-5.66602 30.5 -9.99902 42.5s-9.5 19.667 -15.5 23z" />
    <glyph glyph-name="G" unicode="G" horiz-adv-x="774" 
d="M787 350c-4 7.33301 -12.5039 12.5049 -25.5039 15.5049s-27.167 4.5 -42.5 4.5c-14.667 0 -29.167 -0.833008 -43.5 -2.5s-25.166 -3.83398 -32.499 -6.50098c-17.333 6.66699 -29.333 10.334 -36 11.001s-11.667 -0.333008 -15 -3l-12 -10c-4.66699 -4 -14 -7 -28 -9
c-4.66699 2.66699 -11.334 4.83398 -20.001 6.50098s-17 2 -25 1s-14.667 -3.66699 -20 -8s-7.33301 -10.833 -6 -19.5c4.66699 -5.33301 10.834 -11.833 18.501 -19.5s15.167 -16 22.5 -25s13.833 -17.833 19.5 -26.5s9.16699 -16.334 10.5 -23.001
c1.33301 -8 2 -18.667 2 -32c0 -12.667 -0.833008 -26.5 -2.5 -41.5s-4.33398 -29.833 -8.00098 -44.5s-8.66699 -27.334 -15 -38.001s-14.166 -18.334 -23.499 -23.001s-20 -4.33398 -32 0.999023c-4 -3.33301 -12.667 -5.83301 -26 -7.5s-27.833 -2.16699 -43.5 -1.5
s-30.5 2 -44.5 4s-23.333 5 -28 9c-18 14 -33.167 34.667 -45.5 62s-21.666 58.166 -27.999 92.499s-10 70.833 -11 109.5s0.666992 76.5 5 113.5s11.333 72 21 105s21.667 60.667 36 83s30.833 38.166 49.5 47.499s39.667 9 63 -1c14.667 10.667 29.834 13.167 45.501 7.5
s31 -15.667 46 -30s29.333 -31.666 43 -51.999s26 -39.666 37 -57.999l28.5 -48c8 -13.667 13.667 -21.167 17 -22.5c6 3.33301 11.667 12.166 17 26.499s9.83301 31.5 13.5 51.5s6.33398 41 8.00098 63s1.83398 42.667 0.500977 62s-4.5 35.5 -9.5 48.5
s-12.167 20.167 -21.5 21.5c-34.667 -17.333 -60.334 -27.833 -77.001 -31.5s-29.334 -3.5 -38.001 0.5s-16.167 10.167 -22.5 18.5s-16.166 15.333 -29.499 21s-32.833 8.33398 -58.5 8.00098s-62.5 -6.5 -110.5 -18.5c-11.333 -2.66699 -20.666 -8.83398 -27.999 -18.501
s-15.333 -17.167 -24 -22.5c-27.333 -16.667 -49.666 -33 -66.999 -49s-31.333 -33.167 -42 -51.5s-19 -38.666 -25 -60.999s-12 -47.833 -18 -76.5c-2 -8 -4.66699 -15.667 -8 -23s-7 -14.833 -11 -22.5s-7.5 -15.5 -10.5 -23.5s-4.83301 -17 -5.5 -27
c-1.33301 -18 -0.666016 -37.667 2.00098 -59s7 -42.833 13 -64.5s13.833 -42.167 23.5 -61.5s21.167 -35.333 34.5 -48c24 -24 42.167 -42.667 54.5 -56l29.5 -31.5c7.33301 -7.66699 13.666 -13.5 18.999 -17.5s13.166 -8.33301 23.499 -13s24.833 -10.834 43.5 -18.501
s44.667 -19.167 78 -34.5c10 4.66699 22.167 7.33398 36.5 8.00098s28.166 2 41.499 4s25.5 5.66699 36.5 11s18.167 15 21.5 29c5.33301 0 10 1.83301 14 5.5s7.83301 7.66699 11.5 12s7.5 8 11.5 11s9 4.16699 15 3.5
c4.66699 -0.666992 5.33398 -1.33398 2.00098 -2.00098s-7.66602 -1 -12.999 -1c-4.66699 0 -8.66699 0.166992 -12 0.5s-2.33301 1.16602 3 2.49902c1.33301 -14 5.5 -25 12.5 -33s15.167 -13.667 24.5 -17s19.166 -4.33301 29.499 -3s19.166 5 26.499 11
s12.5 13.833 15.5 23.5s1.83301 21.167 -3.5 34.5c4 8 6.66699 17.833 8 29.5s2.33301 23.834 3 36.501l2 38c0.666992 12.667 2.66699 24 6 34c-7.33301 27.333 -7.83301 46.833 -1.5 58.5s15.5 19.667 27.5 24s25 7.16602 39 8.49902s25.333 5.33301 34 12
c7.33301 5.33301 10.833 12.5 10.5 21.5s-2.5 17.167 -6.5 24.5z" />
    <glyph glyph-name="H" unicode="H" horiz-adv-x="827" 
d="M827 36c-0.666992 11.333 -5.50488 19.4902 -14.5049 24.4902s-19.5 11.667 -31.5 20s-24.167 20.833 -36.5 37.5s-21.5 42.334 -27.5 77.001c-1.33301 7.33301 -2 19 -2 35c0 16.667 0.166992 35.5 0.5 56.5s1 43.333 2 67s1.83301 46.834 2.5 69.501
s1.16699 43.834 1.5 63.501s0.166016 35.834 -0.500977 48.501l-2 24c-0.666992 8 0.666016 15.667 3.99902 23c4.66699 10.667 11.167 21.5 19.5 32.5l24.5 33.5c8 11.333 15.167 22.666 21.5 33.999s9.83301 23 10.5 35c0.666992 8.66699 -3.66602 15.334 -12.999 20.001
s-21.5 7.83398 -36.5 9.50098s-31.5 2.33398 -49.5 2.00098s-35.667 -1.16602 -53 -2.49902s-32.833 -2.33301 -46.5 -3s-23.5 -0.666992 -29.5 0c-3.33301 0.666992 -8.5 0.166992 -15.5 -1.5s-14 -4 -21 -7s-13 -6.33301 -18 -10s-6.83301 -7.5 -5.5 -11.5l43.5 -40.5
c14.333 -13.667 27.833 -28.5 40.5 -44.5c5.33301 -7.33301 9.5 -20.5 12.5 -39.5s4.5 -39.5 4.5 -61.5c0 -21.333 -1.33301 -41.666 -4 -60.999s-7 -32.333 -13 -39c-9.33301 -11.333 -21.5 -17.5 -36.5 -18.5s-30.167 -0.5 -45.5 1.5l-42.5 5.5
c-13 1.66699 -22.167 -0.166016 -27.5 -5.49902c-26 -4 -47.167 -0.333008 -63.5 11s-29 26.833 -38 46.5s-14.5 41.334 -16.5 65.001s-1.16699 45.834 2.5 66.501s9.33398 38.167 17.001 52.5s16.834 21.833 27.501 22.5c6.66699 -5.33301 14.834 -7.16602 24.501 -5.49902
s18.5 5.16699 26.5 10.5s14.333 12 19 20s6 16 4 24c-2.66699 11.333 -9.5 19.166 -20.5 23.499s-21.5 6.5 -31.5 6.5c-6 0 -11.167 -1.33301 -15.5 -4s-8.66602 -5.66699 -12.999 -9s-8.66602 -6.5 -12.999 -9.5s-9.5 -4.83301 -15.5 -5.5
c-18 -1.33301 -39.167 0.833984 -63.5 6.50098l-73 17c-24.333 5.66699 -47.333 9.16699 -69 10.5s-39.5 -3 -53.5 -13c-14.667 -11.333 -18.834 -21.333 -12.501 -30s16.833 -16.834 31.5 -24.501s30.167 -15 46.5 -22s27.166 -14.167 32.499 -21.5
c5.33301 -8 10.5 -22.333 15.5 -43s9.33301 -43 13 -67s6.66699 -47.167 9 -69.5s3.83301 -38.833 4.5 -49.5c0 -4 -0.166992 -13.833 -0.5 -29.5s-1.16602 -34 -2.49902 -55s-2.66602 -43.333 -3.99902 -67s-2.83301 -45.667 -4.5 -66s-3 -37.333 -4 -51
s-1.83301 -20.834 -2.5 -21.501c-9.33301 -15.333 -19.166 -26 -29.499 -32s-20.833 -9.83301 -31.5 -11.5s-21 -1.83398 -31 -0.500977s-19 1.5 -27 0.5s-14.333 -3.83301 -19 -8.5s-7 -13.667 -7 -27c0 -9.33301 2.16699 -17.5 6.5 -24.5s10 -13.167 17 -18.5
s14.667 -9.5 23 -12.5s16.5 -5.16699 24.5 -6.5s14.333 -1.33301 19 0l13.5 4c4.33301 1.33301 8.83301 2 13.5 2s11 -2 19 -6l89 23c10 -6.66699 20 -11.167 30 -13.5s20.667 -0.833008 32 4.5c22.667 -6.66699 42.5 -7.5 59.5 -2.5s28.333 11.667 34 20
s4.5 15.833 -3.5 22.5s-25.333 8.33398 -52 5.00098c-10 5.33301 -18.5 15.833 -25.5 31.5s-12.667 33.834 -17 54.501s-7.16602 42.5 -8.49902 65.5s-1 44.833 1 65.5s5.5 38.834 10.5 54.501s11.833 26.5 20.5 32.5c8 5.33301 18.333 9.16602 31 11.499s26 3.5 40 3.5
s27.5 -1.33301 40.5 -4s23.5 -6.33398 31.5 -11.001c7.33301 1.33301 14.666 3.5 21.999 6.5s14.666 5.33301 21.999 7s14.5 2.33398 21.5 2.00098s13.833 -3.5 20.5 -9.5c8.66699 -8 15.167 -20.167 19.5 -36.5s6.83301 -34.833 7.5 -55.5s-0.666016 -42.5 -3.99902 -65.5
s-8 -44.667 -14 -65s-13.5 -38.5 -22.5 -54.5s-19.167 -27.333 -30.5 -34c-21.333 2 -37 1.5 -47 -1.5s-15.667 -7.33301 -17 -13s0.666992 -11.667 6 -18s12.5 -11.666 21.5 -15.999s19.167 -6.83301 30.5 -7.5s22 2 32 8c15.333 -4.66699 29 -5.5 41 -2.5
s25.333 7.16699 40 12.5c12 -2.66699 24.5 -4.33398 37.5 -5.00098s26.333 -0.833984 40 -0.500977s27.167 1 40.5 2s26 1.5 38 1.5z" />
    <glyph glyph-name="I" unicode="I" horiz-adv-x="424" 
d="M391 743c-4.66699 4 -12.1719 6.49512 -22.5049 7.49512s-21.833 1.5 -34.5 1.5c-12 0 -24 0.166992 -36 0.5s-22 1.5 -30 3.5c-6 -2 -18.833 -3.83301 -38.5 -5.5s-40.667 -2.66699 -63 -3s-43 -0.166016 -62 0.500977s-30.833 2 -35.5 4
c-19.333 -10 -30.333 -20.333 -33 -31s-0.5 -20.334 6.5 -29.001s17.333 -15.667 31 -21s27.5 -8 41.5 -8c5.33301 -5.33301 11.5 -10.333 18.5 -15s13.167 -9.66699 18.5 -15c0.666992 -18.667 2.33398 -43.167 5.00098 -73.5s5.16699 -63.333 7.5 -99
s4.16602 -72.834 5.49902 -111.501s1 -75.167 -1 -109.5s-5.83301 -65.166 -11.5 -92.499s-14.167 -48 -25.5 -62c-11.333 0.666992 -22 -2.16602 -32 -8.49902s-21 -9.83301 -33 -10.5c-4.66699 -7.33301 -7.66699 -15.833 -9 -25.5s1.66699 -17.834 9 -24.501
c10 -1.33301 21.167 -3 33.5 -5s24.5 -3.5 36.5 -4.5s23.667 -0.5 35 1.5s21.333 6.33301 30 13c12.667 -3.33301 24.334 -5.66602 35.001 -6.99902s21.167 -2.16602 31.5 -2.49902s21 -0.333008 32 0s23.167 0.5 36.5 0.5c8.66699 0 16.334 2.5 23.001 7.5
s11.334 10.833 14.001 17.5s2.83398 13.334 0.500977 20.001s-7.83301 12 -16.5 16l-22 -8c-15.333 7.33301 -27 19.833 -35 37.5s-13.5 38.167 -16.5 61.5s-4 48.333 -3 75s2.83301 52.834 5.5 78.501s5.5 49.5 8.5 71.5s4.83301 39.667 5.5 53
c0.666992 11.333 0.333984 26.333 -0.999023 45s-2.33301 37.834 -3 57.501s-0.333984 38 0.999023 55s5 29.833 11 38.5c3.33301 4.66699 9 9.33398 17 14.001s16.833 9.5 26.5 14.5s18.834 10.167 27.501 15.5s15.5 11.166 20.5 17.499s7.16699 13 6.5 20
s-6 14.833 -16 23.5z" />
    <glyph glyph-name="J" unicode="J" horiz-adv-x="640" 
d="M626 733c-2 9.33301 -9.66504 14.502 -22.998 15.502s-28.333 0.333008 -45 -2s-32.5 -5.33301 -47.5 -9s-25.5 -5.5 -31.5 -5.5c-5.33301 0 -10.333 1 -15 3s-9.16699 4.33301 -13.5 7s-8.66602 5 -12.999 7s-8.83301 2.66699 -13.5 2
c-18.667 -2 -37.834 -5.83301 -57.501 -11.5s-38.5 -10.834 -56.5 -15.501c-19.333 8.66699 -35.5 12.334 -48.5 11.001s-22.5 -5 -28.5 -11s-8.5 -13 -7.5 -21s5.16699 -14.333 12.5 -19c8.66699 -6 18.5 -9.83301 29.5 -11.5s22 -3.5 33 -5.5s21.5 -5 31.5 -9
s19 -11 27 -21c2.66699 -4 5.66699 -15.667 9 -35s6.33301 -42.833 9 -70.5s5.33398 -57.167 8.00098 -88.5s4.66699 -61 6 -89s2 -52.333 2 -73c0 -20 -0.666992 -32.667 -2 -38c-1.33301 -4 -3.83301 -9.66699 -7.5 -17s-5.83398 -13 -6.50098 -17
c-2 -20.667 -1.16699 -43.167 2.5 -67.5s4.83398 -46.833 3.50098 -67.5c-0.666992 -11.333 -4.33398 -21.166 -11.001 -29.499s-14.834 -15 -24.501 -20s-20.167 -8.66699 -31.5 -11s-21.666 -3.5 -30.999 -3.5c-4.66699 -4 -10.167 -7.5 -16.5 -10.5
s-13 -4.83301 -20 -5.5s-13.833 0.166016 -20.5 2.49902s-12 6.5 -16 12.5c-6.66699 10 -9.83398 23.167 -9.50098 39.5s2.16602 33.5 5.49902 51.5l10.5 54.5c3.66699 18.333 5.16699 35.166 4.5 50.499s-4.5 28 -11.5 38s-19.5 15.667 -37.5 17
c-22 1.33301 -41.667 -3.16699 -59 -13.5s-31 -24.333 -41 -42s-15.333 -38.167 -16 -61.5s5 -46.833 17 -70.5s31.167 -46.667 57.5 -69s61.5 -41.833 105.5 -58.5c8 8 17.833 13.667 29.5 17s23.667 6 36 8s25 4.16699 38 6.5s25.167 6.5 36.5 12.5l21 -11
c6.66699 0.666992 12.5 3.5 17.5 8.5s9.5 10.833 13.5 17.5s8.16699 13.167 12.5 19.5s9.16602 11.166 14.499 14.499c6 11.333 12.667 22.5 20 33.5s14.333 22.167 21 33.5c8.66699 16 13.834 39.167 15.501 69.5s2 64 1 101s-2.33301 75.667 -4 116s-1.5 78 0.5 113
s7 66 15 93s21 45.5 39 55.5c9.33301 5.33301 18.5 9.83301 27.5 13.5s16.5 8 22.5 13s10.167 11.667 12.5 20s1.83301 19.5 -1.5 33.5z" />
    <glyph glyph-name="K" unicode="K" horiz-adv-x="799" 
d="M788 30c0.666992 4.66699 -4.32227 11 -14.9893 19s-22.667 16.5 -36 25.5l-38.5 27c-12.333 9 -20.166 16.5 -23.499 22.5l-19 39l-27.5 56.5l-28 54.5c-9 16.667 -16.167 28 -21.5 34l-17.5 17c-5.66699 5.33301 -11 10.666 -16 15.999s-9.66699 11.166 -14 17.499
s-7.5 13.833 -9.5 22.5c-4.66699 18 -8.5 36.333 -11.5 55s-7.5 36.667 -13.5 54c12.667 17.333 24.5 34.833 35.5 52.5l33.5 53.5h5c16 15.333 31.333 26.833 46 34.5s29.667 18.167 45 31.5c15.333 -0.666992 27 -0.666992 35 0s14.5 3 19.5 7s9.5 10 13.5 18l17 33
c-0.666992 12 -6.33398 20.167 -17.001 24.5s-23.167 6.83301 -37.5 7.5s-29 0.666992 -44 0s-27.5 0.333008 -37.5 3l-21 -9c-22 2.66699 -38.833 5.5 -50.5 8.5s-22.5 4.5 -32.5 4.5c-9.33301 0 -19.833 -1.66699 -31.5 -5s-28.5 -10 -50.5 -20
c-22 7.33301 -43.333 11 -64 11s-40.5 -0.833008 -59.5 -2.5s-37.333 -2.83398 -55 -3.50098s-34.834 2 -51.501 8c-11.333 -3.33301 -25 -4.5 -41 -3.5s-31.5 1.16699 -46.5 0.5s-27.667 -3.5 -38 -8.5s-15.5 -15.5 -15.5 -31.5s4.66699 -25.667 14 -29
s20 -5.66602 32 -6.99902s24 -5.16602 36 -11.499s20.667 -20.5 26 -42.5c2 -8.66699 4 -26.834 6 -54.501s3.5 -60.167 4.5 -97.5s2 -76.666 3 -117.999s1.66699 -79.5 2 -114.5s0.166016 -64.167 -0.500977 -87.5s-1.33398 -35.666 -2.00098 -36.999
c-9.33301 -12.667 -19 -22.167 -29 -28.5s-20 -11.666 -30 -15.999s-19.833 -9 -29.5 -14s-18.5 -12.5 -26.5 -22.5l21 -27c11.333 -3.33301 22.666 -2.5 33.999 2.5s21.666 9.16699 30.999 12.5c6 2 15.167 2.33301 27.5 1s26.166 -3.16602 41.499 -5.49902l47 -7
c16 -2.33301 30.667 -3.16602 44 -2.49902s24.5 3.5 33.5 8.5s13.833 13.5 14.5 25.5c0 2.66699 -3.16699 8 -9.5 16s-13.333 18.167 -21 30.5s-14.5 27 -20.5 44s-8.66699 36.333 -8 58s6.16699 45.667 16.5 72s28.166 54.833 53.499 85.5l16 -3l30.5 -39.5
c12.333 -15.667 24.5 -32 36.5 -49s22.833 -33.5 32.5 -49.5s16.167 -30 19.5 -42c5.33301 -19.333 10.333 -32.666 15 -39.999s7.5 -13.333 8.5 -18s-0.833008 -10.334 -5.5 -17.001l-27 -37c-4.66699 -6.66699 -3.83398 -12.167 2.49902 -16.5
s14.666 -7.83301 24.999 -10.5s20.666 -4.33398 30.999 -5.00098s17.5 -0.333984 21.5 0.999023l19 -5c15.333 8 28.166 10.833 38.499 8.5s20.5 -5.33301 30.5 -9s20.667 -5.83398 32 -6.50098s25.333 4.66602 42 15.999c5.33301 -3.33301 11 -6 17 -8
s11.667 -2.66699 17 -2s9.83301 2.83398 13.5 6.50098s6.16699 9.5 7.5 17.5zM514.011 614c-12 -12 -19.8301 -21.666 -23.4971 -28.999s-6 -14 -7 -20s-2.16699 -12.333 -3.5 -19s-5 -15.667 -11 -27c-8 0 -16.333 -4.33301 -25 -13s-17.5 -18.334 -26.5 -29.001
s-18.667 -21.167 -29 -31.5s-21.166 -17.5 -32.499 -21.5c-4.66699 -1.33301 -10.834 -3.5 -18.501 -6.5s-13.5 -2.83301 -17.5 0.5c-6.66699 5.33301 -11.834 13.833 -15.501 25.5s-6.5 25 -8.5 40s-2.83301 31 -2.5 48s1.5 33 3.5 48s4.5 28.667 7.5 41
s6.5 21.166 10.5 26.499c5.33301 8 11 13.833 17 17.5s12.167 6.83398 18.5 9.50098l19 8c6.33301 2.66699 12.5 6.66699 18.5 12c11.333 10 23.666 13.5 36.999 10.5s26 -9.5 38 -19.5s22.667 -21.833 32 -35.5s15.666 -25.5 18.999 -35.5z" />
    <glyph glyph-name="L" unicode="L" horiz-adv-x="724" 
d="M692 21c2 2 3.83008 10.8369 5.49707 26.5039s3 34.5 4 56.5s1 45.167 0 69.5s-3.16699 46.166 -6.5 65.499s-8.33301 34.333 -15 45s-15 13 -25 7c-6 -3.33301 -11.667 -13.333 -17 -30s-10.666 -35 -15.999 -55s-10.833 -39 -16.5 -57s-11.5 -30 -17.5 -36
c-7.33301 -6.66699 -18.333 -13 -33 -19s-30.834 -11 -48.501 -15s-35.834 -6.33301 -54.501 -7s-35.834 0.833008 -51.501 4.5s-28.667 10 -39 19s-15.833 21.5 -16.5 37.5l-3 60.5l-4.5 87.5c-1.66699 32 -3.16699 65.167 -4.5 99.5s-2.33301 66.666 -3 96.999
s-0.5 56.833 0.5 79.5s2.83301 38 5.5 46c6 16.667 13.167 27.667 21.5 33s17.666 8.16602 27.999 8.49902s21.166 -0.5 32.499 -2.5s23 -2.33301 35 -1s20.333 6.66602 25 15.999s6.5 19.5 5.5 30.5s-4 21.333 -9 31s-10.833 15.5 -17.5 17.5
c-7.33301 2 -21.666 2.66699 -42.999 2s-42.666 -1 -63.999 -1c-16.667 0 -31.667 0.166992 -45 0.5s-26.666 0.5 -39.999 0.5h-39c-13.333 0 -28.333 -0.333008 -45 -1c-12 -0.666992 -23.5 -0.833984 -34.5 -0.500977s-21.5 0.5 -31.5 0.5s-19.333 -0.666992 -28 -2
s-16.667 -4 -24 -8c-28 -14 -46 -24.667 -54 -32s-7.66699 -13.333 1 -18s25 -9.33398 49 -14.001s54 -11.334 90 -20.001c23.333 -17.333 37.833 -37.166 43.5 -59.499s7.33398 -45.666 5.00098 -69.999s-6.16602 -49 -11.499 -74s-7 -48.5 -5 -70.5
c2 -24.667 4.33301 -48 7 -70s4.33398 -43.833 5.00098 -65.5s-0.333008 -43.667 -3 -66s-8.66699 -45.833 -18 -70.5c-3.33301 -8 -9.16602 -14.667 -17.499 -20s-17.666 -10.166 -27.999 -14.499l-31 -12.5c-10.333 -4 -18.5 -8.66699 -24.5 -14
c-3.33301 -10 -1.83301 -17.333 4.5 -22s15.5 -7.5 27.5 -8.5s25.833 -1.16699 41.5 -0.5l47.5 2c16 0.666992 30.833 0.5 44.5 -0.5s24.167 -3.5 31.5 -7.5c20.667 2.66699 44 3.66699 70 3s53 -1.66699 81 -3l84 -4c28 -1.33301 54.167 -1.5 78.5 -0.5
s46.166 3.5 65.499 7.5s34.333 10.333 45 19z" />
    <glyph glyph-name="M" unicode="M" horiz-adv-x="955" 
d="M934 17c5.33301 10 3 19.4961 -7 28.4961s-22 18.167 -36 27.5s-27.167 19.166 -39.5 29.499s-18.5 21.5 -18.5 33.5c0 42 -0.833008 83.167 -2.5 123.5s-1.5 81.5 0.5 123.5c1.33301 20.667 1.83301 41.334 1.5 62.001s-0.333008 41.5 0 62.5s1.16602 42 2.49902 63
s4.66602 41.5 9.99902 61.5c1.33301 5.33301 6.16602 11.333 14.499 18s17.666 13.334 27.999 20.001l31 20.5c10.333 7 18.166 13.833 23.499 20.5s7.16602 13.334 5.49902 20.001s-9.5 12.667 -23.5 18c-5.33301 2 -15.333 3.33301 -30 4s-31.5 0.666992 -50.5 0
s-38.833 -1.83398 -59.5 -3.50098s-40 -3.5 -58 -5.5s-33.167 -4.33301 -45.5 -7s-19.833 -5.33398 -22.5 -8.00098c-1.33301 -1.33301 -3.5 -6.66602 -6.5 -15.999s-6.16699 -20.333 -9.5 -33l-10.5 -41.5c-3.66699 -15 -6.83398 -29 -9.50098 -42
s-4.83398 -24.167 -6.50098 -33.5s-2.16699 -14.666 -1.5 -15.999l2 -6c-5.33301 -12 -11 -26 -17 -42l-19 -48.5c-6.66699 -16.333 -13.667 -31.833 -21 -46.5s-15 -27 -23 -37l-21 2c-8 8.66699 -16.167 23.167 -24.5 43.5s-16.833 43.333 -25.5 69s-17 52.5 -25 80.5
l-22.5 77.5c-7 23.667 -13.167 43.5 -18.5 59.5s-9.33301 25 -12 27c-2.66699 1.33301 -10.667 3.66602 -24 6.99902s-29.666 6.5 -48.999 9.5s-40.666 5.83301 -63.999 8.5s-46 4.33398 -68 5.00098s-42.167 0 -60.5 -2s-32.5 -6 -42.5 -12s-14.667 -14.167 -14 -24.5
s9.33398 -23.5 26.001 -39.5c3.33301 -4 7.83301 -6.16699 13.5 -6.5s11.834 -0.333008 18.501 0s13 0.5 19 0.5c6.66699 0 12.667 -1.33301 18 -4c10.667 -6 20.334 -14.5 29.001 -25.5s16.5 -23 23.5 -36s13 -26.167 18 -39.5l13.5 -36c-6.66699 -26.667 -11 -51 -13 -73
s-3.33301 -44 -4 -66s-1 -44.667 -1 -68s-1.33301 -49.333 -4 -78c-1.33301 -13.333 -5.33301 -27.5 -12 -42.5s-11.334 -29.5 -14.001 -43.5c-2.66699 -15.333 -8.16699 -27 -16.5 -35s-17.833 -14.333 -28.5 -19s-21.667 -8.33398 -33 -11.001s-21.5 -6.16699 -30.5 -10.5
s-16 -10.5 -21 -18.5s-6.16699 -19.333 -3.5 -34c2 -12.667 9.16699 -21.5 21.5 -26.5s27.833 -7.5 46.5 -7.5s39 1.66699 61 5s43.5 6.83301 64.5 10.5s40.167 6.83398 57.5 9.50098s30.666 3.66699 39.999 3c2 3.33301 0.833008 7.16602 -3.5 11.499
s-9.66602 9 -15.999 14l-19 14.5c-6.33301 4.66699 -10.5 8.66699 -12.5 12c-8.66699 14.667 -15.834 30.5 -21.501 47.5s-7.5 34.167 -5.5 51.5c4 31.333 4.83301 62 2.5 92l-7 88.5c-2.33301 29 -3.66602 57.833 -3.99902 86.5s3.16699 58 10.5 88l27 -7
c13.333 -15.333 25.166 -34.5 35.499 -57.5s19.5 -48.167 27.5 -75.5s15.333 -56 22 -86l19 -87.5l17.5 -81c5.66699 -25.667 11.834 -47.834 18.501 -66.501c5.33301 -16 14.166 -26.5 26.499 -31.5s24.833 -0.166992 37.5 14.5c3.33301 4 5.83301 12.833 7.5 26.5
s2.5 28.167 2.5 43.5c0 16 -0.5 31.333 -1.5 46s-1.83301 25 -2.5 31l13 41c4.66699 15.333 9.66699 30.666 15 45.999s11 30.333 17 45s12 27.334 18 38.001c-2 4 -0.5 11.5 4.5 22.5s11 22.833 18 35.5l21 37c7 12 11.167 21 12.5 27l4 -4l46 22c6 -58.667 9 -116 9 -172
s-2.66699 -113 -8 -171c-2 -19.333 -3.66699 -33.666 -5 -42.999s-3.66602 -17.166 -6.99902 -23.499s-8.66602 -12.666 -15.999 -18.999l-32 -28.5c-4 -4 -7.16699 -8.33301 -9.5 -13s-0.833008 -9.33398 4.5 -14.001c4.66699 -4 14.834 -7.16699 30.501 -9.5
s33.834 -4.16602 54.501 -5.49902s43 -2.16602 67 -2.49902s46.833 -0.166016 68.5 0.500977s40.834 1.66699 57.501 3s28.667 2.66602 36 3.99902z" />
    <glyph glyph-name="N" unicode="N" horiz-adv-x="822" 
d="M829 723c-3.33301 18 -9.49902 28.9971 -18.499 32.9971s-19.5 5.16699 -31.5 3.5s-24.667 -4.16699 -38 -7.5s-26 -3 -38 1c-6 -3.33301 -15.333 -4.83301 -28 -4.5s-26.667 1.16602 -42 2.49902s-30.5 2.33301 -45.5 3s-27.667 0 -38 -2s-17.5 -6.16699 -21.5 -12.5
s-2 -16.166 6 -29.499c7.33301 -12.667 18 -22.334 32 -29.001l41 -19.5c13.333 -6.33301 24.833 -13.666 34.5 -21.999s14.167 -20.166 13.5 -35.499c-4 -58.667 -6.66699 -117.834 -8 -177.501s1 -119.167 7 -178.5c0 -3.33301 -0.833008 -3.66602 -2.5 -0.999023
s-3.5 6.33398 -5.5 11.001l-6 14.5c-2 5 -3.33301 8.16699 -4 9.5l-8.5 20.5c-3.66699 9 -7.66699 18 -12 27s-8.66602 17.5 -12.999 25.5s-8.5 13.333 -12.5 16c-2 1.33301 -8 9 -18 23l-36 50.5l-44.5 63.5l-43.5 64l-33.5 51c-9 14 -13.833 22.333 -14.5 25
c-1.33301 3.33301 -2 10 -2 20s-0.833008 20 -2.5 30s-4.16699 18.667 -7.5 26s-8.33301 10 -15 8l-24 -9c-14 10.667 -28.333 18.167 -43 22.5s-29.5 6.66602 -44.5 6.99902s-29.833 -0.5 -44.5 -2.5s-29 -3.66699 -43 -5c-11.333 -1.33301 -22.833 0 -34.5 4
s-22.5 6.16699 -32.5 6.5s-18.5 -2.66699 -25.5 -9s-10.833 -19.833 -11.5 -40.5c-0.666992 -16.667 1.66602 -28.834 6.99902 -36.501s12.333 -13 21 -16s18.5 -4.66699 29.5 -5s21.833 -1.16602 32.5 -2.49902s20.5 -4.16602 29.5 -8.49902s15.5 -12.166 19.5 -23.499
l22 -60c7.33301 -20.667 12 -41.667 14 -63c1.33301 -15.333 -0.666992 -30.5 -6 -45.5s-7.33301 -30.167 -6 -45.5c0.666992 -8.66699 2.33398 -19.667 5.00098 -33s4.83398 -27.166 6.50098 -41.499s2.66699 -28 3 -41s-1.16699 -22.833 -4.5 -29.5
c-4.66699 -10.667 -8 -18.834 -10 -24.501s-3.33301 -10.834 -4 -15.501s-0.833984 -10 -0.500977 -16s0.5 -14.667 0.5 -26c0.666992 -15.333 -2.5 -27.166 -9.5 -35.499s-15.833 -14.666 -26.5 -18.999s-22.334 -8 -35.001 -11s-24.5 -6.83301 -35.5 -11.5
s-20.167 -11.334 -27.5 -20.001s-11 -21 -11 -37c0 -10 8.33301 -18 25 -24s37.667 -10.333 63 -13s52.666 -3.5 81.999 -2.5s57 3.5 83 7.5s47.833 9.83301 65.5 17.5s27.167 16.834 28.5 27.501s0 18 -4 22s-9.66699 7 -17 9s-15.5 3.83301 -24.5 5.5
s-18 5.16699 -27 10.5s-17.167 13.333 -24.5 24s-12.666 26.334 -15.999 47.001c-1.33301 7.33301 -3 19.666 -5 36.999s-4 37 -6 59s-3.83301 45 -5.5 69s-2.5 46 -2.5 66c0 20.667 1 38 3 52s5.33301 22.333 10 25c7.33301 4 14.833 6.33301 22.5 7s14.834 -2 21.501 -8
c6 -6 16.167 -18.333 30.5 -37s30.5 -40.834 48.5 -66.501l56.5 -82.5l55 -84l44 -71.5c12.333 -21 19.833 -36.167 22.5 -45.5c1.33301 -5.33301 6 -14.666 14 -27.999s17.167 -26 27.5 -38s20.5 -20.667 30.5 -26s18 -2.33301 24 9
c3.33301 7.33301 5.66602 22.666 6.99902 45.999s1.83301 51 1.5 83s-1.33301 66.5 -3 103.5l-5 106l-4.5 90.5l-3 59c0 10 0.5 22 1.5 36s3 28.167 6 42.5s7 28 12 41s10.833 23.167 17.5 30.5c5.33301 6 13.333 11.5 24 16.5s21.167 10.333 31.5 16
s19.166 12.167 26.499 19.5s10 16 8 26z" />
    <glyph glyph-name="O" unicode="O" horiz-adv-x="779" 
d="M719 530c-21.333 40.667 -48.168 75.668 -80.501 105.001s-66.166 58 -101.499 86c-7.33301 5.33301 -17.5 10.333 -30.5 15s-26.833 8.66699 -41.5 12s-29 6 -43 8s-25.667 3 -35 3c-24.667 0 -50.167 -7.16699 -76.5 -21.5s-52 -33.333 -77 -57
s-48.167 -50.667 -69.5 -81s-39.166 -61.166 -53.499 -92.499s-24.166 -62 -29.499 -92s-4.33301 -56.667 3 -80c4.66699 -15.333 7.5 -31.333 8.5 -48s2.33301 -33.334 4 -50.001s4.66699 -33 9 -49s12.166 -30.333 23.499 -43c6 -7.33301 12.833 -13.666 20.5 -18.999
s14.5 -12 20.5 -20c12.667 -17.333 22.5 -31.666 29.5 -42.999s14.833 -20.5 23.5 -27.5s19.5 -11.833 32.5 -14.5s31.833 -4 56.5 -4c34.667 -22.667 68.667 -35.834 102 -39.501s65 0.166016 95 11.499s58.167 28.5 84.5 51.5s49.666 50 69.999 81s37.333 64.5 51 100.5
s23.334 72.167 29.001 108.5s6.66699 71.666 3 105.999s-12.834 65.5 -27.501 93.5zM596.998 282.001c-4 -15.333 -6.83008 -31.333 -8.49707 -48s-3.5 -33.167 -5.5 -49.5s-4.33301 -32.666 -7 -48.999s-7 -31.833 -13 -46.5c-6 -16.667 -13.333 -28.667 -22 -36
s-18.334 -12 -29.001 -14s-22.334 -2.66699 -35.001 -2s-26 0.666992 -40 0c-15.333 -1.33301 -29.833 -3.66602 -43.5 -6.99902s-27.834 -1.33301 -42.501 6c-17.333 8.66699 -32 23 -44 43s-22 43.167 -30 69.5s-14 54.5 -18 84.5s-6.66699 59.5 -8 88.5
s-1.33301 56.167 0 81.5s3.33301 46.333 6 63c2 13.333 5.16699 29 9.5 47s9.33301 36.333 15 55s11.834 36.5 18.501 53.5s13.667 30.833 21 41.5c6 8.66699 14.667 15.167 26 19.5s23.5 7.66602 36.5 9.99902s26.167 4 39.5 5s24.666 2.5 33.999 4.5
c4.66699 0.666992 10 -0.333008 16 -3s12.167 -6 18.5 -10s12.333 -8.33301 18 -13s10.5 -8.33398 14.5 -11.001c14 -10.667 24.667 -27.5 32 -50.5s13 -47.833 17 -74.5s6.83301 -53 8.5 -79s3.5 -47.333 5.5 -64c2 -19.333 5.33301 -38.5 10 -57.5
s4.66699 -38.167 0 -57.5z" />
    <glyph glyph-name="P" unicode="P" horiz-adv-x="768" 
d="M664 432c33.333 31.333 55 61.3311 65 89.998s11.167 55.334 3.5 80.001s-22.167 46.834 -43.5 66.501s-46.5 36.334 -75.5 50.001s-60 23.667 -93 30s-64.833 8.5 -95.5 6.5c-12.667 -1.33301 -23.834 -5 -33.501 -11s-20.167 -10.667 -31.5 -14
c-21.333 7.33301 -37.833 12.666 -49.5 15.999s-22.5 5 -32.5 5c-9.33301 0 -20 -1.16699 -32 -3.5s-28.333 -5.16602 -49 -8.49902c-10 -2 -21.167 -1 -33.5 3s-24.833 7.16699 -37.5 9.5s-25.167 2.5 -37.5 0.5s-23.5 -9.33301 -33.5 -22
c-13.333 -17.333 -19.833 -30.166 -19.5 -38.499s4.66602 -14.666 12.999 -18.999s19.5 -7.66602 33.5 -9.99902s28.167 -5.83301 42.5 -10.5s27.5 -11.5 39.5 -20.5s20 -22.167 24 -39.5c3.33301 -13.333 5.66602 -27.833 6.99902 -43.5s2 -31.834 2 -48.501
c0 -16 -0.166992 -32.167 -0.5 -48.5s0.166992 -31.5 1.5 -45.5c0 -5.33301 -0.166992 -15.833 -0.5 -31.5s-0.833008 -33.834 -1.5 -54.501s-1.66699 -42.5 -3 -65.5s-2.83301 -44.333 -4.5 -64s-3.16699 -36.5 -4.5 -50.5s-2.66602 -22 -3.99902 -24
c-4.66699 -8.66699 -11.667 -16 -21 -22s-19.166 -11.667 -29.499 -17s-20.666 -10.333 -30.999 -15s-18.833 -9.33398 -25.5 -14.001s-10.667 -10 -12 -16s1.66699 -13 9 -21c6 -7.33301 13.333 -12.333 22 -15s17.667 -5 27 -7c6.66699 -1.33301 13.167 -1.33301 19.5 0
s12.5 3 18.5 5s12.167 4.16699 18.5 6.5s12.833 3.83301 19.5 4.5s17.834 0.333984 33.501 -0.999023s33.334 -2.66602 53.001 -3.99902s39.834 -2.16602 60.501 -2.49902s39.5 0.666992 56.5 3s30.833 6.5 41.5 12.5s16 14.667 16 26c-6.66699 4 -14.5 9 -23.5 15
l-27.5 18.5c-9.33301 6.33301 -18 12.833 -26 19.5s-14 13 -18 19c-4 5.33301 -6.33301 11.166 -7 17.499s-0.666992 12.5 0 18.5s1 11.667 1 17c0 6 -1.33301 11.333 -4 16c-18.667 31.333 -27.834 63.166 -27.501 95.499s9.16602 64.166 26.499 95.499
c33.333 -3.33301 65.666 -1.16602 96.999 6.50098s62.333 17.167 93 28.5c7.33301 2.66699 16.833 4.5 28.5 5.5s23.667 2.16699 36 3.5s23.833 3.16602 34.5 5.49902s19 6.16602 25 11.499zM511 427.998c-6.66699 -4 -17 -7.66992 -31 -11.0029
s-28.833 -6.16602 -44.5 -8.49902s-30.834 -4 -45.501 -5s-26 -0.833008 -34 0.5c-2 7.33301 -4.66699 14.5 -8 21.5s-5.66602 14.167 -6.99902 21.5c-5.33301 30 -8.5 60 -9.5 90s2.83301 60 11.5 90l8 24.5c2.66699 8.33301 6.16699 15.833 10.5 22.5s9.83301 12 16.5 16
s15.334 6 26.001 6c7.33301 0 14.5 1.16699 21.5 3.5s14.167 4.5 21.5 6.5c15.333 4 30.833 2 46.5 -6s29.667 -20.167 42 -36.5s22.166 -35.166 29.499 -56.499s10.833 -43 10.5 -65s-5.5 -43.167 -15.5 -63.5s-26.333 -37.166 -49 -50.499z" />
    <glyph glyph-name="Q" unicode="Q" horiz-adv-x="796" 
d="M765 -86c0 4 -3.3291 7.49707 -9.99609 10.4971s-14 5.5 -22 7.5s-16 3.66699 -24 5s-13.667 2.66602 -17 3.99902c-23.333 7.33301 -39.5 19.666 -48.5 36.999s-13.167 37.666 -12.5 60.999c0 16 6.33301 36.667 19 62l43.5 84.5c16.333 31 31.666 64.167 45.999 99.5
s23.666 71.5 27.999 108.5s0.833008 74 -10.5 111s-35 72.5 -71 106.5c-13.333 12.667 -23.333 24.334 -30 35.001s-13.834 21 -21.501 31s-17.667 20.167 -30 30.5s-30.833 21.5 -55.5 33.5c-32.667 16 -67 23.167 -103 21.5s-71.5 -10 -106.5 -25
s-68.5 -35.5 -100.5 -61.5s-60.167 -55.5 -84.5 -88.5s-43.666 -68.167 -57.999 -105.5s-21.5 -75 -21.5 -113c0 -31.333 5.16699 -60.666 15.5 -87.999s23.333 -53.666 39 -78.999s32.667 -49.666 51 -72.999s35.166 -46.333 50.499 -69c18 -26 37 -43.167 57 -51.5
s39.833 -13.166 59.5 -14.499s38.5 -1.66602 56.5 -0.999023s34.333 -3 49 -11c14 -7.33301 23.833 -15.333 29.5 -24s9.83398 -17.5 12.501 -26.5l8 -27.5c2.66699 -9.33301 8 -18 16 -26c9.33301 -10 20.833 -19 34.5 -27s26.167 -17.333 37.5 -28
c11.333 0 27.166 0.666992 47.499 2s40.166 5 59.499 11s35.833 15 49.5 27s19.5 29 17.5 51zM618.004 246.997c0.666992 -3.33301 0.000976562 -10.998 -1.99902 -22.998s-4.33301 -24.667 -7 -38s-5.66699 -25.166 -9 -35.499s-6 -15.833 -8 -16.5
c-9.33301 -2 -18.166 -0.666992 -26.499 4s-16.333 10.167 -24 16.5s-15.334 12.166 -23.001 17.499s-14.834 8 -21.501 8c-12.667 7.33301 -29.167 11.166 -49.5 11.499s-40.666 -2 -60.999 -7s-39 -12.5 -56 -22.5s-28.167 -21.333 -33.5 -34
c-9.33301 10 -17.5 26.5 -24.5 49.5s-12.833 49 -17.5 78s-7.83398 59.667 -9.50098 92s-1.66699 63.5 0 93.5s5 57.167 10 81.5s12.167 42.833 21.5 55.5c11.333 16 25 32.333 41 49s33.5 30.667 52.5 42s38.833 18.666 59.5 21.999s41.667 -0.333984 63 -11.001
c38 -18.667 64.667 -43 80 -73s24.833 -62.667 28.5 -98s4.33398 -71.666 2.00098 -108.999s-2.16602 -73 0.500977 -107c1.33301 -8.66699 3.66602 -16.5 6.99902 -23.5s5.66602 -14.5 6.99902 -22.5zM480.005 30.999c-2 -3.33301 -4.66504 -6.33203 -7.99805 -8.99902
l-10 -8c-7.33301 1.33301 -17.5 5.83301 -30.5 13.5s-26.5 16.334 -40.5 26.001l-40 28.5c-12.667 9.33301 -22 16.666 -28 21.999c1.33301 5.33301 7.16602 11.5 17.499 18.5s22 13.833 35 20.5s25.5 12.167 37.5 16.5s20 6.5 24 6.5c9.33301 0 16.166 -2.5 20.499 -7.5
s9.5 -9.83301 15.5 -14.5c1.33301 -6 3 -14.333 5 -25s3.66699 -21.834 5 -33.501s1.83301 -22.5 1.5 -32.5s-1.83301 -17.333 -4.5 -22z" />
    <glyph glyph-name="R" unicode="R" horiz-adv-x="812" 
d="M783 120l-45.002 -25.0049c-19.333 4.66699 -34.833 17 -46.5 37s-23.167 43.167 -34.5 69.5s-24.166 53.666 -38.499 81.999s-33.833 53.833 -58.5 76.5l-9 11c0 2.66699 6.83301 9.83398 20.5 21.501l46.5 38l49 39.5c15.333 12.667 24.666 21 27.999 25
c7.33301 8.66699 11.833 22.5 13.5 41.5s0.833984 38.5 -2.49902 58.5s-8.83301 38.333 -16.5 55s-17.167 27 -28.5 31c-8 3.33301 -16 5.66602 -24 6.99902s-16.667 3.66602 -26 6.99902c-12 4 -23 7.83301 -33 11.5l-29 11c-9.33301 3.66699 -18.833 7 -28.5 10
s-20.834 5.83301 -33.501 8.5c-11.333 2 -21.833 4.66699 -31.5 8s-19.167 6 -28.5 8s-18.666 2.83301 -27.999 2.5s-19 -2.83301 -29 -7.5c-6 3.33301 -13.5 4.33301 -22.5 3s-16.167 -3.66602 -21.5 -6.99902c-5.33301 1.33301 -16 2.83301 -32 4.5
s-34.167 2.83398 -54.5 3.50098s-41.666 0.833984 -63.999 0.500977s-42.666 -1.5 -60.999 -3.5s-33.5 -5.16699 -45.5 -9.5s-17.667 -10.166 -17 -17.499c0.666992 -12.667 3.33398 -21.667 8.00098 -27s10.334 -9 17.001 -11s14.167 -3.16699 22.5 -3.5
s16.833 -1.66602 25.5 -3.99902s17 -6.83301 25 -13.5s15 -17.334 21 -32.001c6.66699 -15.333 11.834 -35.166 15.501 -59.499s6.33398 -51 8.00098 -80s2.66699 -59.333 3 -91s0.333008 -62.5 0 -92.5s-1 -58.167 -2 -84.5s-1.5 -48.5 -1.5 -66.5
c0 -12.667 -3.16699 -25 -9.5 -37s-14.333 -22.5 -24 -31.5s-20.5 -16 -32.5 -21s-24.333 -7.16699 -37 -6.5l-8 -19c0.666992 -4 3.5 -9 8.5 -15s10.833 -11.667 17.5 -17s13.167 -9.5 19.5 -12.5s11.5 -3.16699 15.5 -0.5c13.333 9.33301 31.166 14.166 53.499 14.499
s45.666 -0.5 69.999 -2.5s48.166 -3.83301 71.499 -5.5s42.333 0.166016 57 5.49902l16 22c0 7.33301 -3.33301 13.166 -10 17.499s-14.334 8.83301 -23.001 13.5s-17.334 10.5 -26.001 17.5s-14.667 16.5 -18 28.5c-3.33301 12.667 -5 30 -5 52
c0 22.667 0.833008 46.334 2.5 71.001s4 48.334 7 71.001l7.5 55c0.666992 0 4 -0.333008 10 -1s13.667 -1.83398 23 -3.50098s17.666 -3.5 24.999 -5.5c13.333 -4 27 -6 41 -6s26.5 -1.83301 37.5 -5.5s20.167 -10.667 27.5 -21s11.333 -27.5 12 -51.5
c0 -19.333 0.666992 -39.666 2 -60.999s3.83301 -42.666 7.5 -63.999s8.83398 -42 15.501 -62s16 -37.667 28 -53c18.667 -6 33 -11.167 43 -15.5s18 -7.66602 24 -9.99902s11.167 -3.66602 15.5 -3.99902s10.166 0.5 17.499 2.5s17 5 29 9s28.667 9 50 15
c4 6 10.167 13.333 18.5 22s15.333 17.667 21 27s8.33398 18.5 8.00098 27.5s-6.83301 17.167 -19.5 24.5zM511.998 426.995c-8 0.666992 -15.6689 0.500977 -23.002 -0.499023s-14.666 -2.5 -21.999 -4.5l-23 -6c-8 -2 -16.667 -3.33301 -26 -4
c-12.667 -1.33301 -24 -1.83301 -34 -1.5s-20.333 0.166016 -31 -0.500977c0.666992 2 0 6 -2 12s-4.33301 12.5 -7 19.5l-7.5 20.5c-2.33301 6.66699 -3.5 12.334 -3.5 17.001c0 5.33301 0.5 10.666 1.5 15.999s1.5 10.666 1.5 15.999
c0 13.333 -2.16699 24.666 -6.5 33.999s-7.83301 19 -10.5 29s-2.5 21.333 0.5 34s12.167 28.667 27.5 48c6.66699 8.66699 14 16.834 22 24.501s17.667 11.5 29 11.5c6 0 11.5 -1 16.5 -3s10.167 -4.66699 15.5 -8c6 -3.33301 12.5 -6 19.5 -8l21 -6
c7 -2 14.167 -4.5 21.5 -7.5s14 -6.83301 20 -11.5c21.333 -16.667 36.333 -34.167 45 -52.5s12.334 -37.166 11.001 -56.499s-7 -38.5 -17 -57.5s-23 -37.167 -39 -54.5z" />
    <glyph glyph-name="S" unicode="S" horiz-adv-x="610" 
d="M581 277c-5.33301 16.667 -12.3379 32.334 -21.0049 47.001s-14.334 30.667 -17.001 48l-73 68c-4.66699 2.66699 -10.334 4 -17.001 4h-22c-8 0 -16.833 0.833008 -26.5 2.5s-20.167 5.5 -31.5 11.5c-4.66699 2.66699 -10.167 4.66699 -16.5 6l-19 4
c-6.33301 1.33301 -12.166 2.66602 -17.499 3.99902s-9.66602 3.33301 -12.999 6c-5.33301 4 -9.33301 9 -12 15s-7.33398 10.667 -14.001 14c-7.33301 3.33301 -14.166 4.83301 -20.499 4.5s-12.666 -0.333008 -18.999 0s-12.5 2.16602 -18.5 5.49902s-11.667 11 -17 23
c-15.333 30.667 -20.833 54.834 -16.5 72.501s14.333 30.834 30 39.501s34.667 13.834 57 15.501s44.5 2.5 66.5 2.5c21.333 -17.333 39 -30.833 53 -40.5s25.667 -20 35 -31s17 -24.667 23 -41s11.667 -39.5 17 -69.5c1.33301 -7.33301 2.16602 -12.666 2.49902 -15.999
s5.16602 -5 14.499 -5c7.33301 0 14.166 6.16699 20.499 18.5s11.666 27.833 15.999 46.5s7.5 39.334 9.5 62.001s2.83301 44.167 2.5 64.5s-1.83301 38.166 -4.5 53.499s-7 25.333 -13 30c-10.667 0 -20.5 -2.66699 -29.5 -8l-27.5 -16
c-9.33301 -5.33301 -19.166 -9.33301 -29.499 -12s-21.833 -1.66699 -34.5 3c-6 2 -10.5 5.5 -13.5 10.5s-5.83301 10.167 -8.5 15.5s-5.5 10.333 -8.5 15s-7.16699 8 -12.5 10c-16 5.33301 -37 5.83301 -63 1.5s-51.667 -11.833 -77 -22.5s-48.333 -23.834 -69 -39.501
s-34 -32.167 -40 -49.5c-1.33301 -3.33301 -3.5 -9.5 -6.5 -18.5l-10 -29l-10 -28.5c-3 -8.66699 -4.5 -13.667 -4.5 -15c-0.666992 -12 0.833008 -26 4.5 -42s8.83398 -32.5 15.501 -49.5s15 -33.333 25 -49s21.167 -29 33.5 -40s25.666 -18.667 39.999 -23
s29.5 -3.5 45.5 2.5c20.667 -6.66699 42.834 -13.334 66.501 -20.001s46.834 -14.167 69.501 -22.5s43.667 -18 63 -29s34.5 -24.333 45.5 -40s16.833 -34.167 17.5 -55.5s-6.33301 -46.333 -21 -75c-37.333 -26.667 -71.5 -42 -102.5 -46s-59 0.666992 -84 14
s-47.167 34.166 -66.5 62.499s-35.333 61.5 -48 99.5c-2 6 -4.33301 14 -7 24s-6 19.333 -10 28s-9.16699 15.5 -15.5 20.5s-14.166 5.5 -23.499 1.5c-6 -2.66699 -11.167 -11.167 -15.5 -25.5s-8 -31.666 -11 -51.999s-5.33301 -42.5 -7 -66.5s-2.66699 -46.833 -3 -68.5
s0 -41 1 -58s2.5 -28.5 4.5 -34.5l5 -17c0.666992 -2.66699 2.33398 -4.83398 5.00098 -6.50098s5.33398 -2.5 8.00098 -2.5c7.33301 0 15.5 3.83301 24.5 11.5s19.333 15.167 31 22.5s25.334 12.666 41.001 15.999s34.167 1 55.5 -7c10 -18 22.167 -30.5 36.5 -37.5
s29.833 -10.333 46.5 -10s33.667 3.66602 51 9.99902s34 14 50 23s30.833 18.667 44.5 29s24.834 19.5 33.501 27.5c1.33301 8.66699 6.16602 20.834 14.499 36.501s16.5 32.834 24.5 51.501s14.333 38 19 58s4.33398 39 -0.999023 57z" />
    <glyph glyph-name="T" unicode="T" horiz-adv-x="704" 
d="M676 710l-16.9922 22.9951c-5.33301 7.33301 -11.333 13 -18 17s-14.334 6 -23.001 6c-8 0 -18 -3.33301 -30 -10c-16 2 -30.5 2.66699 -43.5 2s-25.5 -2 -37.5 -4s-24.167 -3.83301 -36.5 -5.5s-25.5 -2.5 -39.5 -2.5c-39.333 0 -78.833 -0.333008 -118.5 -1
s-79.167 -0.333984 -118.5 0.999023c-3.33301 0 -9 0.666992 -17 2l-24.5 4c-8.33301 1.33301 -16 2.33301 -23 3s-11.5 0.666992 -13.5 0l-35 -16c-7.33301 -3.33301 -12 -10.666 -14 -21.999s-3 -24 -3 -38c0 -13.333 0.666992 -26.5 2 -39.5s2 -22.833 2 -29.5
s-1 -16 -3 -28s-3.5 -24.5 -4.5 -37.5s-1 -25.167 0 -36.5s3.83301 -19 8.5 -23c10 -9.33301 19.5 -9 28.5 1s17.833 24.167 26.5 42.5l27.5 60c9.66699 21.667 20.5 39.5 32.5 53.5s25.5 21.5 40.5 22.5s32.5 -9.83301 52.5 -32.5
c7.33301 -9.33301 13.833 -28.166 19.5 -56.499s10.167 -61.5 13.5 -99.5s5.33301 -78 6 -120s0.333984 -81.167 -0.999023 -117.5s-4 -67.333 -8 -93s-9 -40.5 -15 -44.5c-4 -2.66699 -11.167 -5 -21.5 -7s-21.5 -4 -33.5 -6s-23.833 -4.33301 -35.5 -7
s-21 -6.16699 -28 -10.5s-10.333 -9.66602 -10 -15.999s6.16602 -14.166 17.499 -23.499c24.667 -20 46.667 -30.5 66 -31.5s36.666 1.5 51.999 7.5s28.5 12.167 39.5 18.5s20.5 6.83301 28.5 1.5c5.33301 -3.33301 14.666 -6.5 27.999 -9.5s28.5 -5.33301 45.5 -7
s34.5 -2.5 52.5 -2.5c18.667 0 35.167 1.66699 49.5 5s25.666 8.5 33.999 15.5s11.166 16.5 8.49902 28.5c-3.33301 14 -7.83301 23.333 -13.5 28s-12.334 6.83398 -20.001 6.50098s-15.834 -1.66602 -24.501 -3.99902s-17.334 -3.5 -26.001 -3.5s-17 2.33301 -25 7
s-15 14.334 -21 29.001c-1.33301 3.33301 -2.66602 11.333 -3.99902 24s-2.5 27.667 -3.5 45s-2 36.166 -3 56.499s-1.66699 39.666 -2 57.999s-0.666016 34.666 -0.999023 48.999s-0.5 24.5 -0.5 30.5c0 38.667 -1.66699 78.167 -5 118.5s-2.33301 79.5 3 117.5
c0.666992 6.66699 4.66699 13.667 12 21s15.666 13.5 24.999 18.5s18.5 8.16699 27.5 9.5s15.833 -0.333984 20.5 -5.00098c9.33301 -10.667 18.666 -24.5 27.999 -41.5l27.5 -51.5c9 -17.333 17.833 -33.166 26.5 -47.499s17 -24.5 25 -30.5l17 4
c4 2.66699 7.5 9.33398 10.5 20.001s5.5 23.334 7.5 38.001s3.66699 30.5 5 47.5s2.33301 33.333 3 49s1 29.5 1 41.5c0 12.667 0.333008 22 1 28z" />
    <glyph glyph-name="U" unicode="U" horiz-adv-x="695" 
d="M689 697c0.666992 14 -0.170898 24.0039 -2.50391 30.0039s-6 10.333 -11 13s-11 4.33398 -18 5.00098s-15.167 2 -24.5 4c-8 2 -21 3 -39 3s-36.5 -1.16699 -55.5 -3.5s-37 -6.16602 -54 -11.499s-28.5 -12 -34.5 -20s-5.66699 -16.333 1 -25s15.334 -17.5 26.001 -26.5
l32.5 -28c11 -9.66699 18.167 -19.5 21.5 -29.5c2.66699 -8.66699 4.66699 -25.834 6 -51.501s2.16602 -55.5 2.49902 -89.5s0 -69.833 -1 -107.5s-2.66699 -72.834 -5 -105.501s-5.33301 -60.667 -9 -84s-7.83398 -37.333 -12.501 -42c-14 -13.333 -30 -25.666 -48 -36.999
s-37.333 -17 -58 -17c-27.333 0 -49 6.33301 -65 19s-28.333 29.167 -37 49.5s-14.334 43.166 -17.001 68.499s-4 50.666 -4 75.999c0 26 0.5 50.667 1.5 74s0.833008 43 -0.5 59c-2 28 -5.5 56.333 -10.5 85s-7.5 57 -7.5 85c0 10 2.33301 19.5 7 28.5
s10.667 16.833 18 23.5s15.833 11.834 25.5 15.501s19.167 5.16699 28.5 4.5c8.66699 -1.33301 14.334 -0.5 17.001 2.5s5 8.5 7 16.5c2.66699 9.33301 3.83398 18.333 3.50098 27s-2.16602 15.5 -5.49902 20.5s-8.5 7.16699 -15.5 6.5s-15.833 -6 -26.5 -16
c-3.33301 0 -6.16602 1 -8.49902 3s-4.66602 4.33301 -6.99902 7s-4.66602 5.16699 -6.99902 7.5s-5.16602 3.83301 -8.49902 4.5c-6.66699 -4.66699 -16.667 -7 -30 -7c-12.667 0 -26.667 1 -42 3l-48.5 6.5c-17 2.33301 -32.833 3.66602 -47.5 3.99902s-27.667 -1 -39 -4
s-19.333 -8.83301 -24 -17.5c-11.333 -21.333 -16.833 -37.166 -16.5 -47.499s3.83301 -17.833 10.5 -22.5s15.167 -8.16699 25.5 -10.5s20.166 -6.33301 29.499 -12s16.666 -14.5 21.999 -26.5s6.33301 -30.333 3 -55c-2.66699 -18 -5.16699 -40.833 -7.5 -68.5
s-4.16602 -57.5 -5.49902 -89.5s-1.66602 -65 -0.999023 -99s2.66699 -66.333 6 -97s8.5 -58.167 15.5 -82.5s16.167 -42.833 27.5 -55.5c2.66699 -3.33301 9 -7.66602 19 -12.999s21.667 -11 35 -17s27.666 -12 42.999 -18s29.833 -11.167 43.5 -15.5
s25.667 -7.83301 36 -10.5s17.166 -3.33398 20.499 -2.00098c10.667 4 21.334 6 32.001 6s20.5 -0.5 29.5 -1.5s16.833 -1.83301 23.5 -2.5s11.667 0 15 2c39.333 26 69.5 54.5 90.5 85.5s36 63.833 45 98.5s13.667 70.667 14 108s-0.5 75.166 -2.5 113.499
s-3.5 76.833 -4.5 115.5s1.5 76.667 7.5 114c2 12 5 20.5 9 25.5s8.5 8.16699 13.5 9.5s10.167 1.66602 15.5 0.999023s10.333 -0.333984 15 0.999023s8.5 4.66602 11.5 9.99902s4.83301 14.333 5.5 27z" />
    <glyph glyph-name="V" unicode="V" horiz-adv-x="792" 
d="M782 732c-4.66699 4.66699 -15.333 8.49707 -32 11.4971s-36.334 5.16699 -59.001 6.5s-46.5 1.5 -71.5 0.5s-47.833 -3.5 -68.5 -7.5s-37.834 -9.66699 -51.501 -17s-20.167 -16.333 -19.5 -27c0 -13.333 4 -23 12 -29s17 -11.333 27 -16s19.833 -10.334 29.5 -17.001
s16.5 -17.334 20.5 -32.001c4 -15.333 2.16699 -37.333 -5.5 -66s-17.5 -58.667 -29.5 -90s-24.667 -61.166 -38 -89.499s-23.666 -49.5 -30.999 -63.5l-20 -3c-12 20 -23.333 42.833 -34 68.5s-20.667 52.167 -30 79.5s-17.833 54.333 -25.5 81s-14.5 51.667 -20.5 75
c-2.66699 12 -0.666992 21 6 27s14.834 11.167 24.501 15.5l29 13.5c9.66699 4.66699 15.834 11.334 18.501 20.001c5.33301 16.667 0.5 30.667 -14.5 42s-33.833 20 -56.5 26s-45.667 9.16699 -69 9.5s-40.333 -1.5 -51 -5.5c-8 -3.33301 -19.333 -5 -34 -5h-44
c-14.667 0 -28.167 -0.166992 -40.5 -0.5s-20.166 -2.16602 -23.499 -5.49902c-4.66699 -2 -8.83398 -6.16699 -12.501 -12.5s-5.5 -12.166 -5.5 -17.499c0 -4 1.16699 -9.33301 3.5 -16s5.16602 -13.334 8.49902 -20.001s6.83301 -12.834 10.5 -18.501
s7.16699 -9.5 10.5 -11.5c6.66699 -4 14 -6.83301 22 -8.5s14.667 -4.16699 20 -7.5c3.33301 -2 8.83301 -9 16.5 -21s16.167 -26.5 25.5 -43.5l29.5 -55l28.5 -56c8.66699 -17.667 16 -33.5 22 -47.5s9.33301 -23.333 10 -28c6 -26.667 14.333 -54.167 25 -82.5
s21.667 -55.5 33 -81.5l31 -72.5c9.33301 -22.333 15.333 -40.833 18 -55.5c0.666992 -4.66699 2.5 -12.5 5.5 -23.5s7 -22 12 -33s10.5 -20.167 16.5 -27.5s12.333 -9.33301 19 -6c12.667 6 23.334 21 32.001 45s16.834 50.333 24.501 79s15.667 56 24 82
s18.833 44 31.5 54l25 66l-9 32c8 22 15.667 44.5 23 67.5s15.166 45.667 23.499 68s17.666 44 27.999 65s22.5 41.167 36.5 60.5c3.33301 4.66699 10 9.33398 20 14.001l32.5 15.5c11.667 5.66699 23.5 11.834 35.5 18.501s21.667 13.834 29 21.501s11.333 16 12 25
s-4.33301 18.833 -15 29.5z" />
    <glyph glyph-name="W" unicode="W" horiz-adv-x="1010" 
d="M994 729c-19.333 6 -41.8301 10.9893 -67.4971 14.9893s-51.167 4.66699 -76.5 2s-48.833 -9.16699 -70.5 -19.5s-37.834 -26.833 -48.501 -49.5c-11.333 8 -27 16.333 -47 25s-41.5 16.334 -64.5 23.001s-46.333 11.334 -70 14.001s-45 1.66699 -64 -3
s-34.333 -13.667 -46 -27s-17.167 -33 -16.5 -59l-50 83c-10.667 -1.33301 -26.334 -1.33301 -47.001 0l-67 4.5c-24 1.66699 -48.333 2.66699 -73 3s-46.667 -1.66699 -66 -6s-34.333 -11.666 -45 -21.999s-14.334 -24.833 -11.001 -43.5
c5.33301 -5.33301 10.5 -8.83301 15.5 -10.5s11.167 -3.16699 18.5 -4.5c12.667 -2 25.5 -8.66699 38.5 -20s25.5 -25.5 37.5 -42.5s23.167 -35.833 33.5 -56.5s19.333 -41.167 27 -61.5s14 -39.5 19 -57.5s8.16699 -32.667 9.5 -44
c3.33301 -30.667 9.66602 -60.5 18.999 -89.5s19.5 -57.667 30.5 -86l32 -84.5c10.333 -28 18.166 -56.333 23.499 -85c0.666992 -6.66699 1.66699 -14.667 3 -24s6.66602 -14.333 15.999 -15c6.66699 -0.666992 12.834 3.66602 18.501 12.999s10.834 20.5 15.501 33.5
s9 25.833 13 38.5s7.66699 22.334 11 29.001c5.33301 8.66699 9 18.834 11 30.501s3.5 23.834 4.5 36.501s2.33301 25.167 4 37.5s4.83398 23.833 9.50098 34.5c6 15.333 11.667 30.833 17 46.5s8 31.834 8 48.501c12 8.66699 22.333 19.334 31 32.001s15.667 25.667 21 39
c3.33301 -8 8.16602 -24.5 14.499 -49.5l22 -86c8.33301 -32.333 17.5 -65.666 27.5 -99.999s20.5 -65.333 31.5 -93s22.167 -49.167 33.5 -64.5s22.333 -19.666 33 -12.999c6.66699 4 14.5 18.333 23.5 43s18.333 54.167 28 88.5s19 71 28 110l25 108
c7.66699 33 13.834 60.833 18.501 83.5s7.33398 34.334 8.00098 35.001c18 25.333 32.833 50.833 44.5 76.5s27.5 50.167 47.5 73.5l30 7c4.66699 -1.33301 11.5 2.33398 20.5 11.001s16.5 19 22.5 31s8.66699 24 8 36s-8.33398 20.333 -23.001 25zM817.003 559.989
c-0.666992 -13.333 -2.50391 -29.5039 -5.50391 -48.5039s-6.83301 -38.333 -11.5 -58s-10 -38.5 -16 -56.5s-12.333 -33 -19 -45c-2 -3.33301 -5.16699 -8.16602 -9.5 -14.499s-9.16602 -12 -14.499 -17s-10.833 -8.16699 -16.5 -9.5s-10.5 1 -14.5 7
c-6 8.66699 -10.833 19.334 -14.5 32.001s-6.5 25.834 -8.5 39.501l-6 40.5c-2 13.333 -4.66699 25.666 -8 36.999c-4 12.667 -9 24.834 -15 36.501s-9.66699 24.167 -11 37.5c-1.33301 8.66699 -1.83301 19.334 -1.5 32.001s2 25 5 37s7.83301 22.333 14.5 31s16 13 28 13
c6.66699 0 13.334 -0.833008 20.001 -2.5s13.334 -2.5 20.001 -2.5c34 0 56.833 -6.5 68.5 -19.5s16.834 -36.167 15.501 -69.5zM526.999 452.985c0.666992 -6.66699 -0.165039 -13.832 -2.49805 -21.499s-5.5 -15.334 -9.5 -23.001s-8.33301 -15 -13 -22
s-9.33398 -12.5 -14.001 -16.5l-4 2c-4 -4 -9 -10.333 -15 -19s-12.5 -16.834 -19.5 -24.501s-14.167 -13.5 -21.5 -17.5s-13.666 -3.33301 -18.999 2c-6 6 -12.5 17.833 -19.5 35.5s-13.667 38.334 -20 62.001s-11.833 48.834 -16.5 75.501s-7.83398 51.5 -9.50098 74.5
s-1.5 43.167 0.5 60.5s7 28.333 15 33c2 1.33301 7.33301 2.16602 16 2.49902s18 0.333008 28 0s19.5 -1 28.5 -2s14.833 -1.83301 17.5 -2.5c11.333 -4 21.666 -14.5 30.999 -31.5s17.333 -36 24 -57s12 -42 16 -63s6.33301 -36.833 7 -47.5z" />
    <glyph glyph-name="X" unicode="X" horiz-adv-x="705" 
d="M692 32c-2 8 -6.49512 14.501 -13.4951 19.501s-14.667 9.16699 -23 12.5s-17 6.16602 -26 8.49902s-16.5 5.16602 -22.5 8.49902c-3.33301 2 -6.33301 5.16699 -9 9.5s-5.16699 9.33301 -7.5 15s-4.5 11.167 -6.5 16.5s-4.33301 9.66602 -7 12.999l-116 173
c-6.66699 10 -15.5 20 -26.5 30s-17.167 21.667 -18.5 35c-2.66699 24 -2.5 42.167 0.5 54.5s7.83301 22.666 14.5 30.999s14.5 17 23.5 26s18.167 21.833 27.5 38.5c10 17.333 17.333 31 22 41s9.83398 18.333 15.501 25s12.834 13.167 21.501 19.5s21.667 14.833 39 25.5
l12 10c6 -2 10.667 -3.33301 14 -4s6.33301 -0.5 9 0.5s5.16699 2.66699 7.5 5s5.16602 5.83301 8.49902 10.5c3.33301 4 8.16602 6.66699 14.499 8s12.666 2.83301 18.999 4.5s11.833 4.5 16.5 8.5s7.33398 11 8.00098 21c0.666992 6.66699 -1.5 13.167 -6.5 19.5
s-11 11.5 -18 15.5s-14.5 6.66699 -22.5 8s-15 0.666016 -21 -2.00098c-9.33301 2.66699 -24.5 5.33398 -45.5 8.00098s-42.5 3.66699 -64.5 3s-41.833 -3.66699 -59.5 -9s-27.834 -14.666 -30.501 -27.999c-2 -9.33301 -0.666992 -17.333 4 -24s10.5 -12.834 17.5 -18.501
l21 -17c7 -5.66699 12.167 -12.5 15.5 -20.5c1.33301 -3.33301 0.666016 -9.33301 -2.00098 -18s-6.5 -18.667 -11.5 -30s-10.667 -23.333 -17 -36s-12.5 -24.334 -18.5 -35.001s-11.667 -19.667 -17 -27s-9.33301 -11.333 -12 -12
c-5.33301 -1.33301 -11.833 1.16699 -19.5 7.5s-15.834 14.833 -24.501 25.5s-17.334 22.667 -26.001 36s-16.5 26.5 -23.5 39.5s-12.667 24.833 -17 35.5s-6.5 18.667 -6.5 24l25 36l23 5c6 -6 12.667 -6.5 20 -1.5s13 12 17 21s4.83301 17.667 2.5 26
s-10.833 13.166 -25.5 14.499c-6.66699 0.666992 -14 1 -22 1c-7.33301 0 -13.666 -1.66699 -18.999 -5c-7.33301 0 -18.666 0.166992 -33.999 0.5s-32.5 0.333008 -51.5 0s-38.5 -0.833008 -58.5 -1.5s-38.333 -2.16699 -55 -4.5s-30.5 -5.66602 -41.5 -9.99902
s-16.833 -9.83301 -17.5 -16.5l-4 -39c5.33301 -7.33301 12.833 -12.5 22.5 -15.5s19.5 -5.16699 29.5 -6.5s19.333 -2.66602 28 -3.99902s14.667 -3.66602 18 -6.99902c8.66699 -8.66699 16.167 -19 22.5 -31s12.5 -24.333 18.5 -37l18 -38.5
c6 -13 13.667 -24.833 23 -35.5l53 -62c1.33301 -10.667 2 -21 2 -31c0 -9.33301 4 -18.666 12 -27.999c14.667 -17.333 23 -30.833 25 -40.5s0.5 -18.834 -4.5 -27.501s-11.667 -17.667 -20 -27s-15.166 -22 -20.499 -38c-2.66699 -8 -7 -17 -13 -27
s-12.833 -20.333 -20.5 -31l-22 -32c-7 -10.667 -12.833 -20.334 -17.5 -29.001c-6 -4.66699 -16 -10 -30 -16s-28.167 -12.5 -42.5 -19.5s-27.333 -14 -39 -21s-18.5 -13.5 -20.5 -19.5c-4.66699 -14 -3.16699 -24.5 4.5 -31.5s18.834 -11.833 33.501 -14.5
s31.5 -3.66699 50.5 -3s37.667 1.83398 56 3.50098s35.166 3.66699 50.499 6s26.666 3.83301 33.999 4.5c6 8 6 15 0 21s-13.833 12.5 -23.5 19.5s-19.334 14.833 -29.001 23.5s-14.834 19.334 -15.501 32.001l22 37l6 2l71 119l29 13
c7.33301 -7.33301 13.166 -15.833 17.499 -25.5s7.16602 -19.5 8.49902 -29.5c0.666992 -5.33301 4.5 -13.5 11.5 -24.5l22.5 -35.5c8 -12.667 15.333 -25.834 22 -39.501s10.334 -26.167 11.001 -37.5s-3 -20.5 -11 -27.5s-22.667 -10.5 -44 -10.5
c-12.667 0 -21.5 -2.16699 -26.5 -6.5s-7 -9.33301 -6 -15s4.33301 -11.5 10 -17.5s12.334 -10.5 20.001 -13.5s16 -3.83301 25 -2.5s17.5 6 25.5 14c7.33301 -2.66699 19 -4 35 -4h49c17.333 0 33.666 -0.666992 48.999 -2s26 -5 32 -11
c6 2.66699 14.333 4.33398 25 5.00098s21 1.83398 31 3.50098s18.333 5 25 10s8.66699 13.167 6 24.5z" />
    <glyph glyph-name="Y" unicode="Y" horiz-adv-x="718" 
d="M712 686c2.66699 8.66699 0.827148 16.167 -5.50586 22.5s-14.333 11.5 -24 15.5s-20 6.5 -31 7.5s-19.5 0.5 -25.5 -1.5c-16 10.667 -32.333 16.334 -49 17.001s-33.667 -0.833008 -51 -4.5s-34.666 -8 -51.999 -13s-34.333 -7.83301 -51 -8.5
c-19.333 -1.33301 -37.666 -1.16602 -54.999 0.500977s-37.333 2.83398 -60 3.50098c-18 0.666992 -34.833 2.16699 -50.5 4.5s-30.667 4.16602 -45 5.49902s-29 1.5 -44 0.5s-31.167 -4.5 -48.5 -10.5c-8 -2.66699 -18.167 -4.5 -30.5 -5.5s-23.5 -2.5 -33.5 -4.5
s-17.167 -5.33301 -21.5 -10s-2.5 -12 5.5 -22c16 -20.667 29.667 -33.667 41 -39s21.666 -7.66602 30.999 -6.99902s18 1.5 26 2.5s16.667 -2.16699 26 -9.5c3.33301 -2.66699 9.66602 -11.334 18.999 -26.001s19.833 -32.334 31.5 -53.001l36 -67l34.5 -68.5
c10.667 -21.667 19.667 -40.834 27 -57.501s11.333 -27.667 12 -33c3.33301 -22.667 6.33301 -45.334 9 -68.001s4.33398 -45.667 5.00098 -69c0 -16.667 -1 -35.167 -3 -55.5s-9.66699 -36.833 -23 -49.5c-5.33301 -5.33301 -12 -8.83301 -20 -10.5
s-15.833 -3.5 -23.5 -5.5s-14 -5 -19 -9s-7.16699 -11 -6.5 -21c1.33301 -20.667 6.16602 -34.167 14.499 -40.5s18.833 -8.83301 31.5 -7.5s26.834 5 42.501 11s31.667 11.167 48 15.5s32.333 6 48 5s29.834 -7.83301 42.501 -20.5c7.33301 0 13.833 1.83301 19.5 5.5
s12.167 6.16699 19.5 7.5c4.66699 0.666992 8.83398 0.333984 12.501 -0.999023s7.33398 -2.83301 11.001 -4.5s7.83398 -2.66699 12.501 -3s11 0.833984 19 3.50098l6 29l-29 11c-24 29.333 -39.833 61.833 -47.5 97.5s-9.5 72 -5.5 109s13.167 73.333 27.5 109
s31.5 68.167 51.5 97.5c4.66699 6.66699 8.33398 18.167 11.001 34.5s5 33.666 7 51.999s4.16699 36 6.5 53s5.5 29.5 9.5 37.5s10.5 13.667 19.5 17s19 6.33301 30 9s22 5.5 33 8.5s20.5 7.5 28.5 13.5zM537.993 509c-3.33301 -15.333 -8.50293 -30.1689 -15.5029 -44.502
s-13.5 -28.833 -19.5 -43.5c-4 -9.33301 -6 -19.333 -6 -30c0 -10 -1.66699 -19.667 -5 -29c-6 -16.667 -13.5 -24.167 -22.5 -22.5s-18 7.5 -27 17.5s-17 21.833 -24 35.5s-11.5 23.834 -13.5 30.501c-4 14.667 -9.16699 26.834 -15.5 36.501l-18.5 28.5
c-6 9.33301 -11.5 19.5 -16.5 30.5s-8.5 25.167 -10.5 42.5s-2.16699 30.666 -0.5 39.999s5.33398 16.333 11.001 21s13.334 8 23.001 10s21.5 4 35.5 6c3.33301 0.666992 6 4.66699 8 12s3.83301 15.5 5.5 24.5s3.5 17.167 5.5 24.5s4.66699 11 8 11
c2.66699 0 4.16699 -2.5 4.5 -7.5s0.333008 -10.667 0 -17l-1 -18.5c-0.333008 -6 0.5 -9.66699 2.5 -11s5.5 -3.33301 10.5 -6l15.5 -8.5l15 -8.5c4.66699 -2.66699 8 -4.66699 10 -6c17.333 -15.333 29.833 -33.166 37.5 -53.499s8.83398 -41.833 3.50098 -64.5z" />
    <glyph glyph-name="Z" unicode="Z" horiz-adv-x="615" 
d="M590 742l-24.999 -0.5c-16.667 -0.333008 -37.334 -0.833008 -62.001 -1.5s-51.334 -1.5 -80.001 -2.5s-55 -2.16699 -79 -3.5c-17.333 -1.33301 -36.166 -1.33301 -56.499 0s-40.333 2.83301 -60 4.5s-38.667 3 -57 4s-34.666 0.833008 -48.999 -0.5
s-25.666 -4.16602 -33.999 -8.49902s-12.5 -11.5 -12.5 -21.5c0 -7.33301 -1.16699 -21.833 -3.5 -43.5s-4.16602 -44.334 -5.49902 -68.001s-1 -44.667 1 -63s7.33301 -27.833 16 -28.5c2.66699 1.33301 8.5 6.83301 17.5 16.5l32 35l39.5 44.5l38.5 45l30 36
c8.33301 10 12.833 16 13.5 18h39c19.333 0 39.166 -0.166992 59.499 -0.5s38.5 -0.666016 54.5 -0.999023l24 -0.5l-12 -20c-8 -13.333 -17 -29.166 -27 -47.499l-29.5 -55c-9.66699 -18.333 -15.834 -32.5 -18.501 -42.5c-4 -14.667 -8 -28.167 -12 -40.5
s-8.83301 -25.333 -14.5 -39s-12.667 -28.834 -21 -45.501s-19.333 -36.5 -33 -59.5l-50 -80.5l-70.5 -108c-6.66699 -8 -14.334 -16.333 -23.001 -25s-16.834 -17.834 -24.501 -27.501s-14.334 -19.667 -20.001 -30s-8.83398 -21.166 -9.50098 -32.499
c0 -2 0.166992 -5.66699 0.5 -11s1 -10.833 2 -16.5s2.16699 -10.834 3.5 -15.501s3 -7 5 -7c5.33301 -0.666992 20.333 -1 45 -1s54.167 0.166992 88.5 0.5s70.5 0.5 108.5 0.5c38.667 0 74.334 0.166992 107.001 0.5s59.667 0.666016 81 0.999023s32.333 0.5 33 0.5
c9.33301 4 17.5 13.667 24.5 29s12.5 33 16.5 53s6.66699 41.167 8 63.5s0.5 43 -2.5 62s-8.16699 34.667 -15.5 47s-17 18.833 -29 19.5l-26.5 -61.5c-9.66699 -23 -21.167 -45.167 -34.5 -66.5s-28.333 -40.333 -45 -57s-36 -28 -58 -34
c-10.667 -2.66699 -23.667 -2.66699 -39 0s-30.166 6.16699 -44.499 10.5s-26.5 8.5 -36.5 12.5l-15 6c0.666992 0.666992 4.5 8.33398 11.5 23.001l29.5 60l41.5 82l46 90.5l44 85.5l35 66c9.66699 18 16.167 29 19.5 33c13.333 15.333 27 35.333 41 60
s26.833 48.667 38.5 72s21.334 43.333 29.001 60z" />
    <glyph glyph-name="bracketleft" unicode="[" horiz-adv-x="328" 
d="M299 -173c0 8 -4.17285 13.3311 -12.5059 15.998s-17.833 6.16699 -28.5 10.5s-21 11.333 -31 21s-16.667 25.167 -20 46.5c-7.33301 42 -11.166 84.167 -11.499 126.5s0.333984 84.833 2.00098 127.5s3 85.334 4 128.001s-0.833008 85 -5.5 127
c-1.33301 16.667 -0.166016 33.167 3.50098 49.5s4.83398 32.833 3.50098 49.5c-1.33301 14 -3.16602 29.667 -5.49902 47s-3 34.333 -2 51s4.83301 31.834 11.5 45.501s18.667 23.5 36 29.5c14 4.66699 25.833 10.167 35.5 16.5s15.5 12.333 17.5 18s-1 10.334 -9 14.001
s-22.333 5.5 -43 5.5c-18 0 -37 -0.5 -57 -1.5s-37.667 -6.83301 -53 -17.5c-11.333 -7.33301 -18.5 -18.5 -21.5 -33.5s-3.83301 -31 -2.5 -48s3.5 -33.667 6.5 -50s4.5 -29.5 4.5 -39.5c0 -3.33301 -0.166992 -16.333 -0.5 -39s-0.666016 -51.5 -0.999023 -86.5
s-0.666016 -74.167 -0.999023 -117.5s-0.333008 -87.5 0 -132.5l1 -132c0.333008 -43 1.16602 -81.667 2.49902 -116s3 -62.333 5 -84s4.66699 -33.834 8 -36.501c4 -2.66699 10.833 -5.5 20.5 -8.5s20.5 -5.66699 32.5 -8s24.667 -4 38 -5s25.333 -0.833008 36 0.5
s19.5 4 26.5 8s10.5 10 10.5 18z" />
    <glyph glyph-name="backslash" unicode="\" horiz-adv-x="263" 
d="M271 40l-35.001 128l-35 130c-12 43.333 -25 86.166 -39 128.499s-30 83.5 -48 123.5c-5.33301 12 -9.83301 24.667 -13.5 38s-7.16699 27 -10.5 41s-6.83301 27.833 -10.5 41.5s-8.5 26.5 -14.5 38.5c-5.33301 10.667 -13.333 19.667 -24 27s-20.167 9.83301 -28.5 7.5
s-13.5 -11 -15.5 -26s3 -39.5 15 -73.5l36 -98c12.667 -34 24.834 -68.667 36.501 -104s22.167 -70.666 31.5 -105.999s16.333 -69.333 21 -102c2 -14.667 5.83301 -30.834 11.5 -48.501s12 -35.667 19 -54l21 -54.5c7 -18 12.5 -34.667 16.5 -50
c4.66699 -18 11.667 -30.667 21 -38s18.333 -10.166 27 -8.49902s15.167 7.5 19.5 17.5s3.83301 24 -1.5 42z" />
    <glyph glyph-name="bracketright" unicode="]" horiz-adv-x="307" 
d="M224 -145c-0.666992 13.333 -1.16602 35.832 -1.49902 67.499s-0.5 68.834 -0.5 111.501v141v153c0 51.333 -0.166992 101 -0.5 149s-0.833008 91 -1.5 129s-1.83398 68.833 -3.50098 92.5s-3.83398 36.834 -6.50098 39.501c-6 6 -16.667 11 -32 15
s-31.833 6.33301 -49.5 7s-34.167 -0.333008 -49.5 -3s-26 -7.33398 -32 -14.001s-5.16699 -14.5 2.5 -23.5s17.667 -19.5 30 -31.5s24.166 -26 35.499 -42s17.333 -34.667 18 -56c0 -6 0.166992 -21.667 0.5 -47s0.5 -55.333 0.5 -90c0 -34 0.166992 -70.333 0.5 -109
s0.5 -74.334 0.5 -107.001v-81v-32c-4.66699 -17.333 -5.5 -35.333 -2.5 -54s6.83301 -37.5 11.5 -56.5s8.83398 -37.833 12.501 -56.5s4.16699 -36.667 1.5 -54l-20.5 -13.5c-9.66699 -6.33301 -19.5 -13.166 -29.5 -20.499s-18.833 -14.5 -26.5 -21.5
s-11.5 -12.5 -11.5 -16.5c-0.666992 -4 2.83301 -8.5 10.5 -13.5s17.5 -9.33301 29.5 -13s24.833 -6 38.5 -7s26.167 0 37.5 3s20.833 8.83301 28.5 17.5s10.834 21 9.50098 37z" />
    <glyph glyph-name="asciicircum" unicode="^" 
d="M454 341c-0.666992 2.66699 -5.16992 14.1699 -13.5029 34.5029l-31 73.5l-40.5 92.5l-41 91.5l-32 71c-8.66699 19.333 -13.667 29.666 -15 30.999c-8.66699 9.33301 -19 15.166 -31 17.499s-22 -2.16699 -30 -13.5c-2.66699 -4 -7 -12.333 -13 -25l-20.5 -45
l-23.5 -55.5l-22.5 -56.5l-18.5 -48c-5.33301 -14 -9 -24 -11 -30c-3.33301 -11.333 -8.33301 -22.5 -15 -33.5l-20 -33c-6.66699 -11 -12.834 -22 -18.501 -33s-9.16699 -21.833 -10.5 -32.5c-0.666992 -4.66699 1.5 -11.834 6.5 -21.501s11.333 -17.334 19 -23.001
s15.834 -7 24.501 -4s16.334 15.167 23.001 36.5c4.66699 16 11.167 31.833 19.5 47.5l25 47.5c8.33301 16 16 31.833 23 47.5s12.167 31.5 15.5 47.5c3.33301 17.333 10 36.333 20 57s18.667 39.334 26 56.001l67.5 -150c23.667 -50.667 44.5 -101.667 62.5 -153
c4.66699 -14 11.5 -23.167 20.5 -27.5s17.833 -5.5 26.5 -3.5s15.834 6.5 21.501 13.5s7.83398 14.833 6.50098 23.5z" />
    <glyph glyph-name="underscore" unicode="_" 
d="M451 -231c11.333 1.33301 19.666 4.99902 24.999 10.999s7.83301 12.5 7.5 19.5s-3.33301 13.667 -9 20s-13.5 10.833 -23.5 13.5c-9.33301 2.66699 -19.333 4 -30 4c-10 0 -20.167 -0.5 -30.5 -1.5s-20.666 -2.16699 -30.999 -3.5s-20.5 -1.66602 -30.5 -0.999023
c-18 1.33301 -35.167 3 -51.5 5s-32.833 3.5 -49.5 4.5s-33.334 1.16699 -50.001 0.5s-34 -3 -52 -7c-9.33301 -2 -18.666 -2.5 -27.999 -1.5l-28.5 3c-9.66699 1 -19.167 1.66699 -28.5 2s-19 -1.16699 -29 -4.5c-12 -4 -20.333 -9.5 -25 -16.5s-6.66699 -14 -6 -21
s3.66699 -13.167 9 -18.5s12.666 -8 21.999 -8c19.333 0 39.166 -0.5 59.499 -1.5s40.833 -1.83301 61.5 -2.5s41 -0.833984 61 -0.500977s39.667 2.16602 59 5.49902c16 2.66699 32.333 3.83398 49 3.50098s33.334 -1.16602 50.001 -2.49902s33.334 -2.5 50.001 -3.5
s33 -0.5 49 1.5z" />
    <glyph glyph-name="grave" unicode="`" horiz-adv-x="303" 
d="M229 552c0 2 -0.504883 6.33496 -1.50488 13.002s-1.83301 10.667 -2.5 12c-2 7.33301 -5.5 14.833 -10.5 22.5s-9.16699 14.834 -12.5 21.501c-8 16 -15 30.667 -21 44s-12.667 25.666 -20 36.999s-16.166 22.166 -26.499 32.499s-23.833 20.166 -40.5 29.499
c-5.33301 -5.33301 -10.666 -11.5 -15.999 -18.5s-9 -14.167 -11 -21.5c-3.33301 -11.333 -3.16602 -20.833 0.500977 -28.5s8.5 -14.834 14.5 -21.501s12 -13 18 -19s10.333 -13 13 -21c2.66699 -7.33301 4.83398 -15.166 6.50098 -23.499s5.16699 -15.5 10.5 -21.5
c4.66699 -4.66699 10.334 -8.5 17.001 -11.5s11.667 -6.83301 15 -11.5l18.5 -24c8.33301 -10.667 16.5 -19 24.5 -25s14.5 -7.5 19.5 -4.5s6.5 16.167 4.5 39.5z" />
    <glyph glyph-name="a" unicode="a" horiz-adv-x="535" 
d="M533 161c-9.33301 1.33301 -16.8379 -0.664062 -22.5049 -5.99707s-10.167 -12.166 -13.5 -20.499s-6.16602 -17.333 -8.49902 -27s-4.83301 -18.167 -7.5 -25.5s-6.33398 -12.5 -11.001 -15.5s-11 -2.16699 -19 2.5c-6 3.33301 -10.333 13.5 -13 30.5
s-4.5 37.5 -5.5 61.5s-1.5 50.333 -1.5 79s-0.666992 56.667 -2 84s-3.83301 52.5 -7.5 75.5s-9.16699 40.833 -16.5 53.5c-5.33301 9.33301 -11.166 18.5 -17.499 27.5l-18.5 27.5c-8 1.33301 -16 1.16602 -24 -0.500977s-15.667 -0.833984 -23 2.49902
c-22.667 10 -46.5 14.167 -71.5 12.5s-48.333 -7.5 -70 -17.5s-41 -23.167 -58 -39.5s-29 -34 -36 -53s-7.66699 -38.333 -2 -58s19.5 -37.834 41.5 -54.501c17.333 -2 30.166 0.5 38.499 7.5s14.5 16.167 18.5 27.5s7 23.833 9 37.5s5.66699 26.5 11 38.5
s13.166 21.833 23.499 29.5s25.833 11.167 46.5 10.5c12.667 -0.666992 24 -7.83398 34 -21.501s16.667 -29.834 20 -48.501s2.33301 -37.667 -3 -57s-16.666 -34.666 -33.999 -45.999c-2.66699 -4.66699 -7.66699 -7.5 -15 -8.5s-15.666 -2 -24.999 -3
s-18.833 -2.66699 -28.5 -5s-17.834 -7.5 -24.501 -15.5c-30 -10 -56 -21 -78 -33s-38.5 -26.667 -49.5 -44s-16.167 -38.166 -15.5 -62.499s8.33398 -53.833 23.001 -88.5c2.66699 -7.33301 6.66699 -13 12 -17s11.166 -7.66699 17.499 -11s12.833 -6.33301 19.5 -9
s12.667 -6 18 -10c26 3.33301 53 9.66602 81 18.999s52 22.666 72 39.999c3.33301 3.33301 7.83301 7.5 13.5 12.5s11.167 6.83301 16.5 5.5c16.667 -4.66699 28.834 -9.5 36.501 -14.5s13.334 -9.66699 17.001 -14s6.83398 -8.5 9.50098 -12.5
s7.33398 -7.16699 14.001 -9.5s16.667 -3.66602 30 -3.99902s33 0.5 59 2.5c4 4.66699 10 15.667 18 33s15.167 35.5 21.5 54.5s10.333 36.333 12 52s-2.16602 24.167 -11.499 25.5zM304.995 227.003c14.667 -8 23.999 -18.502 27.999 -31.502s4.16699 -26.667 0.5 -41
s-10.334 -28.5 -20.001 -42.5s-20.667 -25.833 -33 -35.5s-25.166 -16.334 -38.499 -20.001s-25.666 -2.16699 -36.999 4.5s-18.833 17.167 -22.5 31.5s-4.16699 29.333 -1.5 45s8 30.334 16 44.001s17.667 22.834 29 27.501c6 2.66699 12.333 5.83398 19 9.50098
s13.167 6.66699 19.5 9s12.833 3.83301 19.5 4.5s13.667 -1 21 -5z" />
    <glyph glyph-name="b" unicode="b" horiz-adv-x="571" 
d="M554 229c0 2 -1.49707 9.5 -4.49707 22.5s-6.83301 28.5 -11.5 46.5l-15.5 57.5l-16 57c-5 17.667 -9.5 32.334 -13.5 44.001s-6.33301 18.167 -7 19.5c-6.66699 6.66699 -14.667 11.834 -24 15.501s-18.333 6.83398 -27 9.50098
c-11.333 15.333 -24.666 25.166 -39.999 29.499s-31.5 5.16602 -48.5 2.49902s-34 -7.83398 -51 -15.501s-32.5 -15.5 -46.5 -23.5c-2.66699 6.66699 -5 17 -7 31s-3.83301 29.667 -5.5 47s-3.83398 35.333 -6.50098 54s-5.83398 35.667 -9.50098 51
s-8.33398 27.833 -14.001 37.5s-12.834 14.5 -21.501 14.5c-9.33301 0 -22.166 -0.166992 -38.499 -0.5s-32.333 -2 -48 -5s-29.5 -8 -41.5 -15s-18.333 -17.167 -19 -30.5c-1.33301 -18.667 0.5 -30.667 5.5 -36s11.333 -8.5 19 -9.5l24 -3
c8.33301 -1 15.166 -6.83301 20.499 -17.5c1.33301 -3.33301 3.5 -10.333 6.5 -21s5.83301 -22 8.5 -34s4.83398 -23.333 6.50098 -34s2.5 -17.667 2.5 -21c-1.33301 -13.333 -3.83301 -26.5 -7.5 -39.5s-6.16699 -26.167 -7.5 -39.5c-2.66699 -15.333 -1.5 -30.333 3.5 -45
s7.5 -29.667 7.5 -45c0 -19.333 0.5 -43 1.5 -71s1.83301 -56.833 2.5 -86.5s0.666992 -58 0 -85s-3 -48.5 -7 -64.5l36 -22c8 11.333 15 19 21 23s11.5 5.66699 16.5 5s9.83301 -2.83398 14.5 -6.50098l14.5 -11.5c5 -4 10.667 -7 17 -9s13.5 -1.66699 21.5 1
c22.667 -16 42.334 -26 59.001 -30s32.667 -4 48 0s31.166 10.667 47.499 20s35.166 19.333 56.499 30l48 99c16.667 34.667 26.667 69.334 30 104.001zM431.003 121c-2 -7.33301 -3.66992 -13.6611 -5.00293 -18.9941s-3 -10.5 -5 -15.5s-4.5 -9.83301 -7.5 -14.5
s-7.16699 -9.66699 -12.5 -15c-7.33301 -6.66699 -16.166 -12.667 -26.499 -18s-21.166 -9.33301 -32.499 -12s-22.5 -3.33398 -33.5 -2.00098s-20.833 5.33301 -29.5 12c-2.66699 11.333 -6.33398 21.666 -11.001 30.999s-10.334 18.666 -17.001 27.999
c-5.33301 7.33301 -9.5 20.666 -12.5 39.999s-5.16699 41.5 -6.5 66.5s-1.66602 51.5 -0.999023 79.5s2.16699 54.333 4.5 79s5.5 46.167 9.5 64.5s9 30.5 15 36.5c2 2 7.16699 5.16699 15.5 9.5s14.166 7.16602 17.499 8.49902c4.66699 -2.66699 9 -2.83398 13 -0.500977
s7.33301 5.16602 10 8.49902c7.33301 2.66699 13.833 5.33398 19.5 8.00098s12.834 4 21.501 4c2 -5.33301 5.33301 -10.833 10 -16.5l14 -16.5l13 -15c4 -4.66699 6.66699 -9 8 -13c2 -5.33301 3 -11 3 -17s0.666992 -12 2 -18c4.66699 -26.667 10.334 -50.667 17.001 -72
s12 -42.5 16 -63.5s5.83301 -43.167 5.5 -66.5s-5.16602 -50.333 -14.499 -81z" />
    <glyph glyph-name="c" unicode="c" horiz-adv-x="493" 
d="M464 180c-7.33301 6.66699 -15 12.1689 -23 16.502s-16.333 2.83301 -25 -4.5c-7.33301 -6 -14 -14.5 -20 -25.5l-18.5 -34c-6.33301 -11.667 -12.833 -22.667 -19.5 -33s-13.667 -17.5 -21 -21.5c-24 -14 -45.167 -19 -63.5 -15s-34 13.167 -47 27.5
s-23.5 32.833 -31.5 55.5s-14 45.834 -18 69.501s-5.83301 46.334 -5.5 68.001s2.16602 39.5 5.49902 53.5c1.33301 6 3.33301 14.167 6 24.5s5.83398 20.666 9.50098 30.999s8 19.833 13 28.5s10.5 14.334 16.5 17.001c8 3.33301 17.5 6.16602 28.5 8.49902
s22 3.16602 33 2.49902s20.833 -3.5 29.5 -8.5s14 -13.167 16 -24.5c2 -9.33301 1.5 -19.5 -1.5 -30.5s-5.5 -22 -7.5 -33s-2.66699 -21.833 -2 -32.5s5.66699 -20 15 -28c10.667 -9.33301 21.667 -14.166 33 -14.499s22 2.16699 32 7.5s18.833 12.833 26.5 22.5
s13.167 20.167 16.5 31.5c3.33301 12 2.66602 28.667 -2.00098 50s-12 42.5 -22 63.5s-21.667 39.167 -35 54.5s-27 23 -41 23c-17.333 0 -34.166 -1.66699 -50.499 -5s-32.5 -7.5 -48.5 -12.5s-31.833 -10.5 -47.5 -16.5s-31.5 -11.333 -47.5 -16
c-4.66699 -5.33301 -8.5 -10.833 -11.5 -16.5s-5.83301 -11.5 -8.5 -17.5c-5.33301 -13.333 -12 -25.166 -20 -35.499l-24 -31c-8 -10.333 -15 -21.333 -21 -33s-9.66699 -25.5 -11 -41.5c-12 -144.667 48 -246 180 -304l11 -5.5l15 -7.5
c5.33301 -2.66699 10.333 -4.83398 15 -6.50098s8.33398 -1.83398 11.001 -0.500977l121 50c6 2.66699 13.667 10.667 23 24s17.833 28.166 25.5 44.499s13.167 32.166 16.5 47.499s1.66602 26.333 -5.00098 33z" />
    <glyph glyph-name="d" unicode="d" horiz-adv-x="588" 
d="M583 42c-3.33301 8 -8.49805 13 -15.498 15s-14.5 4 -22.5 6s-15.5 6.16699 -22.5 12.5s-11.833 18.166 -14.5 35.499c-2 14.667 -2.66699 29.667 -2 45s1.5 30.5 2.5 45.5s1.66699 30 2 45s-1.5 30.167 -5.5 45.5c-3.33301 14.667 -4.66602 35.167 -3.99902 61.5
s2 55.333 4 87s3.5 64 4.5 97s0.166992 63.333 -2.5 91s-8.16699 50.834 -16.5 69.501s-20.833 29.334 -37.5 32.001c-19.333 3.33301 -39.666 5 -60.999 5h-60c-12 0 -21.333 -2.83301 -28 -8.5s-10.334 -12.5 -11.001 -20.5s2 -16.333 8 -25s15 -16 27 -22
c4.66699 -2 10 -5.5 16 -10.5s12.333 -10.667 19 -17l19 -18.5l15 -15c0.666992 -11.333 1.5 -21.833 2.5 -31.5s1 -19 0 -28s-3.5 -17.833 -7.5 -26.5s-10.333 -17.334 -19 -26.001c-12 -0.666992 -24.167 0.666016 -36.5 3.99902s-24.833 7 -37.5 11
s-25.834 7.66699 -39.501 11s-27.5 4.66602 -41.5 3.99902c-28 -1.33301 -52 -12.166 -72 -32.499s-36.167 -45.666 -48.5 -75.999s-20.666 -63.833 -24.999 -100.5s-5 -72.167 -2 -106.5s9.5 -65.333 19.5 -93s23.333 -47.834 40 -60.501c34 -26 61.833 -42.167 83.5 -48.5
s41 -8 58 -5s33.667 7.83301 50 14.5s36.5 10.334 60.5 11.001c0.666992 0 7.5 -2.5 20.5 -7.5s28.167 -10.5 45.5 -16.5s35.166 -11.5 53.499 -16.5s33.166 -7.5 44.499 -7.5c8.66699 0 16 2.5 22 7.5s10.5 11 13.5 18s4.66699 14.667 5 23s-0.833984 15.833 -3.50098 22.5
zM371.002 389c4 -6.66699 7.66699 -19.1641 11 -37.4971s5.83301 -39.333 7.5 -63s2.5 -48.834 2.5 -75.501c0 -26 -0.833008 -50.167 -2.5 -72.5s-4.5 -41.5 -8.5 -57.5s-9.33301 -25.667 -16 -29c-5.33301 2 -10.833 1.5 -16.5 -1.5s-11.5 -6.5 -17.5 -10.5
s-12.5 -8 -19.5 -12s-14.5 -6 -22.5 -6c-20 0 -36.167 3.5 -48.5 10.5s-21.833 16.167 -28.5 27.5s-11.5 24.666 -14.5 39.999s-5.5 31.333 -7.5 48c-3.33301 33.333 -5.16602 67.333 -5.49902 102s1.16699 68.667 4.5 102c0.666992 6.66699 3 15.334 7 26.001
s8.5 21.667 13.5 33s10.167 22.333 15.5 33s9.66602 19.667 12.999 27c14 -0.666992 26.667 0.166016 38 2.49902s21.5 3 30.5 2s17.167 -4.83301 24.5 -11.5s14.333 -19.334 21 -38.001c4.66699 -12.667 11 -25.667 19 -39z" />
    <glyph glyph-name="e" unicode="e" horiz-adv-x="518" 
d="M506 150c-1.33301 9.33301 -5.50195 17.5029 -12.502 24.5029s-15.167 6.83301 -24.5 -0.5c-8 -0.666992 -14.5 -4.66699 -19.5 -12s-10.167 -16.5 -15.5 -27.5s-11.666 -22.667 -18.999 -35s-17.333 -23.333 -30 -33s-29 -17.167 -49 -22.5s-45 -6.33301 -75 -3
c-12 1.33301 -22.833 10.666 -32.5 27.999s-16.334 37 -20.001 59s-3.66699 43.667 0 65s12.834 36.666 27.501 45.999c13.333 0 27.666 -0.166992 42.999 -0.5s29.666 0.166992 42.999 1.5c7.33301 1.33301 13.833 3.66602 19.5 6.99902s12.5 5.33301 20.5 6
c20 1.33301 38.333 -0.166992 55 -4.5s30.834 -6.16602 42.501 -5.49902s20.834 6.66699 27.501 18s10.334 34 11.001 68c0.666992 17.333 -1.5 33.833 -6.5 49.5s-13.5 29.834 -25.5 42.501c-7.33301 7.33301 -11.833 15.666 -13.5 24.999s-5.16699 18 -10.5 26
c-14 18.667 -35.5 33 -64.5 43s-59.667 14 -92 12s-63.166 -10.667 -92.499 -26s-50.666 -38.333 -63.999 -69l-30.5 -68.5c-9.66699 -21.667 -19.167 -45.167 -28.5 -70.5c-4 -12 -5.66699 -21.667 -5 -29s2.33398 -14 5.00098 -20s5.66699 -12.333 9 -19
s5.66602 -15 6.99902 -25c4 -29.333 9.83301 -56.5 17.5 -81.5s18.667 -46.5 33 -64.5s32.666 -32.333 54.999 -43s50.166 -16 83.499 -16c10.667 0 21.5 -2.83301 32.5 -8.5s22.5 -9.83398 34.5 -12.501s25 -1.66699 39 3s30 17.334 48 38.001
c4.66699 5.33301 11.5 14.166 20.5 26.499s17.833 25.333 26.5 39s16 27 22 40s8.66699 22.833 8 29.5zM372.998 355.003c-2 -16 -9.33398 -27.5 -22.001 -34.5s-26.334 -10.5 -41.001 -10.5c-9.33301 0 -18 -2 -26 -6s-16.667 -6.33301 -26 -7
c-16.667 -0.666992 -29 2.83301 -37 10.5s-13.167 17 -15.5 28s-2.16602 23 0.500977 36s6.66699 24.833 12 35.5l18 32c7.33301 12.667 15 21.667 23 27c14.667 8.66699 29.334 10.334 44.001 5.00098s27.5 -14.333 38.5 -27s19.5 -27.334 25.5 -44.001s8 -31.667 6 -45z
" />
    <glyph glyph-name="f" unicode="f" horiz-adv-x="417" 
d="M418 662c-2 21.333 -8.83398 38.3291 -20.501 50.9961s-26 21.5 -43 26.5s-35.333 6.83301 -55 5.5s-38.667 -5 -57 -11s-34.666 -13.667 -48.999 -23s-24.166 -19.333 -29.499 -30l-34.5 -68l-32.5 -68c-3.33301 -7.33301 -8.33301 -13 -15 -17l-19 -11
c-6 -3.33301 -11.167 -7 -15.5 -11s-5.5 -9.66699 -3.5 -17c3.33301 -11.333 8.16602 -19 14.499 -23s13 -7.5 20 -10.5s13.667 -7.66699 20 -14s11.166 -17.833 14.499 -34.5c2 -11.333 4 -29.333 6 -54s3.5 -50.667 4.5 -78s1.5 -53 1.5 -77s-1 -41 -3 -51
c-2.66699 -10.667 -4.5 -22 -5.5 -34s-4.16699 -22.667 -9.5 -32c-3.33301 -6 -9.66602 -11 -18.999 -15l-28 -12c-9.33301 -4 -17.333 -8.5 -24 -13.5s-9.33398 -11.833 -8.00098 -20.5c0.666992 -5.33301 2 -9.16602 4 -11.499s4.33301 -3.5 7 -3.5
c3.33301 0 6.83301 0.666992 10.5 2l10.5 4c10 3.33301 19.167 2.16602 27.5 -3.50098s16.5 -10.834 24.5 -15.501c9.33301 -5.33301 22.5 -7.66602 39.5 -6.99902s35.667 2 56 4s40.833 3.16699 61.5 3.5s39 -2.16699 55 -7.5
c11.333 -3.33301 19.166 -1.16602 23.499 6.50098s1.83301 15.167 -7.5 22.5c-12 10 -25.833 19.167 -41.5 27.5s-30.5 17.833 -44.5 28.5c-9.33301 26 -16.833 54.5 -22.5 85.5s-9.16699 62.833 -10.5 95.5s0 64.834 4 96.501s10.667 60.5 20 86.5
c6.66699 18 14.667 28.333 24 31s18.833 3.33398 28.5 2.00098s19 -1.83301 28 -1.5s16.167 7.5 21.5 21.5c6 16 5.5 25.667 -1.5 29s-16.5 5.33301 -28.5 6s-24.333 2.33398 -37 5.00098s-21 10.667 -25 24c-1.33301 4 -2.33301 11.333 -3 22s-0.166992 21.167 1.5 31.5
s4.33398 19.333 8.00098 27s9.16699 11.167 16.5 10.5c0.666992 0 4.83398 -3 12.501 -9s17 -12.5 28 -19.5s22.833 -13.167 35.5 -18.5s24 -7.33301 34 -6s18 7.5 24 18.5s8 29.167 6 54.5z" />
    <glyph glyph-name="g" unicode="g" horiz-adv-x="517" 
d="M544 451c7.33301 12 8.83398 22.4922 4.50098 31.4922s-11.833 16.333 -22.5 22s-23.167 9.5 -37.5 11.5s-27.833 2.66699 -40.5 2c-9.33301 -0.666992 -17.833 -5.16699 -25.5 -13.5s-16.5 -14.833 -26.5 -19.5s-22.167 -5 -36.5 -1s-32.833 17.667 -55.5 41
c-7.33301 0.666992 -16.333 1.83398 -27 3.50098s-21.667 2.83398 -33 3.50098s-22 0.333984 -32 -0.999023s-17.667 -4.66602 -23 -9.99902c-19.333 -18.667 -37.5 -33.5 -54.5 -44.5s-31.333 -23 -43 -36s-20 -29.333 -25 -49s-5.16699 -47.5 -0.5 -83.5
c0.666992 -6.66699 2.66699 -13.834 6 -21.501l10.5 -23.5l10 -22.5c3 -7 4.5 -13.167 4.5 -18.5c0 -10.667 -2.16699 -21.167 -6.5 -31.5s-9 -20 -14 -29s-9.66699 -17 -14 -24s-6.5 -12.5 -6.5 -16.5c0 -26 1.83301 -44 5.5 -54s8.16699 -17 13.5 -21
s10.666 -7.66699 15.999 -11s9.66602 -11.333 12.999 -24c2.66699 -10.667 2.33398 -19.667 -0.999023 -27s-7.83301 -14.5 -13.5 -21.5l-17.5 -21.5c-6 -7.33301 -10.5 -16 -13.5 -26s-3.33301 -22 -1 -36s8.83301 -31 19.5 -51c2 -4 10 -8.66699 24 -14
s31 -10.833 51 -16.5s41.667 -10.667 65 -15s45.833 -7.66602 67.5 -9.99902s41 -2.83301 58 -1.5s28.833 5 35.5 11l31 26c8 6.66699 14.5 13 19.5 19s8.66699 13.167 11 21.5s4.5 20.166 6.5 35.499c8 8 15.833 18.167 23.5 30.5s13.5 25.333 17.5 39
s5.66699 27.334 5 41.001s-4.66699 25.834 -12 36.501c-2.66699 3.33301 -7.16699 8 -13.5 14l-20.5 18.5c-7.33301 6.33301 -14.333 12 -21 17s-12 8.16699 -16 9.5c-5.33301 1.33301 -17.5 1.33301 -36.5 0l-65 -4.5c-24.333 -1.66699 -49.5 -2.66699 -75.5 -3
s-48.5 1.33398 -67.5 5.00098s-32.667 9.83398 -41 18.501s-6.83301 21 4.5 37c4 6 9 10.667 15 14s12 6.33301 18 9s11.667 6 17 10s9.33301 10 12 18c23.333 -19.333 44 -30.666 62 -33.999s35 -1.5 51 5.5s31.5 17.667 46.5 32l48.5 45.5c5.33301 5.33301 9.5 16 12.5 32
s5 33.5 6 52.5s1.5 38.167 1.5 57.5s-0.333008 34.833 -1 46.5s-1 17.834 -1 18.501c0 -0.666992 1.66699 -5.16699 5 -13.5s8.5 -17.5 15.5 -27.5s15.5 -16.833 25.5 -20.5s22 -1.33398 36 6.99902s29.333 26.833 46 55.5zM309.001 313.992
c0 -17.333 0.166992 -31.167 0.5 -41.5s-0.833984 -19.833 -3.50098 -28.5s-7.5 -17.167 -14.5 -25.5s-17.167 -18.833 -30.5 -31.5c-6 1.33301 -12.167 4 -18.5 8s-12.666 8.5 -18.999 13.5s-12.5 10.167 -18.5 15.5l-16 14c-2 7.33301 -4.83301 14.333 -8.5 21
s-7.16699 13.667 -10.5 21c-1.33301 2.66699 -1.33301 8.83398 0 18.501s3 20 5 31l6 32.5c2 10.667 3 18.667 3 24c0 10.667 0.833008 21.5 2.5 32.5s5 20 10 27s12 10.833 21 11.5s20.167 -3.33301 33.5 -12c16.667 -11.333 29.167 -21 37.5 -29s14 -16.5 17 -25.5
s4.33301 -19.333 4 -31s-0.5 -26.834 -0.5 -45.501zM425.001 -102.009c0 -2 -1.99805 -5.99609 -5.99805 -11.9961s-8.83301 -12 -14.5 -18s-11.334 -11.333 -17.001 -16s-9.5 -7.33398 -11.5 -8.00098c-9.33301 -1.33301 -17 -2.33301 -23 -3s-13 -4 -21 -10
c-2.66699 -2 -9.66699 -3.66699 -21 -5s-24.833 -1.66602 -40.5 -0.999023s-32.334 2.66699 -50.001 6s-33.667 9.16602 -48 17.499s-26.166 19.5 -35.499 33.5s-13.333 32 -12 54c1.33301 19.333 9.33301 34 24 44s31 12 49 6c6 -2 15.167 -3.83301 27.5 -5.5
s26.166 -3.33398 41.499 -5.00098l47.5 -5c16.333 -1.66699 31.5 -3.33398 45.5 -5.00098s26 -3.5 36 -5.5s16 -4.33301 18 -7c2 -2 3.5 -5.5 4.5 -10.5l3 -15.5c1 -5.33301 1.83301 -10.833 2.5 -16.5s1 -9.83398 1 -12.501z" />
    <glyph glyph-name="h" unicode="h" horiz-adv-x="582" 
d="M551 -1c8.66699 6.66699 12.835 13.501 12.502 20.501s-2.66602 13.833 -6.99902 20.5s-9.16602 13.334 -14.499 20.001s-8.33301 13.334 -9 20.001c-2 13.333 -3 32.333 -3 57s-0.333008 51.834 -1 81.501s-1.5 60.334 -2.5 92.001s-3.33301 61.167 -7 88.5
s-8.83398 51.166 -15.501 71.499s-15.334 33.833 -26.001 40.5c-13.333 8 -27.666 12.833 -42.999 14.5s-30 5.16699 -44 10.5l-36 -9c-10.667 -2.66699 -20.834 -6 -30.501 -10s-19.167 -8.83301 -28.5 -14.5s-19.666 -13.167 -30.999 -22.5
c-8.66699 -7.33301 -15.167 -9.33301 -19.5 -6s-7 10.166 -8 20.499s-1.33301 23.333 -1 39s0.833008 32.334 1.5 50.001s0.666992 35.334 0 53.001s-2.83398 33.667 -6.50098 48s-9.33398 26 -17.001 35s-18.5 13.833 -32.5 14.5c-6 0 -15 -0.5 -27 -1.5
s-25 -2.83301 -39 -5.5s-27.5 -6.33398 -40.5 -11.001s-23.5 -10.167 -31.5 -16.5s-12.167 -13.833 -12.5 -22.5s5.16699 -18.334 16.5 -29.001c17.333 -4.66699 31.666 -16.5 42.999 -35.5s20.166 -43 26.499 -72s10.5 -61.167 12.5 -96.5s2.5 -71.5 1.5 -108.5
s-3.33301 -73.333 -7 -109s-7.83398 -68 -12.501 -97s-9.66699 -53.167 -15 -72.5s-10.333 -31.333 -15 -36c-3.33301 -13.333 -1.33301 -23 6 -29s16.666 -9.5 27.999 -10.5s23 0.166992 35 3.5s21 8 27 14c5.33301 -3.33301 11.333 -6.5 18 -9.5s13.667 -5.33301 21 -7
s14.5 -2.33398 21.5 -2.00098s13.5 2.5 19.5 6.5c7.33301 5.33301 10.833 14.833 10.5 28.5s-3 30.167 -8 49.5s-11 40.666 -18 63.999s-13.167 47.166 -18.5 71.499s-8.83301 48.333 -10.5 72s0.5 45.5 6.5 65.5c2.66699 9.33301 8.5 20.833 17.5 34.5s19.5 26.667 31.5 39
s24.667 22.666 38 30.999s25.333 12.166 36 11.499c16 -1.33301 29.5 -11 40.5 -29s19.333 -40.667 25 -68s9.16699 -57.166 10.5 -89.499s0.666016 -63.5 -2.00098 -93.5s-7.16699 -56.667 -13.5 -80s-14.166 -39.333 -23.499 -48
c-3.33301 -11.333 -1.83301 -20.333 4.5 -27s15.333 -11.667 27 -15s24.834 -5.66602 39.501 -6.99902s28.834 -1.83301 42.501 -1.5s25.834 1 36.501 2s17.667 1.5 21 1.5z" />
    <glyph glyph-name="i" unicode="i" horiz-adv-x="309" 
d="M237 703c-0.666992 8 -3.16895 14.667 -7.50195 20s-8.5 11.333 -12.5 18c-8 12.667 -20 19 -36 19s-30.667 -4.83301 -44 -14.5s-23.166 -23.5 -29.499 -41.5s-4.16602 -39 6.50098 -63c12.667 -27.333 26.5 -43 41.5 -47s28.833 -1 41.5 9s23 24.5 31 43.5
s11 37.833 9 56.5zM283.998 30c0 10.667 -2.33301 18.5039 -7 23.5039l-16 16.5c-6 6 -11.5 14.5 -16.5 25.5s-7.5 27.833 -7.5 50.5c0 13.333 -2.5 26.5 -7.5 39.5s-7.5 26.167 -7.5 39.5c0.666992 10 2.5 19.667 5.5 29s4.83301 19 5.5 29
c0 9.33301 -1.16699 18.166 -3.5 26.499s-3.16602 17.166 -2.49902 26.499c0 10 1.33301 20 4 30s4 20 4 30c-0.666992 9.33301 -3 17.833 -7 25.5s-6 16.167 -6 25.5v23c0 8 -1 15.5 -3 22.5s-5.5 13 -10.5 18s-12.5 7.83301 -22.5 8.5
c-12.667 1.33301 -24.834 0.5 -36.501 -2.5s-23.5 -5.16699 -35.5 -6.5c-6 -0.666992 -13 -0.333984 -21 0.999023s-15.667 2 -23 2c-6.66699 0 -12.334 -1.83301 -17.001 -5.5s-7 -10.5 -7 -20.5c0 -0.666992 3.33301 -4.16699 10 -10.5s14.167 -14 22.5 -23
s16.5 -18.833 24.5 -29.5s13.333 -20.334 16 -29.001c0.666992 -2 1.33398 -8 2.00098 -18s1.33398 -22.167 2.00098 -36.5s1.5 -29.833 2.5 -46.5s1.66699 -32.5 2 -47.5s0.666016 -27.833 0.999023 -38.5s0.5 -17.334 0.5 -20.001c-0.666992 -5.33301 -2 -11.333 -4 -18
l-6 -20.5c-2 -7 -3.5 -13.667 -4.5 -20s-0.833008 -11.833 0.5 -16.5c-3.33301 -10.667 -6.83301 -22.667 -10.5 -36s-9.83398 -23.666 -18.501 -30.999c-5.33301 -4.66699 -11 -9.16699 -17 -13.5s-8.33301 -10.5 -7 -18.5c1.33301 -9.33301 5.83301 -16.166 13.5 -20.499
s16.5 -7 26.5 -8s20 -0.5 30 1.5s18 4.66699 24 8c6.66699 3.33301 16.834 3.66602 30.501 0.999023s27.667 -4.5 42 -5.5s27 0.833008 38 5.5s16.833 16 17.5 34z" />
    <glyph glyph-name="j" unicode="j" horiz-adv-x="360" 
d="M323 695c0.666992 24 -2.49902 39.998 -9.49902 47.998s-15.667 11.667 -26 11s-21.5 -3.16699 -33.5 -7.5s-22.667 -6.5 -32 -6.5c-11.333 0 -21 -5.66699 -29 -17s-12.667 -22 -14 -32c-1.33301 -12.667 0.666992 -25 6 -37s12.666 -21.667 21.999 -29
s20 -11.5 32 -12.5s24 3.16699 36 12.5c6 4.66699 10.833 9.83398 14.5 15.501s8.5 10.834 14.5 15.501c8 6.66699 13.167 12 15.5 16s3.5 11.667 3.5 23zM303.001 -78.002c1.33301 2 2.33203 11.333 2.99902 28s1 38 1 64v89c0 32.667 -0.333008 66 -1 100l-2 100
c-0.666992 32.667 -1.5 62 -2.5 88s-2.16699 47.333 -3.5 64s-2.66602 26 -3.99902 28c-10.667 15.333 -19.5 25.666 -26.5 30.999s-14.167 8.16602 -21.5 8.49902s-15.5 -0.666992 -24.5 -3s-20.833 -3.5 -35.5 -3.5c-11.333 0 -20 1.5 -26 4.5s-11.667 5.33301 -17 7
s-11.333 1.5 -18 -0.5s-15.667 -8 -27 -18c-7.33301 -5.33301 -12.5 -10.666 -15.5 -15.999s-0.833008 -12 6.5 -20c9.33301 -10 21 -18 35 -24s27.833 -12.667 41.5 -20s25.334 -16.333 35.001 -27s14.834 -25 15.501 -43c0.666992 -54.667 -1.83301 -109 -7.5 -163
s-8.5 -108 -8.5 -162c0 -12.667 1.33301 -28.167 4 -46.5s4 -36.5 4 -54.5s-2.33301 -34.333 -7 -49s-14.334 -24.667 -29.001 -30l-16 -8c-4 2.66699 -7.66699 7.33398 -11 14.001l-10.5 21.5c-3.66699 7.66699 -8.16699 15.167 -13.5 22.5s-12 13.333 -20 18
c-7.33301 4 -13.5 6.33301 -18.5 7s-9.66699 0.166992 -14 -1.5s-8.66602 -4.16699 -12.999 -7.5s-9.5 -7 -15.5 -11c-22 -13.333 -34.333 -27.833 -37 -43.5s1.16602 -30.5 11.499 -44.5s25.333 -26 45 -36s41 -16.333 64 -19s46 -0.166992 69 7.5s42.833 22.167 59.5 43.5
c12 15.333 21.167 32.333 27.5 51s14.166 36.667 23.499 54z" />
    <glyph glyph-name="k" unicode="k" horiz-adv-x="615" 
d="M617 24c0 0.666992 -4.16406 5.33496 -12.4971 14.002l-32 34l-42.5 47l-44.5 52.5c-14.333 17.667 -26.833 34.5 -37.5 50.5s-17.667 29.333 -21 40c-4 12 -3.66699 26.833 1 44.5s12.167 35 22.5 52s22.166 31.833 35.499 44.5s26.333 20 39 22
c4 0.666992 11.667 3.16699 23 7.5s22.166 9.33301 32.499 15s18.5 11.834 24.5 18.501s5.66699 13 -1 19c-5.33301 4.66699 -15.333 9 -30 13s-31.5 7.33301 -50.5 10s-38.5 4.16699 -58.5 4.5s-38.167 -0.666992 -54.5 -3s-29.166 -6.5 -38.499 -12.5
s-12.666 -14.333 -9.99902 -25c2 -8 6 -14.833 12 -20.5l18 -16.5c6 -5.33301 11.167 -11.5 15.5 -18.5s6.16602 -15.5 5.49902 -25.5c-0.666992 -8 -5 -19 -13 -33s-17.667 -27 -29 -39s-23.166 -21 -35.499 -27s-22.833 -5.33301 -31.5 2
c-10 8.66699 -17.5 22.5 -22.5 41.5s-8.5 40.833 -10.5 65.5s-2.66699 50.834 -2 78.501s1.66699 54.5 3 80.5s2.5 50 3.5 72s0.833008 39.333 -0.5 52c-0.666992 8 -6 15.833 -16 23.5s-22.5 14.5 -37.5 20.5s-31.333 11.167 -49 15.5s-34.667 7.16602 -51 8.49902
s-30.666 0.666016 -42.999 -2.00098s-20.833 -7.33398 -25.5 -14.001c-12 -18.667 -13.333 -34.167 -4 -46.5s22 -22 38 -29s31.667 -12 47 -15l23 -4.5c0 -1.33301 0.666992 -6.5 2 -15.5s2.66602 -20 3.99902 -33s2 -22.833 2 -29.5c0 -28.667 0.666992 -61.334 2 -98.001
l4 -112c1.33301 -38 2.16602 -74.667 2.49902 -110s-0.833984 -65.666 -3.50098 -90.999s-8.83398 -44.5 -18.501 -57.5s-19.834 -23 -30.501 -30s-20 -12.5 -28 -16.5s-11.667 -9.33301 -11 -16c0 -4.66699 1.16699 -9.83398 3.5 -15.501s4.83301 -10.167 7.5 -13.5
c6.66699 -10.667 12.834 -16.834 18.501 -18.501s11.167 -1.5 16.5 0.5s11 4.83301 17 8.5s13 5.5 21 5.5c12.667 0 27.5 -0.833008 44.5 -2.5s34 -2.33398 51 -2.00098s33.167 2.33301 48.5 6s28 10.5 38 20.5c6.66699 1.33301 12.5 0.5 17.5 -2.5s10 -6.66699 15 -11
s10.167 -8.16602 15.5 -11.499s12 -5 20 -5c26 1.33301 51.167 2.83301 75.5 4.5s49.833 1.83398 76.5 0.500977zM431.003 51.001c0 -5.33301 -3.00098 -10.3359 -9.00098 -15.0029s-13.5 -8.5 -22.5 -11.5s-18.333 -4.83301 -28 -5.5s-17.5 0 -23.5 2
c-5.33301 2 -11 3.16699 -17 3.5s-12 0.833008 -18 1.5s-11.667 1.83398 -17 3.50098s-10 4.83398 -14 9.50098c-3.33301 4.66699 -5.83301 11.334 -7.5 20.001s-3 18 -4 28s-1.5 19.667 -1.5 29c0 10 -0.333008 18 -1 24c-0.666992 8 -0.166992 18 1.5 30
s3.33398 21.833 5.00098 29.5s2.5 12.167 2.5 13.5l23.5 -6.5c15.667 -4.33301 33 -12.333 52 -24s36.5 -28 52.5 -49s24.667 -48.5 26 -82.5z" />
    <glyph glyph-name="l" unicode="l" horiz-adv-x="314" 
d="M271 49c-8 11.333 -17 22.833 -27 34.5s-15 25.167 -15 40.5c0 6 0.833008 10.667 2.5 14s3 6.5 4 9.5s1.5 6.16699 1.5 9.5s-2 8 -6 14c-0.666992 0.666992 -1.5 9.5 -2.5 26.5s-2.16699 38 -3.5 63s-2.5 52.333 -3.5 82s-2.16699 58 -3.5 85s-2.33301 50.833 -3 71.5
s-1 34.334 -1 41.001c0 9.33301 1.33301 23.166 4 41.499s5 37.333 7 57s2.83301 37.834 2.5 54.501s-3.5 28 -9.5 34c-12 12 -28.167 18.167 -48.5 18.5s-40.333 -1.83398 -60 -6.50098s-36.834 -9.83398 -51.501 -15.501s-22 -8.83398 -22 -9.50098
c-2.66699 -8 -2 -15 2 -21s9.16699 -11.5 15.5 -16.5s13.166 -9.83301 20.499 -14.5s13 -9.33398 17 -14.001c8 -9.33301 14.333 -23.666 19 -42.999s8.33398 -41.5 11.001 -66.5s4.33398 -51.5 5.00098 -79.5s1 -55.333 1 -82c0 -26 -0.166992 -50.167 -0.5 -72.5
s-0.5 -39.833 -0.5 -52.5c0 -13.333 -2 -26.166 -6 -38.499s-5.66699 -25.166 -5 -38.499c0.666992 -8.66699 2.16699 -17 4.5 -25s3.5 -16.333 3.5 -25c0 -17.333 -5.33301 -31.333 -16 -42s-21.667 -20 -33 -28s-20.333 -15.333 -27 -22s-6 -14.334 2 -23.001
c1.33301 -2 9.5 -4.5 24.5 -7.5s32.5 -5.66699 52.5 -8s41 -3.66602 63 -3.99902s40.833 1.33398 56.5 5.00098s26.667 9.66699 33 18s3.83301 20.166 -7.5 35.499z" />
    <glyph glyph-name="m" unicode="m" horiz-adv-x="914" 
d="M908 2c7.33301 12.667 10.5059 23.1729 9.50586 31.5059s-4.5 15.833 -10.5 22.5s-13.167 12.834 -21.5 18.501s-15.833 12.5 -22.5 20.5c-13.333 15.333 -21 34 -23 56s-2.16699 45.667 -0.5 71s3.66699 51.5 6 78.5s1.83301 53.333 -1.5 79
s-11.166 50.167 -23.499 73.5s-32.833 43.666 -61.5 60.999c-8 4.66699 -16.5 7.83398 -25.5 9.50098s-18 2.83398 -27 3.50098l-28 2c-9.66699 0.666992 -18.834 3 -27.501 7c-4 -2.66699 -13.167 -7.83398 -27.5 -15.501l-46 -23.5l-44.5 -21.5
c-13.333 -6.33301 -21 -9.5 -23 -9.5c-15.333 22.667 -30.666 38.667 -45.999 48s-30.5 14.333 -45.5 15s-29.667 -1.83301 -44 -7.5s-28 -11.834 -41 -18.501l-37 -19c-11.667 -6 -22.5 -8.66699 -32.5 -8l-34 24.5c-11.333 8.33301 -23.333 16.166 -36 23.499
c-5.33301 3.33301 -15 4.33301 -29 3s-28.333 -4.16602 -43 -8.49902s-27.5 -9.83301 -38.5 -16.5s-16.5 -13.334 -16.5 -20.001c0 -8 4 -15.167 12 -21.5l26.5 -20.5c9.66699 -7.33301 18.667 -15.5 27 -24.5s13.166 -19.5 14.499 -31.5
c1.33301 -21.333 1.66602 -42.666 0.999023 -63.999s-4.33398 -42 -11.001 -62c11.333 -22.667 17.333 -43.834 18 -63.501s-1.83301 -38 -7.5 -55s-13.334 -32.5 -23.001 -46.5l-27 -37.5c-8.33301 -11 -15.166 -20.333 -20.499 -28s-6.33301 -13.834 -3 -18.501
l13.5 -18.5c4.33301 -5.66699 11.166 -9.16699 20.499 -10.5c10.667 -1.33301 22.5 -0.333008 35.5 3s26.5 6.5 40.5 9.5s28 4.83301 42 5.5s27.333 -2 40 -8c7.33301 -4 15.166 -5.16699 23.499 -3.5s15.166 6.16699 20.499 13.5
c7.33301 10.667 8.66602 19.167 3.99902 25.5s-11.5 12 -20.5 17s-18 9.66699 -27 14s-14.5 10.166 -16.5 17.499c-2.66699 12 -4.5 29.833 -5.5 53.5s-0.833008 49.834 0.5 78.501s4.33301 58 9 88s11 57.333 19 82s18.167 45 30.5 61s27.166 24.333 44.499 25
c10 0 19.833 -2.83301 29.5 -8.5s18.167 -12.834 25.5 -21.501s13.333 -18.167 18 -28.5s6.66699 -20.166 6 -29.499c-1.33301 -22 -0.833008 -46.667 1.5 -74s4.5 -55 6.5 -83s2.66699 -55.167 2 -81.5s-5.33398 -49.166 -14.001 -68.499
c-2.66699 -6.66699 -7.16699 -12.167 -13.5 -16.5l-17.5 -12.5c-5.33301 -4 -9.33301 -8.16699 -12 -12.5s-1.33398 -9.83301 3.99902 -16.5c6 -8.66699 13.333 -13.167 22 -13.5s17.667 0.166992 27 1.5s18.333 2.16602 27 2.49902s16.334 -2.83398 23.001 -9.50098
c4.66699 0 9.5 0.666992 14.5 2s9.16699 3.66602 12.5 6.99902c8.66699 0 17.334 -0.833008 26.001 -2.5s17.167 -3.16699 25.5 -4.5s16.833 -1.66602 25.5 -0.999023s17 3 25 7c12 5.33301 19.5 12.333 22.5 21s-3.16699 16 -18.5 22c-4 6 -8 9 -12 9
s-7.83301 -0.833008 -11.5 -2.5s-7.5 -2.33398 -11.5 -2.00098s-8.33301 4.16602 -13 11.499c-12 19.333 -20.167 41.5 -24.5 66.5s-6.33301 50.833 -6 77.5s2 53 5 79s5.16699 49.667 6.5 71c0.666992 8.66699 3.66699 19.667 9 33s12 25.833 20 37.5s17.167 21 27.5 28
s20.5 8.5 30.5 4.5l29.5 -11c10.333 -4 19.5 -9.33301 27.5 -16c6 -5.33301 11.333 -16 16 -32s8.5 -34.833 11.5 -56.5s5.33301 -45 7 -70s2.66699 -49 3 -72s0 -43.667 -1 -62s-2.5 -31.5 -4.5 -39.5c-2.66699 -10 -8.66699 -19.5 -18 -28.5s-18.666 -17.5 -27.999 -25.5
s-16.666 -15.833 -21.999 -23.5s-5.33301 -15.167 0 -22.5c4.66699 -6 8.33398 -9.16699 11.001 -9.5s7 1.16699 13 4.5c4 2 12 2.66699 24 2s25.667 -1.66699 41 -3s31.666 -2.83301 48.999 -4.5s33.666 -2.33398 48.999 -2.00098s28.833 1.83301 40.5 4.5
s19.5 7.66699 23.5 15z" />
    <glyph glyph-name="n" unicode="n" horiz-adv-x="598" 
d="M570 -25c14.667 -0.666992 23.999 2.32422 27.999 8.99121s4.33301 15.334 1 26.001s-8.83301 22.334 -16.5 35.001l-23.5 38l-21.5 34.5c-6.33301 10.333 -9.16602 18.5 -8.49902 24.5c0.666992 7.33301 1.33398 18.833 2.00098 34.5s1.5 33.5 2.5 53.5
s1.66699 40.833 2 62.5s0.5 41.834 0.5 60.501s-0.5 34.834 -1.5 48.501s-2.83301 22.5 -5.5 26.5c-21.333 35.333 -41.666 61.5 -60.999 78.5s-39.833 26.5 -61.5 28.5s-45.167 -2.66699 -70.5 -14s-54 -27.666 -86 -48.999c-8 6.66699 -15.667 13.5 -23 20.5
s-14.833 13.5 -22.5 19.5s-16 10.833 -25 14.5s-18.833 5.5 -29.5 5.5c-8 0 -19.333 -2 -34 -6s-27 -9.16699 -37 -15.5s-15.333 -13.5 -16 -21.5s9 -15.667 29 -23c15.333 -6 26.666 -15.5 33.999 -28.5s12.166 -28.167 14.499 -45.5s2.66602 -35.833 0.999023 -55.5
s-3.83398 -39.167 -6.50098 -58.5s-5.33398 -37.666 -8.00098 -54.999s-4 -32 -4 -44c0 -9.33301 1.5 -18 4.5 -26s4.16699 -16.667 3.5 -26c-0.666992 -21.333 -4.66699 -36.333 -12 -45s-15.333 -15.5 -24 -20.5s-16.834 -10 -24.501 -15s-12.167 -14.167 -13.5 -27.5
c-1.33301 -15.333 1.16699 -26.333 7.5 -33s14.833 -10.167 25.5 -10.5s22.5 1.16699 35.5 4.5s25.333 7.33301 37 12l31 12.5c9 3.66699 14.5 5.5 16.5 5.5c9.33301 -1.33301 15.5 -4.33301 18.5 -9s7.5 -7 13.5 -7c8.66699 0 17 1.5 25 4.5s11.333 10.167 10 21.5
c-0.666992 6.66699 -2.66699 11.334 -6 14.001s-7.16602 5.16699 -11.499 7.5s-8.83301 5.5 -13.5 9.5s-8.66699 11 -12 21s-5.16602 20.167 -5.49902 30.5s-0.5 20.833 -0.5 31.5s-0.166992 21.334 -0.5 32.001s-2.16602 21.334 -5.49902 32.001
c-1.33301 2.66699 -1 9.5 1 20.5s4.66699 24 8 39l11 49l11.5 52c3.66699 17 6.5 33 8.5 48s2.66699 26.833 2 35.5c8 5.33301 20.333 10.833 37 16.5s33.5 9.16699 50.5 10.5s32.167 -0.5 45.5 -5.5s21 -15.5 23 -31.5l2.5 -41c1 -16.667 1.83301 -35 2.5 -55
s1.16699 -40.333 1.5 -61s0.833008 -40 1.5 -58s1.5 -33.5 2.5 -46.5s1.83301 -21.833 2.5 -26.5c4 -18 2.33301 -34.667 -5 -50s-15.5 -29 -24.5 -41s-15.667 -22.167 -20 -30.5s-1.5 -14.833 8.5 -19.5c14.667 -6.66699 28.5 -9.5 41.5 -8.5s26.333 2.16699 40 3.5
s28.334 1 44.001 -1s33.167 -9.33301 52.5 -22z" />
    <glyph glyph-name="o" unicode="o" horiz-adv-x="571" 
d="M551 249c0 12.667 -1.83594 25.166 -5.50293 37.499s-6.16699 24.833 -7.5 37.5s-3.33301 26.5 -6 41.5s-8 27.833 -16 38.5c-6 8 -13.167 14.833 -21.5 20.5s-15.5 12.5 -21.5 20.5c-4 5.33301 -10 12.333 -18 21s-16.667 17.167 -26 25.5s-18.666 15.5 -27.999 21.5
s-17.333 8.66699 -24 8c-10 -0.666992 -18.5 -0.333984 -25.5 0.999023s-13.5 3 -19.5 5s-12 3.83301 -18 5.5s-13 2.5 -21 2.5c-26 0 -50.5 -6 -73.5 -18s-43.833 -27.167 -62.5 -45.5s-35 -39 -49 -62s-25.333 -45.5 -34 -67.5
c-3.33301 -8.66699 -5.16602 -17.167 -5.49902 -25.5s-0.166016 -16.666 0.500977 -24.999s1.66699 -16.666 3 -24.999s2 -16.833 2 -25.5c0 -28 3.5 -54.667 10.5 -80s17.5 -48.5 31.5 -69.5s31.5 -39 52.5 -54s45.5 -25.5 73.5 -31.5c8 -14 16.167 -22.833 24.5 -26.5
s17 -4.66699 26 -3s18.167 4.66699 27.5 9s19 7.5 29 9.5c7.33301 1.33301 14.333 1.5 21 0.5s13 -1.5 19 -1.5s12 0.833008 18 2.5s12 5.5 18 11.5c14 14 28.5 30.5 43.5 49.5s28.667 39.333 41 61s22.333 43.667 30 66s11.5 43.833 11.5 64.5zM410.997 260.999
c-2 -18 -2.66699 -33.502 -2 -46.502s0.833984 -25.667 0.500977 -38s-2 -25 -5 -38s-8.83301 -28.5 -17.5 -46.5c-3.33301 -7.33301 -7.33301 -14.333 -12 -21s-10.167 -12.5 -16.5 -17.5s-13.166 -8.5 -20.499 -10.5s-15.333 -1.66699 -24 1
c-9.33301 2.66699 -16.833 2.66699 -22.5 0s-10.834 -5 -15.501 -7s-9.5 -2.16699 -14.5 -0.5s-11.167 8.16699 -18.5 19.5c-4.66699 7.33301 -9.83398 13.333 -15.501 18s-11.167 10.334 -16.5 17.001c-4.66699 6 -7.5 13 -8.5 21s-3.5 15.333 -7.5 22
c-10.667 15.333 -15.334 30.5 -14.001 45.5s3.33301 31.167 6 48.5c0.666992 9.33301 1.16699 20.833 1.5 34.5l1 41c0.333008 13.667 1.5 26.834 3.5 39.501s5.33301 22.667 10 30c2.66699 4.66699 7.83398 11.834 15.501 21.501l24.5 30.5
c8.66699 10.667 17 20.167 25 28.5s14.333 13.166 19 14.499c6.66699 2 12.334 3.33301 17.001 4s10 -0.666016 16 -3.99902c9.33301 -5.33301 19 -9.83301 29 -13.5s18.667 -9.5 26 -17.5c9.33301 -10.667 16.666 -23.334 21.999 -38.001s9.33301 -30 12 -46s4 -32 4 -48
s-0.666992 -30.667 -2 -44z" />
    <glyph glyph-name="p" unicode="p" horiz-adv-x="598" 
d="M567 353c-8 9.33301 -16.165 22.1621 -24.498 38.4951s-17.166 32.666 -26.499 48.999s-19.333 31 -30 44s-22 20.833 -34 23.5c-23.333 4.66699 -42.833 9.83398 -58.5 15.501s-30.334 8.33398 -44.001 8.00098s-27.667 -4.83301 -42 -13.5s-31.5 -24.667 -51.5 -48
c-16 10.667 -32.667 20.334 -50 29.001l-52 25c-4.66699 -1.33301 -11.5 -2.16602 -20.5 -2.49902s-19 -0.666016 -30 -0.999023s-21.833 -1.33301 -32.5 -3s-19.667 -4.33398 -27 -8.00098s-12.333 -8.66699 -15 -15s-1 -14.5 5 -24.5c4 -7.33301 11 -13.5 21 -18.5l31 -15
c10.667 -5 20.5 -10.167 29.5 -15.5s14.5 -12 16.5 -20c4.66699 -19.333 7.33398 -36.666 8.00098 -51.999s0.166992 -30.166 -1.5 -44.499l-5 -43c-1.66699 -14.333 -1.83398 -30.5 -0.500977 -48.5c1.33301 -24 3.33301 -48.167 6 -72.5s5.16699 -48.833 7.5 -73.5
s3.83301 -49.5 4.5 -74.5s0 -49.5 -2 -73.5c-1.33301 -19.333 -6.16602 -34.666 -14.499 -45.999s-17.333 -20.5 -27 -27.5s-18.334 -12.667 -26.001 -17s-11.834 -8.83301 -12.501 -13.5c-0.666992 -8.66699 3.33301 -15.334 12 -20.001s20 -8 34 -10s29.333 -3 46 -3
c17.333 0 34 0.333008 50 1s30.333 1.33398 43 2.00098s21.667 1 27 1c16 -0.666992 24.167 4.16602 24.5 14.499s-3 23.5 -10 39.5s-15.667 34 -26 54s-18.5 39.333 -24.5 58s-7.5 35.5 -4.5 50.5s14.5 25.5 34.5 31.5c8.66699 -6 17.834 -11.333 27.501 -16
s19.5 -9 29.5 -13c0.666992 -4.66699 4.66699 -8.33398 12 -11.001s15.666 -4.5 24.999 -5.5s18.5 -1.33301 27.5 -1s15.5 0.5 19.5 0.5c11.333 0.666992 22.5 4.83398 33.5 12.501s21.167 16.834 30.5 27.501s17.166 22.167 23.499 34.5s10.5 23.5 12.5 33.5
c2 10.667 6.33301 22.5 13 35.5l22 41c8 14.333 15.5 29 22.5 44s12.167 30.167 15.5 45.5s3.5 30.666 0.5 45.999s-10.5 30.333 -22.5 45zM409.002 443.996c8.66699 -5.33301 17.3359 -18.002 26.0029 -38.002s16 -43.5 22 -70.5s10 -56 12 -87s0.333008 -59.667 -5 -86
s-15 -48.666 -29 -66.999s-33.667 -28.5 -59 -30.5c-17.333 -1.33301 -34.5 1.66699 -51.5 9s-30.833 19 -41.5 35c-7.33301 10.667 -13.333 26.167 -18 46.5s-8.33398 41.5 -11.001 63.5s-4.16699 43.333 -4.5 64s0.5 37.334 2.5 50.001c2 14.667 4.33301 28.834 7 42.501
s3 28.167 1 43.5c19.333 27.333 41.666 42.666 66.999 45.999s52.666 -3.66699 81.999 -21z" />
    <glyph glyph-name="q" unicode="q" horiz-adv-x="563" 
d="M573 -214c5.33301 8.66699 7.00586 16.5 5.00586 23.5s-5.83301 12.833 -11.5 17.5s-12.667 8.33398 -21 11.001s-15.833 4.66699 -22.5 6c-12 24 -19.833 54.667 -23.5 92s-5 77.833 -4 121.5s3.33301 88.667 7 135s6.66699 90 9 131s3.33301 78 3 111
s-4.16602 57.833 -11.499 74.5c-2 5.33301 -5 10.166 -9 14.499s-8.66699 7.16602 -14 8.49902c-5.33301 0.666992 -10.666 -1 -15.999 -5s-10.5 -9 -15.5 -15s-9.33301 -12.167 -13 -18.5s-6.83398 -11.166 -9.50098 -14.499c-2.66699 -4 -6.83398 -6.16699 -12.501 -6.5
s-11.5 0.5 -17.5 2.5s-11.5 4.83301 -16.5 8.5s-8.5 7.16699 -10.5 10.5c-6 12 -15.833 21.5 -29.5 28.5s-28.5 11.667 -44.5 14s-32 2.5 -48 0.5s-29.333 -6 -40 -12c-19.333 -10 -34.333 -18.833 -45 -26.5s-18.667 -14.667 -24 -21s-9 -12.333 -11 -18
s-3.66699 -11.334 -5 -17.001s-3.33301 -12 -6 -19s-7.66699 -15.167 -15 -24.5c-14 -17.333 -23.167 -42 -27.5 -74s-3.83301 -66 1.5 -102s15.166 -71 29.499 -105s33.166 -62 56.499 -84s51 -35 83 -39s68.333 6 109 30l27 -10l17.5 -62
c4.33301 -15.333 6.16602 -29.166 5.49902 -41.499s-4.66699 -25.333 -12 -39s-19 -31.834 -35 -54.501c0 -6 4.83301 -12 14.5 -18s21.667 -11.5 36 -16.5s30.166 -9.16699 47.499 -12.5s34.166 -5.16602 50.499 -5.49902s30.666 1 42.999 4s20.833 8.5 25.5 16.5z
M403.006 223c2.66699 -16 3.00293 -30.8369 1.00293 -44.5039s-5.5 -27 -10.5 -40s-10.833 -26 -17.5 -39s-13 -26.5 -19 -40.5c-30.667 -18 -56.334 -26.5 -77.001 -25.5s-37.167 8.5 -49.5 22.5s-21.166 33.333 -26.499 58s-8.33301 51.334 -9 80.001
s0.666016 57.834 3.99902 87.501s7.5 57 12.5 82s10.167 46 15.5 63s9.66602 27.167 12.999 30.5c12.667 10 22 17.667 28 23s11.167 8.16602 15.5 8.49902s9.5 -1.83398 15.5 -6.50098l28 -21c20.667 -15.333 35.667 -32.666 45 -51.999s15.666 -39.666 18.999 -60.999
s5.33301 -42.666 6 -63.999s2.66699 -41.666 6 -60.999z" />
    <glyph glyph-name="r" unicode="r" horiz-adv-x="428" 
d="M430 479c-4 7.33301 -11.666 13.5039 -22.999 18.5039s-20.666 9.5 -27.999 13.5c-7.33301 3.33301 -13.5 7.83301 -18.5 13.5s-11.833 8.5 -20.5 8.5c-9.33301 0 -19 -2 -29 -6s-19.667 -8.33301 -29 -13l-25.5 -13c-7.66699 -4 -13.834 -6 -18.501 -6
c-5.33301 0 -11 1.5 -17 4.5s-12.167 6.5 -18.5 10.5s-12.5 7.5 -18.5 10.5s-11.667 4.5 -17 4.5c-8 0 -15.833 -1.33301 -23.5 -4s-15.167 -2.33398 -22.5 0.999023c-7.33301 -2 -14.5 -3.5 -21.5 -4.5s-14.167 0.166992 -21.5 3.5
c-7.33301 -4 -13.666 -7.83301 -18.999 -11.5s-8.33301 -10.167 -9 -19.5c0 -4.66699 1.16699 -8.66699 3.5 -12s5.16602 -6.33301 8.49902 -9l10.5 -8c3.66699 -2.66699 6.5 -5.33398 8.5 -8.00098c8 -10 14.667 -25 20 -45s9 -41.167 11 -63.5s2.33301 -44 1 -65
s-4.33301 -37.167 -9 -48.5c-4 -10 -5.66699 -18.333 -5 -25s1.83398 -12.667 3.50098 -18l5 -16.5c1.66699 -5.66699 1.5 -12.834 -0.5 -21.501c-1.33301 -4.66699 -4.5 -11.667 -9.5 -21s-10.833 -19.666 -17.5 -30.999s-13 -22.833 -19 -34.5
s-10.167 -22.334 -12.5 -32.001s-2.16602 -17.834 0.500977 -24.501s9.66699 -10.334 21 -11.001l78 -5c3.33301 0 9.83301 0.166992 19.5 0.5s19.667 0.833008 30 1.5s20 1.5 29 2.5s14.833 2.16699 17.5 3.5c12 5.33301 19.167 10 21.5 14s2 8.16699 -1 12.5
s-7.83301 9 -14.5 14s-13.5 11.167 -20.5 18.5s-13.167 15.833 -18.5 25.5s-8 21.5 -8 35.5c0 24.667 2.33301 48.834 7 72.501s7.33398 47.5 8.00098 71.5c0 12 -0.833008 28 -2.5 48s-2.33398 40.167 -2.00098 60.5s3.16602 39.166 8.49902 56.499s15 29.666 29 36.999
c2 0.666992 4.66699 -1 8 -5s6.66602 -8.83301 9.99902 -14.5s6.66602 -11 9.99902 -16s6 -7.83301 8 -8.5c6.66699 -11.333 16 -19.666 28 -24.999s24.667 -8.16602 38 -8.49902s26.333 1.5 39 5.5s23.167 10 31.5 18s13.5 17.667 15.5 29s-1 24.333 -9 39z" />
    <glyph glyph-name="s" unicode="s" horiz-adv-x="449" 
d="M431 200c0 9.33301 -6.1709 20.668 -18.5039 34.001s-27 25.833 -44 37.5s-34.333 21.5 -52 29.5s-32.167 11 -43.5 9s-23.5 -0.833008 -36.5 3.5s-25.167 10.5 -36.5 18.5s-21.666 17.167 -30.999 27.5s-16 21.166 -20 32.499c-6 14.667 -5.66699 27 1 37
s16.167 18 28.5 24s26 10.167 41 12.5s27.5 3.5 37.5 3.5c3.33301 0 8.83301 -4.33301 16.5 -13s15.667 -18.667 24 -30s15.833 -22.333 22.5 -33s11 -18 13 -22c-3.33301 -20.667 -3.66602 -31.5 -0.999023 -32.5s6.83398 3.5 12.501 13.5s12.167 23.667 19.5 41
s14.166 34.333 20.499 51l16.5 43.5l7 18.5c-6 10 -12.167 15.333 -18.5 16s-13 -0.333008 -20 -3s-14.167 -6 -21.5 -10s-14.666 -6 -21.999 -6c-6.66699 0 -17.667 3 -33 9s-32.166 11.833 -50.499 17.5s-37 9.16699 -56 10.5s-35.5 -2.66699 -49.5 -12
c-12.667 -8.66699 -24.334 -17.167 -35.001 -25.5s-19.834 -17.5 -27.501 -27.5s-13.5 -21.333 -17.5 -34s-6 -28 -6 -46c0.666992 -46.667 5.66699 -81.667 15 -105s23.166 -40.666 41.499 -51.999s41.5 -19.5 69.5 -24.5s61.333 -12.833 100 -23.5
c12.667 -3.33301 24.334 -9.66602 35.001 -18.999s21.667 -17.333 33 -24c4.66699 -2.66699 9.5 -6 14.5 -10s6.5 -8.33301 4.5 -13c-16 -36.667 -32.333 -62.334 -49 -77.001s-33.334 -22.167 -50.001 -22.5s-33.167 4 -49.5 13s-32.5 18.833 -48.5 29.5l-10 21
c-3.33301 6.66699 -7.33301 13 -12 19c-2.66699 3.33301 -6.16699 8.83301 -10.5 16.5l-13 24c-4.33301 8.33301 -8.33301 15.666 -12 21.999s-6.5 9.5 -8.5 9.5c-6.66699 1.33301 -11.667 -1.16699 -15 -7.5s-5.5 -14.666 -6.5 -24.999s-1.33301 -22.166 -1 -35.499
s0.5 -26.666 0.5 -39.999c0 -12.667 -0.5 -24.834 -1.5 -36.501s-3.5 -20.834 -7.5 -27.501c-3.33301 -6 -4 -11.667 -2 -17s5.33301 -8.66602 10 -9.99902s10 0.5 16 5.5s11 14.833 15 29.5c9.33301 -1.33301 18.333 -0.833008 27 1.5s17.334 4.16602 26.001 5.49902
c10 -10 19.833 -18.167 29.5 -24.5s19.834 -11 30.501 -14s22.334 -4.83301 35.001 -5.5s26.667 -1 42 -1c16 0 30.5 4.16699 43.5 12.5s24.333 19 34 32s17.834 27.667 24.501 44s12.167 32.666 16.5 48.999s7.66602 32 9.99902 47s3.5 27.833 3.5 38.5z" />
    <glyph glyph-name="t" unicode="t" horiz-adv-x="382" 
d="M337 199c-8.66699 7.33301 -14.998 8.1709 -18.998 2.50391s-7.33301 -14.834 -10 -27.501s-5.33398 -27.167 -8.00098 -43.5s-6.66699 -31.5 -12 -45.5s-12.666 -25.333 -21.999 -34s-22 -11 -38 -7c-11.333 2.66699 -20.5 12.667 -27.5 30s-12.167 38.666 -15.5 63.999
s-5.16602 53 -5.49902 83s0.666992 58.833 3 86.5s6 52.667 11 75s11.167 38.166 18.5 47.499c38.667 -1.33301 69 3.16699 91 13.5s34 22.333 36 36s-6.5 27.334 -25.5 41.001s-50.167 23.5 -93.5 29.5c-11.333 1.33301 -19 7.5 -23 18.5s-6.5 23.667 -7.5 38
s-1.16699 28.833 -0.5 43.5s-0.333008 26.667 -3 36c-4 14.667 -9.66699 22.667 -17 24s-15 -0.833984 -23 -6.50098s-15.167 -13.334 -21.5 -23.001s-10.5 -18.5 -12.5 -26.5c-1.33301 -6 -2 -13 -2 -21c0 -7.33301 0.166992 -15.166 0.5 -23.499s0.333008 -16.5 0 -24.5
s-1.5 -15 -3.5 -21c-2 -6.66699 -8.66699 -11 -20 -13s-23.5 -4.5 -36.5 -7.5s-24.667 -7.33301 -35 -13s-15.5 -15.167 -15.5 -28.5c0 -18 5.16699 -31.667 15.5 -41s21.833 -16 34.5 -20s24.167 -6.16699 34.5 -6.5l15.5 -0.5l-4.5 -30.5c-3 -20.333 -5.66699 -46 -8 -77
s-3.83301 -65.167 -4.5 -102.5s1.16602 -73 5.49902 -107s12.333 -64 24 -90s28.167 -43.333 49.5 -52l15 -6.5c4 -1.66699 7.83301 -2.66699 11.5 -3s7.66699 0 12 1s9.5 2.83301 15.5 5.5c10 4 19.667 6.33301 29 7l27.5 2c9 0.666992 17.667 2.66699 26 6
s16.166 10 23.499 20c6 8 11.5 21.167 16.5 39.5s8.66699 37.666 11 57.999s2.66602 39.333 0.999023 57s-6.16699 30.167 -13.5 37.5z" />
    <glyph glyph-name="u" unicode="u" horiz-adv-x="586" 
d="M571 35c0 7.33301 -3.6582 12.3311 -10.9912 14.998s-13.333 5.66699 -18 9c-6.66699 4.66699 -11.834 10.167 -15.501 16.5s-6.83398 13.166 -9.50098 20.499s-4.83398 14.833 -6.50098 22.5s-3.83398 14.834 -6.50098 21.501
c-4.66699 11.333 -6.33398 28.166 -5.00098 50.499s3.5 46.833 6.5 73.5s5.83301 54.167 8.5 82.5s3.33398 54.333 2.00098 78s-5.5 43.834 -12.5 60.501s-18.833 26.334 -35.5 29.001c-10 2 -24.667 3.5 -44 4.5s-37.833 0 -55.5 -3s-31.334 -9.16699 -41.001 -18.5
s-9.83398 -23.333 -0.500977 -42c6 -11.333 12.5 -19.333 19.5 -24l21 -13.5c7 -4.33301 13.167 -10.333 18.5 -18s9 -20.167 11 -37.5c2.66699 -24 3.66699 -47.333 3 -70s-2 -45 -4 -67s-3.83301 -44.167 -5.5 -66.5s-2.16699 -45.5 -1.5 -69.5
c-10 -13.333 -22.5 -24.166 -37.5 -32.499s-30.167 -15.166 -45.5 -20.499c-24.667 9.33301 -43.667 20.333 -57 33s-23 26.834 -29 42.501s-9 32.167 -9 49.5s1 35.333 3 54s4.33301 37.667 7 57s4 38.666 4 57.999c0 8 -0.5 19.833 -1.5 35.5s-2.5 32 -4.5 49
s-4 33.167 -6 48.5s-4 27 -6 35c-4 16 -11 25.167 -21 27.5s-21 1.83301 -33 -1.5s-24.167 -8.16602 -36.5 -14.499s-23.166 -9.83301 -32.499 -10.5c-21.333 -2 -35.333 -6.16699 -42 -12.5s-1.33398 -18.833 15.999 -37.5c4.66699 -5.33301 9 -12.5 13 -21.5
s9.33301 -14.833 16 -17.5c10 -10 16.667 -24.667 20 -44s5 -41.333 5 -66c0 -24 -0.833008 -49.5 -2.5 -76.5s-2 -52.667 -1 -77s4.16699 -46.5 9.5 -66.5s14.666 -35.333 27.999 -46c24 -19.333 46.167 -32.833 66.5 -40.5s40.166 -10.5 59.499 -8.5
s39.166 8.5 59.499 19.5s42.166 25.833 65.499 44.5l8.5 -19c3.66699 -8 7.66699 -15.667 12 -23s9.33301 -13.333 15 -18s11.834 -6.33398 18.501 -5.00098c8 2 18.667 3 32 3s26.5 1.16699 39.5 3.5s24.333 6.66602 34 12.999s14.5 16.833 14.5 31.5z" />
    <glyph glyph-name="v" unicode="v" horiz-adv-x="586" 
d="M581 464c10.667 14.667 12.8291 25.6641 6.49609 32.9971s-17.666 12.333 -33.999 15s-35.666 3.66699 -57.999 3s-44.166 -2 -65.499 -4s-40.333 -4.16699 -57 -6.5s-27.334 -3.5 -32.001 -3.5l-7 -51c-6 0 -10.667 3 -14 9s-6.5 12.667 -9.5 20
s-6.16699 14.166 -9.5 20.499s-7.66602 10.166 -12.999 11.499h-219c-4 -0.666992 -9.5 -3.5 -16.5 -8.5s-11.167 -9.16699 -12.5 -12.5c-7.33301 -15.333 -7 -27.666 1 -36.999s18.667 -17.833 32 -25.5l41 -23.5c14 -8 23.667 -18.333 29 -31
c4.66699 -11.333 9.83398 -22 15.501 -32l17.5 -31c5.33301 -9.33301 10.666 -23.833 15.999 -43.5s10.666 -41.667 15.999 -66l16.5 -76c5.66699 -26.333 11.5 -50.5 17.5 -72.5s12.5 -40.667 19.5 -56s14.167 -24.333 21.5 -27c6 -2 12.667 -1.66699 20 1
s14.333 6.83398 21 12.501s12.667 11.834 18 18.501s8.66602 13 9.99902 19l65 234c2.66699 8.66699 6.33398 16.834 11.001 24.501l14.5 23l14.5 22.5c4.66699 7.33301 8.33398 15.666 11.001 24.999c2.66699 10.667 8.83398 20.834 18.501 30.501s20.5 19.334 32.5 29.001
l35 28c11.333 9 20.333 18.167 27 27.5zM400.995 372.997c-5.33301 -22 -10.834 -43.333 -16.501 -64s-13.167 -41 -22.5 -61l-8 -20.5c-4 -10.333 -8.5 -20.666 -13.5 -30.999s-10.167 -19.166 -15.5 -26.499s-10 -10 -14 -8c-6 3.33301 -11.667 12.333 -17 27
s-10 31 -14 49s-7 35.333 -9 52s-3 28.667 -3 36c0 8 -0.833008 15.833 -2.5 23.5s-2.5 15.5 -2.5 23.5c0.666992 14 5 26.5 13 37.5s17.833 19.833 29.5 26.5s23.834 10.667 36.501 12s24.167 -0.333984 34.5 -5.00098s18 -12.834 23 -24.501s5.5 -27.167 1.5 -46.5z" />
    <glyph glyph-name="w" unicode="w" horiz-adv-x="806" 
d="M795 512c-12 16.667 -27.1582 26.6816 -45.4912 30.0146s-37.5 1.33301 -57.5 -6c-8 -2.66699 -16 -4.83398 -24 -6.50098s-15.5 -4.16699 -22.5 -7.5s-12.833 -7.83301 -17.5 -13.5s-7.33398 -13.834 -8.00098 -24.501c-1.33301 -9.33301 1 -17.833 7 -25.5
s10 -16.167 12 -25.5c1.33301 -6 0 -17.667 -4 -35s-9.33301 -36.166 -16 -56.499l-20.5 -61c-7 -20.333 -12.833 -36.5 -17.5 -48.5s-7.33398 -18.667 -8.00098 -20c-0.666992 0.666992 -3 7 -7 19l-15.5 47l-18.5 58c-6 19.333 -11.167 37.166 -15.5 53.499
s-6.5 27.5 -6.5 33.5c0 7.33301 1.16699 13.166 3.5 17.499s4.83301 8.66602 7.5 12.999s5 9.5 7 15.5s2.66699 14 2 24c-0.666992 12 -3.83398 18.833 -9.50098 20.5s-13.5 3.16699 -23.5 4.5c-16.667 1.33301 -32.834 -5.5 -48.501 -20.5s-30.334 -34.5 -44.001 -58.5
s-26 -50 -37 -78s-20.667 -54 -29 -78s-14.666 -44.167 -18.999 -60.5l-6.5 -24.5l-20 5c0 1.33301 -1.33301 11.666 -4 30.999s-6.5 44.166 -11.5 74.499s-10.5 60 -16.5 89s-12.667 54.333 -20 76s-15 33.167 -23 34.5c-6 1.33301 -16 2.5 -30 3.5s-29 1.5 -45 1.5
c-15.333 0 -30.5 -1.16699 -45.5 -3.5s-26.833 -6.16602 -35.5 -11.499s-12.834 -12.666 -12.501 -21.999s8.16602 -21 23.499 -35c3.33301 -3.33301 6.33301 -5 9 -5c3.33301 0 6.66602 -0.5 9.99902 -1.5s7.16602 -4 11.499 -9s9.5 -13.833 15.5 -26.5l30 -62
c10 -20.667 19.333 -41.834 28 -63.501s15.667 -43.834 21 -66.501s8 -46.334 8 -71.001c0 -8.66699 1.66699 -15.667 5 -21s7.16602 -10 11.499 -14s8.33301 -8 12 -12s5.83398 -9.33301 6.50098 -16c0.666992 -5.33301 1 -12.333 1 -21s0.5 -17.334 1.5 -26.001
s3 -16.667 6 -24s7.5 -12.333 13.5 -15c11.333 -4.66699 21.5 -1.33398 30.5 9.99902s17.333 26.833 25 46.5s15 41.5 22 65.5s14.5 46.667 22.5 68s16.5 39.166 25.5 53.499s19.167 21.5 30.5 21.5c8.66699 0 16.5 -7.33301 23.5 -22s13.333 -32.834 19 -54.501l17.5 -69.5
c6 -24.667 12.5 -46.834 19.5 -66.501s14.833 -35.334 23.5 -47.001s18.667 -14.834 30 -9.50098c3.33301 1.33301 9 10.5 17 27.5s16.833 38.167 26.5 63.5l31 82.5l31 85.5l25.5 73l15 43c7.33301 19.333 18.333 35.833 33 49.5l40.5 37.5
c12.333 11.333 21.666 22.166 27.999 32.499s4.83301 21.833 -4.5 34.5z" />
    <glyph glyph-name="x" unicode="x" horiz-adv-x="571" 
d="M560 521c-5.33301 0.666992 -10.001 0.660156 -14.001 -0.00683594s-8 -1.16699 -12 -1.5s-8.33301 -0.5 -13 -0.5c-4 0 -9 1.33301 -15 4c-26 10.667 -52.167 14.5 -78.5 11.5s-48.5 -16.833 -66.5 -41.5c-1.33301 -2 -0.666016 -7.16699 2.00098 -15.5
s5.33398 -18.333 8.00098 -30s5 -23.667 7 -36s1.66699 -23 -1 -32s-8.33398 -15.333 -17.001 -19s-21.667 -2.5 -39 3.5c-10 3.33301 -16.833 8.33301 -20.5 15s-5.66699 14.167 -6 22.5s0.333984 17.333 2.00098 27s2.83398 19 3.50098 28s0 17.333 -2 25
s-7 14.167 -15 19.5c-6 4 -16.167 7.33301 -30.5 10s-30.5 4.83398 -48.5 6.50098s-36.667 2.5 -56 2.5s-37 -1 -53 -3s-29.167 -5 -39.5 -9s-15.5 -9.33301 -15.5 -16c0 -11.333 4.33301 -19.666 13 -24.999c6.66699 -4 13 -6.16699 19 -6.5s11.667 -0.666016 17 -0.999023
s10.833 -1.66602 16.5 -3.99902s12.167 -7.16602 19.5 -14.499l40.5 -41c15 -14.667 29.5 -30.167 43.5 -46.5s26.167 -33.166 36.5 -50.499s16.5 -35 18.5 -53c0.666992 -8 -1 -18 -5 -30s-9.33301 -24 -16 -36s-14 -23 -22 -33s-15.333 -17 -22 -21l-138 -83
c-8.66699 -19.333 -8 -33.166 2 -41.499s24.167 -13.166 42.5 -14.499s38 -0.5 59 2.5s38.5 6.16699 52.5 9.5s21.667 5 23 5c5.33301 5.33301 8.66602 13.5 9.99902 24.5s1.83301 23 1.5 36s-0.833008 26.5 -1.5 40.5s0 26.667 2 38s5.83301 20.666 11.5 27.999
s14.5 11 26.5 11c7.33301 0 13.5 -2.66699 18.5 -8l14.5 -15c5.33301 -6 10.666 -13.333 15.999 -22s9.83301 -17.667 13.5 -27s5.83398 -18.833 6.50098 -28.5s-1 -18.5 -5 -26.5c-2.66699 -4.66699 -6.5 -10.334 -11.5 -17.001s-6.16699 -12.667 -3.5 -18
c2.66699 -6 9.5 -10.667 20.5 -14s24.167 -5.66602 39.5 -6.99902s31.666 -2 48.999 -2c18 0 34.5 0.5 49.5 1.5s27.833 2.66699 38.5 5s17 4.83301 19 7.5c4 5.33301 4.33301 11 1 17s-8.16602 11.833 -14.499 17.5s-13.166 10.5 -20.499 14.5s-13 7 -17 9
c-4.66699 2 -11.167 8 -19.5 18s-17.333 22 -27 36s-19.334 29.333 -29.001 46l-27 48c-8.33301 15.333 -15 29 -20 41s-7.5 20.667 -7.5 26c0 20.667 6.16699 39.5 18.5 56.5s27.166 32.667 44.499 47s35.5 27.5 54.5 39.5s35.333 23.167 49 33.5s23 20 28 29
s2.16699 18.167 -8.5 27.5z" />
    <glyph glyph-name="y" unicode="y" horiz-adv-x="527" 
d="M498 519c-11.333 4 -23.835 7.67188 -37.502 11.0049s-27.167 5 -40.5 5s-26.166 -2.16699 -38.499 -6.5s-22.833 -12.5 -31.5 -24.5c-4 -5.33301 -5 -9.83301 -3 -13.5s5 -7.5 9 -11.5l13.5 -13.5c5 -5 9.16699 -11.5 12.5 -19.5c4 -10 6.33301 -21.333 7 -34
s0.166992 -25.834 -1.5 -39.501s-4.66699 -27.334 -9 -41.001s-9.83301 -25.834 -16.5 -36.501c-3.33301 -5.33301 -7.83301 -15.166 -13.5 -29.499l-17.5 -46l-16.5 -46.5c-5 -14.667 -8.5 -25.334 -10.5 -32.001c-3.33301 -10 -6.16602 -11.167 -8.49902 -3.5
s-4.5 18.667 -6.5 33l-6 44.5c-2 15.333 -4.66699 25 -8 29c-10 12 -18.167 26.667 -24.5 44s-11.333 35.666 -15 54.999s-5.83398 38.666 -6.50098 57.999s0 37 2 53c0.666992 7.33301 2.83398 14.333 6.50098 21s7.5 12.667 11.5 18s7.16699 9.83301 9.5 13.5
s3.16602 6.16699 2.49902 7.5c-5.33301 6 -16.666 10.167 -33.999 12.5s-36.333 3.16602 -57 2.49902s-40.167 -2.33398 -58.5 -5.00098s-31.166 -5.66699 -38.499 -9c-10.667 -5.33301 -18.334 -11.5 -23.001 -18.5s-4.66699 -16.167 0 -27.5c2 -4 5.33301 -7 10 -9
s9.66699 -3.5 15 -4.5s10.666 -2.33301 15.999 -4s9.33301 -4.5 12 -8.5c17.333 -27.333 32 -59.666 44 -96.999s21.667 -78 29 -122c3.33301 -18.667 8.66602 -35.5 15.999 -50.5s15.333 -29.5 24 -43.5l25 -41.5c8 -13.667 14.333 -28.834 19 -45.501
c3.33301 -11.333 4.33301 -23 3 -35s1.33398 -23 8.00098 -33c-1.33301 -7.33301 -4.5 -16.333 -9.5 -27s-11.167 -21.167 -18.5 -31.5s-15.166 -19.333 -23.499 -27s-16.5 -11.5 -24.5 -11.5c-6 0 -12.667 5.16699 -20 15.5s-15.833 20.833 -25.5 31.5
s-20.334 18.834 -32.001 24.501s-24.5 3.5 -38.5 -6.5c-15.333 -11.333 -25.666 -26.833 -30.999 -46.5s-6.16602 -39 -2.49902 -58s11.834 -35.667 24.501 -50s29.667 -21.5 51 -21.5c28.667 0 52.834 6.5 72.501 19.5s36 29.333 49 49s23.5 41.334 31.5 65.001
s14.5 46.334 19.5 68.001l13 57.5c3.66699 16.667 8.16699 28 13.5 34c17.333 20 28.666 40.333 33.999 61s9.5 41.667 12.5 63s7.16699 43.166 12.5 65.499s17 45.166 35 68.499c5.33301 6.66699 10.333 16.5 15 29.5s9 26.167 13 39.5s8 25.833 12 37.5
s8 19.834 12 24.501c7.33301 8 15.666 15.167 24.999 21.5s16.666 12.333 21.999 18s7.33301 11 6 16s-8.33301 9.83301 -21 14.5z" />
    <glyph glyph-name="z" unicode="z" horiz-adv-x="478" 
d="M461 77c0 3.33301 -1.49414 10.1631 -4.49414 20.4961s-6.83301 20.5 -11.5 30.5s-9.66699 18.167 -15 24.5s-10.333 7.5 -15 3.5c-10.667 -9.33301 -23 -22.666 -37 -39.999s-29.167 -33.666 -45.5 -48.999s-33.5 -26.833 -51.5 -34.5s-36.333 -6.16699 -55 4.5
c-9.33301 5.33301 -14.333 13.333 -15 24s1.16602 22.834 5.49902 36.501s10.166 28.167 17.499 43.5s15 30.333 23 45l21.5 40.5c6.33301 12.333 10.166 22.166 11.499 29.499c2 10.667 4.5 18.334 7.5 23.001s6.16699 8.16699 9.5 10.5s7.16602 4.66602 11.499 6.99902
s8.5 6.5 12.5 12.5c13.333 19.333 24.166 39.166 32.499 59.499s20.166 39.833 35.499 58.5c3.33301 4.66699 6.5 12.334 9.5 23.001s4.5 21.667 4.5 33s-1.66699 21.333 -5 30s-9.66602 13 -18.999 13c-13.333 0 -27.333 -0.333008 -42 -1s-29.5 -1.16699 -44.5 -1.5
s-29.833 -0.166016 -44.5 0.500977s-28.334 2 -41.001 4c-21.333 4 -42.333 4 -63 0s-40.667 -10.667 -60 -20c-11.333 -5.33301 -20.5 -17 -27.5 -35s-11.5 -36.833 -13.5 -56.5s-1.5 -37.167 1.5 -52.5s9.5 -23 19.5 -23c2.66699 0 7.5 3.83301 14.5 11.5s15 17 24 28
s19 22.5 30 34.5s22.167 22.5 33.5 31.5s22.5 15.333 33.5 19s20.833 2.5 29.5 -3.5c12 -8 19.167 -18.5 21.5 -31.5s2 -26.5 -1 -40.5s-7 -28.167 -12 -42.5s-8.5 -26.833 -10.5 -37.5c-1.33301 -4.66699 -7.83301 -14 -19.5 -28l-42 -49.5l-51 -61.5
c-17.667 -22 -33 -43.667 -46 -65s-22.167 -41 -27.5 -59s-3.66602 -32.667 5.00098 -44c5.33301 -6 10.833 -11.833 16.5 -17.5s12.5 -8.16699 20.5 -7.5s15.333 2.83398 22 6.50098s13.667 6.16699 21 7.5c23.333 3.33301 46.666 5.33301 69.999 6s46.666 2 69.999 4
c1.33301 0 4.33301 -2 9 -6s9.33398 -6 14.001 -6c18.667 -1.33301 37.5 -2.5 56.5 -3.5s36.333 0.666992 52 5s28.5 12.833 38.5 25.5s15 32.667 15 60z" />
    <glyph glyph-name="braceleft" unicode="{" horiz-adv-x="357" 
d="M327 -96c2 10 1.99902 16.5029 -0.000976562 19.5029s-5.5 4.66699 -10.5 5s-10.833 0.5 -17.5 0.5s-13.667 1.66699 -21 5s-14.333 9.5 -21 18.5s-12 23.167 -16 42.5c-3.33301 12.667 -4.16602 28.834 -2.49902 48.501l5.5 63c2 22.333 2.83301 45 2.5 68
s-4 44.5 -11 64.5s-18.333 37.5 -34 52.5s-37.834 25.833 -66.501 32.5c3.33301 6.66699 8.66602 11 15.999 13s13.666 4.33301 18.999 7c10.667 4.66699 20 11.167 28 19.5l24 24.5c7.33301 7.33301 12.666 18.166 15.999 32.499s5.33301 30.166 6 47.499
s0.333984 35.666 -0.999023 54.999s-2.5 38 -3.5 56s-1.66699 34.667 -2 50s0.833984 27.666 3.50098 36.999c4 15.333 10.5 27.333 19.5 36s18.5 15.167 28.5 19.5s19.5 7.33301 28.5 9s15.5 3 19.5 4s4.83301 2.66699 2.5 5s-10.166 6.83301 -23.499 13.5
c-11.333 -2 -22.333 -1.66699 -33 1s-21.667 3.66699 -33 3c-20.667 -0.666992 -37.334 -6.83398 -50.001 -18.501s-22.5 -26.5 -29.5 -44.5s-11.667 -38.5 -14 -61.5s-3.83301 -46 -4.5 -69s-1 -45.167 -1 -66.5s-1 -39.666 -3 -54.999c-2.66699 -18.667 -7 -34 -13 -46
s-13.833 -22.167 -23.5 -30.5s-20.667 -15.5 -33 -21.5l-40.5 -19c34 -9.33301 59.5 -23.833 76.5 -43.5s29.167 -42.167 36.5 -67.5s11 -52.333 11 -81c0 -28 -0.333008 -55.5 -1 -82.5s-0.166992 -52 1.5 -75s7.83398 -41.667 18.501 -56s27.334 -23.5 50.001 -27.5
s54.667 0 96 12z" />
    <glyph glyph-name="bar" unicode="|" horiz-adv-x="263" 
d="M179 309c-4 30 -4.83398 63.665 -2.50098 100.998s4.83301 74.833 7.5 112.5s3.66699 74 3 109s-6 65.167 -16 90.5c-3.33301 8.66699 -8.83301 15.5 -16.5 20.5s-16.167 7.5 -25.5 7.5c-8.66699 0 -14.834 -6 -18.501 -18s-6 -25.667 -7 -41s-1.33301 -30.333 -1 -45
s0.5 -25 0.5 -31v-46c0 -21.333 -0.166992 -47.166 -0.5 -77.499s-0.5 -63.5 -0.5 -99.5c0 -35.333 0.166992 -71 0.5 -107s0.833008 -71 1.5 -105s1.5 -64.333 2.5 -91s2.33301 -48.5 4 -65.5s3.5 -26.167 5.5 -27.5c2.66699 -8.66699 6.16699 -14.5 10.5 -17.5
s8.83301 -3.83301 13.5 -2.5s9.33398 4 14.001 8s9 8.66699 13 14c4.66699 6.66699 8.5 17.667 11.5 33s5.16699 33 6.5 53s2 41.333 2 64s-0.333008 44.334 -1 65.001s-1.66699 39.5 -3 56.5s-2.66602 30.167 -3.99902 39.5z" />
    <glyph glyph-name="braceright" unicode="}" horiz-adv-x="358" 
d="M344 325c-1.33301 8.66699 -4.49805 14.6699 -9.49805 18.0029s-10.833 5.5 -17.5 6.5s-13.334 1.83301 -20.001 2.5s-12.334 2.66699 -17.001 6c-7.33301 4.66699 -13.166 11.834 -17.499 21.501s-7.83301 20 -10.5 31s-4.83398 22 -6.50098 33
s-2.83398 20.167 -3.50098 27.5l-5 37.5c-2 15 -3.83301 30.5 -5.5 46.5s-2.5 31.333 -2.5 46c0 15.333 2 27.666 6 36.999c-5.33301 2 -8.66602 6 -9.99902 12s-2.33301 11.333 -3 16c-0.666992 7.33301 -3 15 -7 23s-8.83301 15.667 -14.5 23
s-11.834 14.166 -18.501 20.499l-18 17.5c-9.33301 1.33301 -18.666 2.5 -27.999 3.5s-18.666 3.16699 -27.999 6.5c-4.66699 -2 -10.167 -3.33301 -16.5 -4s-12.666 -1.5 -18.999 -2.5s-12.166 -2.66699 -17.499 -5s-9.33301 -6.16602 -12 -11.499
c-3.33301 -6 -3.16602 -9.83301 0.500977 -11.5s8.5 -2.33398 14.5 -2.00098s11.833 1 17.5 2s9.5 1.5 11.5 1.5c6 0 12.167 -2.66699 18.5 -8s12.166 -11.666 17.499 -18.999s10.166 -15 14.499 -23s7.16602 -14.333 8.49902 -19c3.33301 -12 4.5 -31 3.5 -57
s-1.83301 -53.167 -2.5 -81.5s0.166016 -54.833 2.49902 -79.5s8.5 -42 18.5 -52c8.66699 -8 16.667 -16 24 -24s16.333 -14.667 27 -20l16 -8c5.33301 -2.66699 9.33301 -6.66699 12 -12l-40 -19c-6 -14.667 -13.667 -26.5 -23 -35.5s-20 -17.833 -32 -26.5
c-4 -2.66699 -6.83301 -10.5 -8.5 -23.5s-2.5 -28.833 -2.5 -47.5c0 -18 0.166992 -37.667 0.5 -59s0.833008 -41.666 1.5 -60.999s1 -36.666 1 -51.999c0 -16 -0.666992 -27 -2 -33c-2 -10 -5.83301 -17.333 -11.5 -22s-12 -8 -19 -10s-14.167 -3.16699 -21.5 -3.5
s-14 -1 -20 -2s-10.5 -3.33301 -13.5 -7s-3.5 -9.83398 -1.5 -18.501c18 -5.33301 36 -8.83301 54 -10.5s34.667 -0.5 50 3.5s28.333 12 39 24s17.667 29.333 21 52c1.33301 11.333 3.83301 23.166 7.5 35.499s3.5 23.833 -0.5 34.5c-4 9.33301 -5.83301 20 -5.5 32
s1.5 24.333 3.5 37l6 37c2 12 3 22.667 3 32c-5.33301 7.33301 -6.16602 17.666 -2.49902 30.999s9.66699 26.666 18 39.999s17.5 25.666 27.5 36.999s18.333 18.666 25 21.999c2.66699 0 6.5 -0.166992 11.5 -0.5s10 -0.166016 15 0.500977s9.16699 2.16699 12.5 4.5
s4.66602 5.5 3.99902 9.5z" />
    <glyph glyph-name="asciitilde" unicode="~" horiz-adv-x="527" 
d="M456 336c-6 -4.66699 -12.9971 -9.33203 -20.9971 -13.999s-16.5 -8.66699 -25.5 -12s-18 -6 -27 -8s-17.167 -3 -24.5 -3c-10.667 0.666992 -20.5 3.16699 -29.5 7.5s-18.5 7.16602 -28.5 8.49902c-14 2 -27.5 6 -40.5 12s-26.5 9.33301 -40.5 10
c-28.667 1.33301 -53.334 -3 -74.001 -13s-40 -25.667 -58 -47c-5.33301 -5.33301 -9.5 -11.5 -12.5 -18.5s-3.83301 -14.167 -2.5 -21.5c1.33301 -14.667 6.66602 -22.167 15.999 -22.5s20 2.16699 32 7.5s23.667 11.333 35 18s19.666 10 24.999 10
c6.66699 -0.666992 13 -1.33398 19 -2.00098s12.333 -0.666992 19 0c16 1.33301 27.5 0.666016 34.5 -2.00098s12.833 -6 17.5 -10l14.5 -12.5c5 -4.33301 13.167 -7.16602 24.5 -8.49902s22 -3.16602 32 -5.49902s20 -4.16602 30 -5.49902s20 -1.5 30 -0.5
s20.667 3.83301 32 8.5c10.667 4.66699 21.5 13.167 32.5 25.5s18.833 25.166 23.5 38.499s5 25.833 1 37.5s-15.333 19.167 -34 22.5z" />
    <glyph glyph-name="exclamdown" unicode="&#xa1;" horiz-adv-x="319" 
d="M227 -167c8.66699 27.333 13.3301 54.8311 13.9971 82.498s-1 55.334 -5 83.001s-9.16699 55.334 -15.5 83.001s-12 55.167 -17 82.5s-8.5 54.666 -10.5 81.999s0 54.333 6 81c14.667 6.66699 25.834 17 33.501 31s10.5 28.833 8.5 44.5s-9.33301 30.834 -22 45.501
s-31.334 26 -56.001 34c-13.333 4 -24.166 2.16699 -32.499 -5.5s-14.333 -18.334 -18 -32.001s-5 -28.667 -4 -45s3.83301 -30.833 8.5 -43.5s11.334 -22.167 20.001 -28.5s19 -6.16602 31 0.500977c-3.33301 -10.667 -7.5 -27.834 -12.5 -51.501s-10.333 -50.667 -16 -81
s-11 -62.5 -16 -96.5s-9.5 -66 -13.5 -96s-6.83301 -56.833 -8.5 -80.5s-1.5 -40.167 0.5 -49.5c2.66699 -19.333 10.334 -33.666 23.001 -42.999s26 -15 40 -17s27.167 -1.16699 39.5 2.5s19.833 9.5 22.5 17.5z" />
    <glyph glyph-name="cent" unicode="&#xa2;" horiz-adv-x="384" 
d="M370 496c5.33301 19.333 4.49902 35.3359 -2.50098 48.0029s-16.833 23.167 -29.5 31.5s-26.667 15.5 -42 21.5s-28.666 12 -39.999 18c-6 3.33301 -9.33301 8.66602 -10 15.999s-1.16699 14.833 -1.5 22.5s-1.83301 14 -4.5 19s-9.33398 6.83301 -20.001 5.5
c-3.33301 -0.666992 -7 -4.66699 -11 -12s-7.66699 -15.833 -11 -25.5s-6.33301 -19.167 -9 -28.5s-4.66699 -16 -6 -20c-10 1.33301 -16.833 0 -20.5 -4s-8.5 -8.66699 -14.5 -14c-18 -17.333 -32.333 -30.5 -43 -39.5s-19.167 -18.333 -25.5 -28
s-11.5 -21.334 -15.5 -35.001s-8.33301 -33.5 -13 -59.5c-5.33301 -26 -5.16602 -49 0.500977 -69s14.334 -38 26.001 -54s24.834 -30.5 39.501 -43.5l41.5 -37c13 -11.667 24 -23.334 33 -35.001s13.5 -24.167 13.5 -37.5v-15c0 -4.66699 0.833008 -9 2.5 -13
s4.16699 -6.66699 7.5 -8s8.33301 -0.666016 15 2.00098c7.33301 2.66699 12 7.16699 14 13.5s3.33301 13.166 4 20.499s1.16699 14.666 1.5 21.999s2.5 13.666 6.5 18.999c7.33301 9.33301 16.666 16.5 27.999 21.5l32.5 15c10.333 5 19.333 11.667 27 20
s11.5 20.5 11.5 36.5c0 20 -5.16699 30.667 -15.5 32s-22 -1.66699 -35 -9s-25 -15.833 -36 -25.5s-16.833 -15.5 -17.5 -17.5c-0.666992 12 -0.833984 30.167 -0.500977 54.5s0.5 49.166 0.5 74.499c0 26 -0.333008 50 -1 72s-2.33398 36.667 -5.00098 44
c3.33301 -1.33301 6.33301 -5.16602 9 -11.499s6.33398 -13 11.001 -20s10.5 -13.333 17.5 -19s16.833 -7.83398 29.5 -6.50098c6.66699 0.666992 13 2.83398 19 6.50098s11.667 8.33398 17 14.001s9.83301 11.834 13.5 18.501s6.5 13 8.5 19zM184.999 515.003
c2 -7.33301 3.16602 -22.001 3.49902 -44.001s0.333008 -45.833 0 -71.5s-1.16602 -50.167 -2.49902 -73.5s-2.33301 -39.333 -3 -48c-8.66699 1.33301 -14 5 -16 11s-4.33301 12.333 -7 19c-2.66699 5.33301 -6 10.833 -10 16.5s-6 11.834 -6 18.501
c0 12 -0.5 26.167 -1.5 42.5s-1 33 0 50s3.66699 32.833 8 47.5s11.5 26.667 21.5 36c6.66699 6 11 4.66699 13 -4z" />
    <glyph glyph-name="sterling" unicode="&#xa3;" horiz-adv-x="479" 
d="M461 95c-4 0 -10 -2.83789 -18 -8.50488l-26 -18c-9.33301 -6.33301 -19 -11.666 -29 -15.999s-19.333 -4.83301 -28 -1.5c-10 4 -16 11.333 -18 22s-2.5 22.334 -1.5 35.001s3 25.334 6 38.001s4.5 22.667 4.5 30c0 4 -1.5 10.333 -4.5 19s-5.5 17.5 -7.5 26.5
s-2.83301 16.833 -2.5 23.5s4.16602 10.334 11.499 11.001c10.667 0.666992 21.167 1.83398 31.5 3.50098s20.833 3.16699 31.5 4.5c6 -6.66699 12.333 -9.33398 19 -8.00098s11.834 4.5 15.501 9.5s5.16699 10.833 4.5 17.5s-5.33398 12.334 -14.001 17.001
c-10.667 6 -21.834 9.5 -33.501 10.5s-23.334 1.33301 -35.001 1l-34.5 -1c-11.333 -0.333008 -22 1.16699 -32 4.5c-10.667 3.33301 -22.5 14.5 -35.5 33.5s-24.833 40.333 -35.5 64s-19.167 46.834 -25.5 69.501s-8.16602 39.667 -5.49902 51
c2.66699 9.33301 8.33398 18.833 17.001 28.5s18.5 17.5 29.5 23.5s22.167 9 33.5 9c12 0 22 -5 30 -15c5.33301 -7.33301 7.83301 -15.166 7.5 -23.499l-1 -26c-0.333008 -9 0.5 -17.833 2.5 -26.5s8 -17 18 -25c8.66699 -6.66699 17.5 -6.5 26.5 0.5s16 16.833 21 29.5
s7.16699 26 6.5 40s-6 25 -16 33l-23.5 18l-15.5 11.5c-4 3 -7.33301 5.33301 -10 7s-5.33398 2.83398 -8.00098 3.50098c-5.33301 0.666992 -12.166 1.16699 -20.499 1.5s-23.5 2.83301 -45.5 7.5c-3.33301 -2 -8.16602 -4.66699 -14.499 -8l-20.5 -11l-20 -11
c-6 -3.33301 -10 -6 -12 -8c-10.667 -10.667 -19 -24.167 -25 -40.5s-9.83301 -33.666 -11.5 -51.999s-1.5 -36.5 0.5 -54.5s6 -33.667 12 -47c4.66699 -11.333 10.834 -21.833 18.501 -31.5s12.167 -20.5 13.5 -32.5c0.666992 -10 -3.5 -17.333 -12.5 -22
s-18.5 -8.5 -28.5 -11.5s-18.167 -5.83301 -24.5 -8.5s-6.16602 -6.66699 0.500977 -12c10 -7.33301 18.5 -11.666 25.5 -12.999s13.333 -1.5 19 -0.5s11 2 16 3s10.167 0.166992 15.5 -2.5l11 4c14 -5.33301 26.833 -13.833 38.5 -25.5s20.667 -24.834 27 -39.501
s9.16602 -29.834 8.49902 -45.501s-6.33398 -30.167 -17.001 -43.5c-4 -4.66699 -8 -5.66699 -12 -3s-8.5 6.33398 -13.5 11.001l-16 14.5c-5.66699 5 -12.167 7.5 -19.5 7.5c-20.667 0.666992 -36.667 0.666992 -48 0s-19.833 -1.5 -25.5 -2.5s-9.66699 -2.33301 -12 -4
l-8 -6c-3 -2.33301 -7.16699 -4.5 -12.5 -6.5s-14.333 -4 -27 -6c-3.33301 -3.33301 -5.83301 -8.83301 -7.5 -16.5s-2.5 -15.834 -2.5 -24.501s0.833008 -17 2.5 -25s4.5 -13.333 8.5 -16c20.667 -16.667 38.5 -28.667 53.5 -36s28.667 -11.833 41 -13.5
s23.833 -1.33398 34.5 0.999023s21.834 5 33.501 8s24.5 5.5 38.5 7.5s30.667 1.66699 50 -1c13.333 -10 27.666 -14.833 42.999 -14.5s30 3.66602 44 9.99902s26.5 14.5 37.5 24.5s19.167 20 24.5 30s7 18.667 5 26s-9.33301 11.666 -22 12.999zM219 58.9951
c-1.33301 -7.33301 -5 -11.6689 -11 -13.002s-11.667 -3.33301 -17 -6c-9.33301 -4 -18.166 -4.66699 -26.499 -2s-15.333 6.66699 -21 12s-9 11 -10 17s1.16699 10.667 6.5 14c4 2 7.66699 2.83301 11 2.5s7 -0.166016 11 0.500977c2.66699 0 5 0.333008 7 1
s4.33301 1.33398 7 2.00098c4 0 8.66699 -0.333008 14 -1s10.166 -2 14.499 -4s8 -4.83301 11 -8.5s4.16699 -8.5 3.5 -14.5z" />
    <glyph glyph-name="currency" unicode="&#xa4;" horiz-adv-x="675" 
d="M617 238c-5.33301 -4 -10.8301 -11.3389 -16.4971 -22.0059s-11 -22.334 -16 -35.001s-9.33301 -25 -13 -37s-5.83398 -21.333 -6.50098 -28c-28 -27.333 -54.5 -46.833 -79.5 -58.5s-48.333 -17.167 -70 -16.5s-41.667 6.83398 -60 18.501s-34.333 27 -48 46
s-25.167 40.833 -34.5 65.5s-16 50.667 -20 78h9h31c16 0 34.333 -0.166992 55 -0.5s42.5 -0.666016 65.5 -0.999023s44.833 -0.666016 65.5 -0.999023s38.667 -0.5 54 -0.5s25.666 0.333008 30.999 1c10 0.666992 17.833 3.83398 23.5 9.50098s8.66699 12 9 19
s-2 13.833 -7 20.5s-12.5 11.667 -22.5 15c-4 1.33301 -13.333 2.16602 -28 2.49902s-32.334 0.5 -53.001 0.5c-20 0 -41.5 -0.166992 -64.5 -0.5s-44.833 -0.666016 -65.5 -0.999023s-38.5 -0.666016 -53.5 -0.999023s-24.5 -0.5 -28.5 -0.5h-25c0 12 0.666992 24 2 36
s3 23.667 5 35l1 3c31.333 0 65.333 -0.166992 102 -0.5s70.667 -0.5 102 -0.5h80c22 0 33.667 0.333008 35 1c12 4 20.5 9.5 25.5 16.5s7.5 13.833 7.5 20.5s-1.83301 12.334 -5.5 17.001s-8.16699 7 -13.5 7l-337 1c-2.66699 14.667 -4.5 29.334 -5.5 44.001
s1.83301 29 8.5 43c16 34 33.167 62 51.5 84s38.333 37 60 45s45.667 8.16699 72 0.5s55.833 -23.834 88.5 -48.501c0.666992 -7.33301 2.83398 -14 6.50098 -20s7.83398 -11.833 12.501 -17.5s9.5 -11.167 14.5 -16.5s9.16699 -11 12.5 -17
c3.33301 -5.33301 5 -11.333 5 -18c0 -6 1.66699 -11.667 5 -17c11.333 -20 20.666 -28.833 27.999 -26.5s13.166 11 17.499 26s7 34.167 8 57.5s0.666992 46.5 -1 69.5s-4.33398 43.667 -8.00098 62s-8.5 29.5 -14.5 33.5h-18c-6 -4.66699 -12.167 -10.667 -18.5 -18
s-12.166 -15.333 -17.499 -24s-10.5 -17.5 -15.5 -26.5s-9.16699 -16.833 -12.5 -23.5c-16.667 13.333 -32 27.166 -46 41.499s-28.333 27.166 -43 38.499s-30.834 20.333 -48.501 27s-38.834 9.33398 -63.501 8.00098c-6 -4 -15.667 -9.5 -29 -16.5
s-28.333 -15.5 -45 -25.5s-33.667 -21.5 -51 -34.5s-32.333 -27.167 -45 -42.5s-23.334 -30.833 -32.001 -46.5s-16 -31.334 -22 -47.001s-11.333 -31.334 -16 -47.001l-14 -45.5c-9.33301 0.666992 -18.5 1.16699 -27.5 1.5s-17.5 -0.166992 -25.5 -1.5
c-11.333 -1.33301 -19.5 -4.66602 -24.5 -9.99902s-7.5 -11.666 -7.5 -18.999c0 -6.66699 2.5 -13.334 7.5 -20.001s12.5 -11.667 22.5 -15c4.66699 -1.33301 10.834 -2.16602 18.501 -2.49902s16.167 -0.166016 25.5 0.500977c-1.33301 -22 0 -45.667 4 -71h-40
c-10 0 -15.667 -0.333008 -17 -1c-9.33301 -4 -16.166 -9.66699 -20.499 -17s-6.16602 -14.5 -5.49902 -21.5s3.33398 -13 8.00098 -18s11 -7.5 19 -7.5h70c18 -55.333 47.333 -104.833 88 -148.5s86 -79.5 136 -107.5c6.66699 -4 16.167 -5.5 28.5 -4.5
s25.333 2.83301 39 5.5s26.667 5.66699 39 9l30.5 8c23.333 4.66699 40 8.66699 50 12s17.833 7.33301 23.5 12s11.667 11.334 18 20.001s17.5 21 33.5 37l4 -2c11.333 0.666992 21.333 8 30 22s15 29.833 19 47.5s5.66699 34.5 5 50.5s-4.33398 26 -11.001 30z" />
    </font>
</defs>
</svg>
